<?xml version="1.0" standalone="no"?>
<!DOCTYPE svg PUBLIC "-//W3C//DTD SVG 1.1//EN" "http://www.w3.org/Graphics/SVG/1.1/DTD/svg11.dtd" >
<svg xmlns="http://www.w3.org/2000/svg">
<metadata>
This is a custom SVG webfont generated by Font Squirrel.
Copyright   : Copyright  1995 2002 Adobe Systems Incorporated  All Rights Reserved
Designer    : Vic Caruso
Foundry URL : httpwwwadobecomtype
</metadata>
<defs>
<font id="webfont6gUGvaRb" horiz-adv-x="1202" >
<font-face units-per-em="2048" ascent="1405" descent="-643" />
<missing-glyph horiz-adv-x="593" />
<glyph unicode=" "  horiz-adv-x="593" />
<glyph unicode="&#x09;" horiz-adv-x="593" />
<glyph unicode="&#xa0;" horiz-adv-x="593" />
<glyph unicode="!" horiz-adv-x="563" d="M408 250v-250h-250v250h250zM438 1366l-100 -952h-105l-96 952h301z" />
<glyph unicode="&#x22;" horiz-adv-x="768" d="M295 817h-158l-33 549h224zM633 817h-158l-33 549h224z" />
<glyph unicode="#" d="M1151 993l-35 -192h-198l-37 -209h200l-34 -193h-201l-70 -399h-186l72 399h-220l-69 -399h-189l72 401h-205l33 191h209l37 209h-209l35 192h209l65 373h184l-65 -373h215l67 373h185l-66 -373h201zM694 592l35 209h-215l-37 -209h217z" />
<glyph unicode="$" d="M659 10v-184h-135v184q-104 10 -186 43t-129 68t-84 90t-50.5 85t-27.5 75l215 49q57 -209 262 -227v395q-82 20 -123 32.5t-109.5 43t-103 65.5t-62.5 96.5t-28 141.5q0 94 37 167.5t86 112.5t115.5 64.5t106.5 33t81 11.5v143h135v-143q139 -12 252 -98.5t140 -208.5 l-201 -43q-51 150 -191 165v-354l103 -26q168 -43 253 -129.5t85 -245.5q0 -209 -168 -322q-99 -64 -273 -84zM524 836v335q-94 0 -149.5 -46t-55.5 -124q0 -136 205 -165zM659 575v-382q104 4 163 59t59 137q-1 141 -222 186z" />
<glyph unicode="%" horiz-adv-x="1579" d="M1516 356q0 -172 -95.5 -270t-230.5 -98q-137 0 -225 105.5t-88 262.5q0 197 103 295.5t222 98.5q27 0 60.5 -7.5t81 -32t83 -64.5t62.5 -116t27 -174zM1331 360q0 242 -129 242q-141 0 -141 -233.5t133 -233.5q47 0 79 31t42 78t13 71.5t3 44.5zM705 1008 q0 -188 -96.5 -290t-225.5 -102q-152 0 -234.5 117t-82.5 273q0 154 85 263t234 109q106 0 178 -49t98.5 -124t35 -118.5t8.5 -78.5zM518 1006q0 227 -133 227t-133 -227q0 -242 129 -242q137 0 137 242zM1290 1366l-848 -1366h-149l848 1366h149z" />
<glyph unicode="&#x26;" horiz-adv-x="1468" d="M1223 827l204 -34q-14 -98 -43.5 -184.5t-72.5 -155t-65.5 -100t-61.5 -77.5q47 -47 66.5 -64t49 -30.5t68.5 -13.5q29 0 59 6v-192q-164 -4 -228 17t-173 126q-203 -145 -446 -145q-211 0 -362.5 116.5t-151.5 311.5q0 74 25.5 136t56 102t89 80t90 56.5t93.5 44.5 q-43 53 -63.5 83t-38 77t-17.5 100q0 135 100.5 217t255.5 82q154 0 258.5 -78.5t104.5 -215.5q0 -117 -86 -211q-61 -70 -178 -123l295 -336q76 104 112 192q46 115 60 213zM895 274l-356 404q-63 -29 -138 -92q-66 -63 -65 -164q0 -119 83 -181.5t195 -62.5q150 0 281 96z M643 907q174 78 174 180q0 63 -44 94t-97 31q-57 0 -101.5 -32.5t-44.5 -87.5q0 -85 113 -185z" />
<glyph unicode="'" horiz-adv-x="485" d="M322 817h-158l-33 549h223z" />
<glyph unicode="(" horiz-adv-x="626" d="M557 -342h-135q-193 213 -277 463q-68 203 -67 409q0 154 39 300.5t98 252t110.5 174t96.5 109.5h135q-102 -152 -145 -231.5t-84 -208.5q-59 -195 -60 -400q0 -485 289 -868z" />
<glyph unicode=")" horiz-adv-x="626" d="M68 1366h135q195 -209 278 -461q68 -203 68 -409q0 -266 -107 -486q-115 -238 -239 -352h-135q74 109 103.5 157t63 121.5t62.5 163.5q59 195 59 400q1 483 -288 866z" />
<glyph unicode="*" horiz-adv-x="1105" d="M506 999l-27 367h148l-27 -367l342 138l45 -140l-356 -90l235 -280l-118 -86l-195 311l-195 -311l-120 86l237 280l-356 90l45 140z" />
<glyph unicode="+" d="M1108 784v-190h-412v-424h-190v424h-410v190h410v426h190v-426h412z" />
<glyph unicode="," horiz-adv-x="505" d="M377 256v-229l-160 -320h-88l119 293h-119v256h248z" />
<glyph unicode="-" horiz-adv-x="501" d="M502 614v-186h-502v186h502z" />
<glyph unicode="." horiz-adv-x="505" d="M377 262v-262h-248v262h248z" />
<glyph unicode="/" horiz-adv-x="980" d="M920 1366l-893 -1706h-142l889 1706h146z" />
<glyph unicode="0" d="M1128 729q0 -180 -24.5 -295t-87.5 -215q-147 -240 -418 -239q-113 0 -204 40.5t-149.5 107.5t-98.5 158t-56 186t-16 198q0 324 143 518q147 199 383 198q106 0 192.5 -35.5t139.5 -89t93 -126t59.5 -135t29.5 -130t12 -96.5t2 -45zM877 733q0 217 -74 357 q-61 115 -198.5 114.5t-203.5 -114.5q-76 -135 -75 -400q0 -254 63.5 -386t208.5 -132q57 0 102 21.5t75 51t50.5 83t29.5 94.5t14 108.5t6.5 103.5t1.5 99z" />
<glyph unicode="1" d="M778 1393v-1192h385v-201h-1044v201h411v862q-205 -176 -372 -246v246q145 55 201.5 87t144.5 114q76 70 110 129h164z" />
<glyph unicode="2" d="M1081 213v-213h-1007v240l395 260q352 229 352 432q0 98 -65.5 168.5t-177.5 70.5q-137 0 -209 -108q-45 -68 -58 -178l-237 59q8 45 16 71.5t29.5 82t64.5 105.5t103 95q123 88 303 88q227 0 361 -129t134 -329q0 -90 -29.5 -166t-111.5 -164q-70 -74 -171 -141.5 t-402 -243.5h710z" />
<glyph unicode="3" d="M430 602v195h125q29 0 62.5 5t84 22.5t83 61.5t32.5 109q0 51 -18.5 89t-44 58.5t-60.5 32t-58.5 14.5t-45.5 3q-113 0 -175.5 -52.5t-99.5 -146.5l-225 39q41 160 177 257t331 97q184 0 324.5 -95t140.5 -271q0 -117 -67.5 -207t-186.5 -102q92 -16 155.5 -57.5 t92 -94.5t39 -95t10.5 -83q0 -174 -141.5 -287.5t-376.5 -113.5q-219 0 -357.5 107.5t-179.5 254.5l232 57l16 -46q6 -17 30.5 -56t54.5 -62.5t83 -43t119 -19.5q125 0 195.5 63.5t70.5 145.5q0 23 -7 51.5t-29.5 71.5t-79 70.5t-138.5 27.5h-168z" />
<glyph unicode="4" d="M928 0h-252v309h-606v180l606 904h252v-873h205v-211h-205v-309zM676 520v377q0 47 6 109q2 16 6 65t6 66l-387 -617h369z" />
<glyph unicode="5" d="M119 610l78 756h850l-23 -211h-647l-37 -397q35 43 63.5 69.5t98 57t155.5 30.5q203 0 337 -136t134 -324q0 -82 -30.5 -162t-90 -151.5t-167 -116.5t-244.5 -45q-279 0 -428 159q-72 76 -109 213l238 35q70 -209 287 -209q143 0 210.5 85t67.5 194q0 113 -70.5 191.5 t-187.5 78.5q-104 0 -180 -57q-45 -33 -84 -103z" />
<glyph unicode="6" d="M1087 1055l-208 -41q-61 193 -240 192q-98 0 -168 -52t-111 -189q-37 -123 -32 -293q16 29 26.5 45t42 51t65.5 55.5t92 37t128 16.5q190 0 320.5 -121t130.5 -312q0 -193 -135.5 -328.5t-358.5 -135.5q-258 0 -408.5 184t-150.5 504q0 313 143.5 515.5t405.5 202.5 q236 0 364 -143q59 -65 94 -188zM897 430q0 47 -21.5 101.5t-87 104.5t-161.5 50q-119 0 -188.5 -79t-69.5 -187q0 -111 70.5 -185.5t195.5 -74.5q102 0 182 62.5t80 207.5z" />
<glyph unicode="7" d="M125 1366h969v-174q-168 -225 -246 -367.5t-125 -335t-64 -489.5h-280q16 225 60 390t130 329q123 238 316 436h-781z" />
<glyph unicode="8" d="M346 674q-47 25 -75.5 43t-72.5 58t-68 97.5t-24 128.5q0 166 130.5 275.5t369.5 109.5q223 0 353.5 -97t130.5 -257q0 -66 -21.5 -117t-66 -86.5t-75 -53t-79.5 -40.5l75.5 -38t76 -48t74 -67.5t48 -88t21.5 -116.5q0 -166 -143.5 -281.5t-411.5 -115.5 q-248 0 -389.5 100t-141.5 266q0 76 30 136.5t83 98t89 55.5t87 38zM516 594q-119 -45 -171 -108.5t-52 -127.5q0 -78 79 -139t230 -61q141 0 215 53t74 129q0 84 -82 135t-293 119zM678 807q39 18 61.5 30.5t57 39t52 64.5t17.5 85q0 98 -82 144.5t-176 46.5 q-33 0 -68.5 -6.5t-80.5 -24t-75 -55t-30 -91.5q0 -82 71 -129t253 -104z" />
<glyph unicode="9" d="M121 248l205 59q27 -43 46 -65.5t69.5 -50t115.5 -27.5q88 0 152.5 45t100.5 124t53.5 172t17.5 202q-29 -49 -48.5 -76t-61.5 -66t-104.5 -57.5t-144.5 -18.5q-184 0 -317 117t-133 322q0 193 131 325.5t358 132.5q109 0 205 -36.5t177 -111.5t128 -208t47 -309 q0 -150 -33.5 -280t-99 -234.5t-177.5 -165.5t-257 -61q-172 0 -280.5 76.5t-149.5 191.5zM838 961q0 84 -70 161.5t-197 77.5q-119 0 -191.5 -74.5t-72.5 -183.5q0 -102 71 -178t189 -76q98 0 184.5 66t86.5 207z" />
<glyph unicode=":" horiz-adv-x="505" d="M377 250v-250h-248v250h248zM377 944v-250h-248v250h248z" />
<glyph unicode=";" horiz-adv-x="505" d="M377 256v-229l-160 -320h-88l119 293h-119v256h248zM377 944v-250h-248v250h248z" />
<glyph unicode="&#x3c;" d="M1047 1221v-230l-644 -309l644 -311v-230l-889 443v196z" />
<glyph unicode="=" d="M1106 924v-191h-1010v191h1010zM1106 625v-191h-1010v191h1010z" />
<glyph unicode="&#x3e;" d="M158 141v232l643 309l-643 311v228l889 -443v-194z" />
<glyph unicode="?" horiz-adv-x="1028" d="M641 250v-250h-235v250h235zM600 391h-194v137q0 70 30.5 110t116.5 107q141 109 141 230q0 96 -57 148.5t-141 52.5q-55 0 -98.5 -20.5t-67 -46.5t-42 -73t-23.5 -72.5t-13 -72.5l-217 39q25 233 168 344.5t317 111.5q190 0 316.5 -112.5t126.5 -284.5q0 -72 -19.5 -131 t-64.5 -108.5t-76 -76t-92 -71.5q-70 -51 -84.5 -66.5t-20.5 -48.5q-6 -45 -6 -96z" />
<glyph unicode="@" horiz-adv-x="1468" d="M1100 1040l-58 -465q-6 -41 -6 -96q0 -66 49 -65q78 0 148 107.5t70 250.5q0 156 -82 271.5t-201 168t-252 52.5q-248 0 -414 -169t-166 -411q0 -80 20.5 -157.5t67 -153.5t113 -133.5t168.5 -92t227 -34.5q96 0 184.5 19.5t133.5 37.5t131 59l61 -135 q-262 -125 -508 -125q-188 0 -338.5 64.5t-240.5 169t-136 227.5t-46 252q0 307 217 511t524 204q283 0 480.5 -174t197.5 -445q0 -190 -107.5 -347t-271.5 -157q-123 0 -170 105q-86 -109 -209 -109q-133 0 -220 109.5t-87 275.5q0 182 103.5 292t240.5 110t197 -86l8 69 h172zM907 713q0 70 -49 125t-121 55q-78 0 -129 -68.5t-51 -177.5q0 -90 39 -151.5t104 -61.5q76 0 141.5 74t65.5 205z" />
<glyph unicode="A" horiz-adv-x="1234" d="M762 1366l459 -1366h-263l-110 326h-524l-107 -326h-211l455 1366h301zM385 522h397l-198 611z" />
<glyph unicode="B" horiz-adv-x="1243" d="M150 0v1366h532q76 0 124 -4t123 -36t122 -91q76 -94 75 -223q0 -31 -5 -60.5t-25.5 -84t-75.5 -97.5t-141 -63q43 -10 66.5 -16.5t68.5 -32t78 -62.5q78 -92 77 -223q0 -78 -29.5 -153t-80.5 -120q-119 -100 -311 -100h-598zM383 596v-391h319q98 0 158 52t60 144 q0 84 -59.5 139.5t-158.5 55.5h-319zM383 1171v-380h301q90 0 144.5 54t54.5 144q0 74 -43 118t-83 54t-79 10h-295z" />
<glyph unicode="C" horiz-adv-x="1185" d="M913 475l230 -26q-37 -248 -183.5 -358.5t-334.5 -110.5q-131 0 -232.5 51t-159 128t-94.5 177t-49 184t-12 164q0 137 32.5 260t97 223.5t174.5 159.5t251 59q213 0 343 -126.5t167 -356.5l-230 -24q-10 47 -18 75.5t-30.5 77.5t-49.5 79t-74 53.5t-106 23.5 q-78 0 -135.5 -41t-86 -97.5t-46 -133t-20.5 -126t-3 -100.5q0 -268 87 -386t212 -118q102 0 179 77t91 212z" />
<glyph unicode="D" horiz-adv-x="1341" d="M143 0v1366h504q254 0 422 -170q195 -197 195 -512q0 -342 -228 -545q-57 -51 -172.5 -95t-271.5 -44h-449zM395 1171v-970h207q170 0 282.5 129t112.5 364q0 197 -99 337t-267 140h-236z" />
<glyph unicode="E" horiz-adv-x="1099" d="M1036 0h-886v1366h878v-203h-633v-370h508v-199h-508v-383h641v-211z" />
<glyph unicode="F" horiz-adv-x="1040" d="M401 0h-251v1366h862v-211h-611v-375h482v-205h-482v-575z" />
<glyph unicode="G" horiz-adv-x="1314" d="M1186 698v-698h-109l-76 184q-129 -205 -368 -204q-141 0 -249 59t-164 141t-91 189.5t-43 179.5t-8 135q0 94 17.5 187.5t61.5 187.5t108.5 165.5t167 116.5t229.5 45q244 0 391 -174q37 -43 63.5 -95t32.5 -75l20 -73l-215 -37q-61 250 -286 250q-152 0 -234 -113 q-96 -131 -96 -369q0 -518 326 -518q123 0 207.5 86t82.5 232h-282v198h514z" />
<glyph unicode="H" horiz-adv-x="1312" d="M1163 1366v-1366h-245v592h-523v-592h-245v1366h245v-563h523v563h245z" />
<glyph unicode="I" horiz-adv-x="546" d="M395 0h-245v1366h245v-1366z" />
<glyph unicode="J" horiz-adv-x="759" d="M623 1366v-942q0 -195 -60 -285q-100 -160 -364 -159q-117 0 -199 20v199q104 -8 158 -9q76 0 122 17.5t64 56.5t22.5 70t4.5 90v942h252z" />
<glyph unicode="K" horiz-adv-x="1257" d="M1223 0h-275l-289 696l-264 -350v-346h-245v1366h245v-719q53 82 68 103l455 616h247l-323 -448z" />
<glyph unicode="L" horiz-adv-x="1019" d="M989 0h-839v1366h260v-1143h579v-223z" />
<glyph unicode="M" horiz-adv-x="1640" d="M1489 0h-252v1196l-379 -1196h-129l-379 1196v-1196h-200v1366h385l284 -881l283 881h387v-1366z" />
<glyph unicode="N" horiz-adv-x="1331" d="M1182 1366v-1366h-226l-534 872l-76 152v-1024h-196v1366h272l479 -805l12 -23l32 -60l40 -77v965h197z" />
<glyph unicode="O" horiz-adv-x="1316" d="M1239 684q0 -315 -159.5 -509.5t-426.5 -194.5q-125 0 -225 44t-163.5 115.5t-106.5 165.5t-61.5 189.5t-18.5 193.5q0 291 157.5 494.5t428.5 203.5q184 0 318 -100t195.5 -257t61.5 -345zM973 686q0 215 -68 352q-74 150 -246 150q-315 0 -315 -508q0 -61 5 -115.5 t23.5 -129.5t50.5 -128t91 -91t141 -38q86 0 155 45t101 113q62 123 62 350z" />
<glyph unicode="P" horiz-adv-x="1226" d="M395 0h-245v1366h559q176 0 286 -68q184 -115 185 -337q0 -193 -129 -306.5t-314 -113.5h-342v-541zM395 1161v-409h293q123 0 178.5 60t55.5 142q0 68 -37 123q-51 84 -219 84h-271z" />
<glyph unicode="Q" horiz-adv-x="1316" d="M1184 -72v-209q-90 -8 -140 -8q-84 0 -143 20.5t-89 45t-47 67.5t-20.5 68t-5.5 65q-6 0 -41.5 -2t-54.5 -2q-147 0 -260 62.5t-177.5 167t-96 223.5t-31.5 248q0 141 34.5 266t102.5 226.5t182.5 160.5t261.5 59q356 0 510 -344q70 -152 70 -358q0 -371 -225 -578 q-8 -8 -51 -37.5t-50 -35.5q-10 -10 -10 -27q0 -33 31 -59.5t82 -26.5q86 0 168 8zM973 684q0 88 -12.5 166t-42 160t-96 130t-160.5 48q-317 0 -318 -516q0 -492 307 -492q322 0 322 504z" />
<glyph unicode="R" horiz-adv-x="1316" d="M1214 0h-260l-213 561h-346v-561h-245v1366h591q236 0 357 -106q123 -113 123 -295q0 -72 -20.5 -133.5t-45.5 -96.5t-65.5 -66.5t-61 -42t-53.5 -24.5zM395 1169v-411h307q109 0 186 48t77 163q0 86 -59.5 143t-182.5 57h-328z" />
<glyph unicode="S" horiz-adv-x="1169" d="M8 330l238 51q35 -137 160 -176q80 -27 169 -27q150 0 211.5 57.5t61.5 122.5q0 45 -16.5 79t-46 53.5t-52 28.5t-53.5 18l-305 77q-145 37 -220 133.5t-75 231.5q0 188 136 297.5t347 109.5q223 0 375 -118q86 -68 115 -176l-234 -60q-53 156 -252 156 q-127 0 -181 -52.5t-54 -117.5q0 -113 190 -164l232 -57q49 -12 82.5 -23.5t90 -42.5t91.5 -68.5t62.5 -104t27.5 -150.5q0 -199 -151.5 -313.5t-391.5 -114.5q-258 0 -420 129q-43 35 -72.5 79.5t-38.5 69.5z" />
<glyph unicode="T" horiz-adv-x="989" d="M627 0h-265v1155h-362v211h989v-211h-362v-1155z" />
<glyph unicode="U" horiz-adv-x="1218" d="M1085 1366v-879q0 -76 -4 -118.5t-19 -108t-58 -117t-111 -94.5q-115 -70 -283 -69q-254 0 -366 131q-70 84 -89.5 164.5t-19.5 193.5v897h252v-879q0 -160 59 -221q68 -72 193 -71q61 0 118.5 22.5t84.5 61.5q47 66 47 208v879h196z" />
<glyph unicode="V" horiz-adv-x="1105" d="M676 0h-250l-422 1366h260l314 -1047l319 1047h205z" />
<glyph unicode="W" horiz-adv-x="1808" d="M1788 1366l-365 -1366h-258l-272 1004l-246 -1004h-254l-373 1366h263l264 -997l246 997h247l273 -997l258 997h217z" />
<glyph unicode="X" horiz-adv-x="1161" d="M1149 0h-287l-301 539l-321 -539h-230l434 713l-372 653h286l252 -455l267 455h231l-381 -623z" />
<glyph unicode="Y" horiz-adv-x="1114" d="M698 0h-260v575l-465 791h297l324 -563l309 563h238l-443 -791v-575z" />
<glyph unicode="Z" horiz-adv-x="1091" d="M1051 211v-211h-1010v193l700 978h-651v195h940v-195l-692 -960h713z" />
<glyph unicode="[" horiz-adv-x="626" d="M494 1202h-166v-1380h166v-164h-344v1708h344v-164z" />
<glyph unicode="\" horiz-adv-x="980" d="M186 1366l891 -1706h-143l-893 1706h145z" />
<glyph unicode="]" horiz-adv-x="626" d="M133 -178h166v1380h-166v164h344v-1708h-344v164z" />
<glyph unicode="^" d="M1094 633h-197l-297 569l-295 -569h-196l387 733h211z" />
<glyph unicode="_" horiz-adv-x="1024" d="M1024 -154v-102h-1024v102h1024z" />
<glyph unicode="`" horiz-adv-x="1024" d="M281 1487l393 -219l-43 -107l-416 176z" />
<glyph unicode="a" horiz-adv-x="1105" d="M971 659v-454q0 -100 30 -205h-217q-29 86 -36 205q-16 -39 -34 -67.5t-57 -70.5t-103.5 -64.5t-147.5 -22.5q-156 0 -245 90t-89 221q0 347 631 346h45v76q0 156 -216 155q-70 0 -118.5 -16t-71.5 -46t-31 -48.5t-14 -44.5l-195 28q49 289 457 289q221 0 307 -74 q72 -61 88.5 -121.5t16.5 -175.5zM748 422v92q-156 0 -277 -33q-29 -10 -46 -17t-51 -27.5t-51.5 -54.5t-17.5 -79q0 -18 6 -39.5t21.5 -49.5t54.5 -45t96 -17q78 0 134.5 29.5t82 76.5t37 87t11.5 77z" />
<glyph unicode="b" horiz-adv-x="1101" d="M240 0h-103v1366h228v-494q35 59 60.5 91t83.5 63t136 31q158 0 271.5 -135.5t113.5 -397.5q0 -242 -117 -397q-113 -147 -299 -147q-86 0 -152.5 31.5t-95 64.5t-65.5 88zM365 582v-152q0 -137 57 -200.5t151 -63.5q59 0 102.5 28.5t65 65.5t32.5 96.5t14.5 92t3.5 81.5 q-12 330 -211 330q-86 0 -150.5 -68.5t-64.5 -209.5z" />
<glyph unicode="c" horiz-adv-x="954" d="M719 371l196 -21q-82 -371 -413 -370q-115 0 -202 49t-135 129t-70.5 168t-22.5 180q0 221 118.5 372.5t331.5 151.5q94 0 166 -29.5t111 -67.5t66.5 -95.5t35.5 -87t14 -68.5l-196 -27q-27 188 -187 189q-137 0 -190 -158q-29 -86 -29 -190q0 -35 4.5 -70t20.5 -100.5 t63.5 -106.5t118.5 -41q152 0 199 193z" />
<glyph unicode="d" horiz-adv-x="1101" d="M965 0h-213v203q-16 -39 -31.5 -65.5t-50.5 -69.5t-89.5 -65.5t-125.5 -22.5q-100 0 -175 47t-113 110.5t-61.5 146.5t-28.5 136t-5 98q0 82 19.5 167t61.5 171t123.5 140.5t190.5 54.5q190 0 270 -179v494h228v-1366zM737 424v172q0 111 -53 184q-53 76 -156 76 q-72 0 -119 -40t-65 -106.5t-24.5 -111.5t-6.5 -94q0 -33 2 -62.5t13.5 -85t32 -93.5t62.5 -67.5t99 -29.5q84 0 149.5 71.5t65.5 186.5z" />
<glyph unicode="e" horiz-adv-x="1073" d="M778 322l205 -29q-51 -160 -170 -236.5t-276.5 -76.5t-267 79.5t-153.5 193.5t-44 249q0 229 129 378.5t346 149.5q231 0 345 -158q110 -152 110 -378q0 -8 -1 -17h-692v-19q0 -133 53 -208q61 -92 189 -92q57 0 99 16t67.5 47t37 50.5t23.5 50.5zM309 625h455 q-4 94 -49 157q-68 88 -176 88q-117 0 -183 -98q-37 -53 -47 -147z" />
<glyph unicode="f" horiz-adv-x="647" d="M391 0h-219v831h-149v179h149q0 80 3 123t33 106.5t87 101.5q73 47 250 47q33 0 69 -2v-178q-27 2 -59 2q-61 0 -95 -9t-48.5 -40t-17.5 -58.5t-3 -92.5h223v-179h-223v-831z" />
<glyph unicode="g" horiz-adv-x="1060" d="M1059 1202v-174h-70q-102 0 -147 -82q119 -100 119 -217q0 -137 -114 -224t-296 -87q-78 0 -189 26q-70 -37 -69 -98q0 -37 38 -68.5t124 -31.5h258q172 0 259 -82t87 -195q0 -55 -23.5 -107t-77 -105.5t-163 -86t-260.5 -32.5q-489 0 -490 274q0 57 24.5 99t50 61.5 t73.5 44.5q-49 43 -72 78.5t-23 87.5q0 59 33 106t59.5 64.5t69.5 40.5q-141 88 -141 231q0 47 16.5 93t57 97.5t129 83t213.5 31.5q82 0 196 -20q20 104 92 149q63 43 166 43h70zM727 727q0 59 -42 109.5t-140 50.5q-100 0 -145.5 -51.5t-45.5 -116.5q0 -72 48.5 -119 t138.5 -47q74 0 127 35q39 29 49 59.5t10 79.5zM242 -33q0 -47 44 -92t107 -59q86 -23 191 -23q262 0 262 135q0 49 -45 76t-105 27h-159q-174 0 -246 24q-49 -47 -49 -88z" />
<glyph unicode="h" horiz-adv-x="1110" d="M137 0v1366h228v-535q90 219 297 220q164 0 237.5 -94.5t73.5 -305.5v-651h-228v614q0 37 -1 59.5t-9 61.5t-22.5 60.5t-45 40t-73.5 18.5q-59 0 -111.5 -31.5t-74.5 -79.5q-43 -96 -43 -260v-483h-228z" />
<glyph unicode="i" horiz-adv-x="501" d="M365 0h-228v1012h228v-1012zM365 1128h-228v238h228v-238z" />
<glyph unicode="j" horiz-adv-x="501" d="M365 1012v-1039q0 -199 -97 -290q-88 -88 -250 -89q-47 0 -116 13v192q57 -4 71 -4q104 0 134 40t30 138v1039h228zM365 1128h-228v238h228v-238z" />
<glyph unicode="k" horiz-adv-x="1089" d="M1042 1010l-303 -334l336 -676h-239l-258 518l-224 -252v-266h-219v1366h219v-848q41 53 45 57l398 435h245z" />
<glyph unicode="l" horiz-adv-x="501" d="M365 0h-228v1366h228v-1366z" />
<glyph unicode="m" horiz-adv-x="1781" d="M135 0v1010h223v-215q27 49 44.5 75.5t57.5 71.5t99 66.5t135 21.5q61 0 112.5 -19.5t79 -43t51.5 -63.5t31 -58.5t17 -50.5q125 236 336 235q160 0 242 -101.5t82 -273.5v-655h-240v594q0 111 -35 170t-137 59q-96 0 -159.5 -70.5t-63.5 -224.5v-528h-240v629 q0 199 -164 198q-96 0 -163.5 -80.5t-67.5 -254.5v-492h-240z" />
<glyph unicode="n" horiz-adv-x="1107" d="M137 0v1010h207v-234q23 47 40 78t54 78t91.5 72.5t119.5 25.5q68 0 121 -18.5t86 -43t56.5 -68.5t34.5 -74.5t17.5 -85t6.5 -75.5v-67v-598h-228v594q0 238 -155 237q-23 0 -43.5 -3t-56 -23.5t-60.5 -55t-44 -106.5t-19 -170v-473h-228z" />
<glyph unicode="o" horiz-adv-x="1083" d="M1012 508q0 -246 -138.5 -387t-341.5 -141q-98 0 -178 32.5t-131 87t-86 125t-50 142t-15 143.5q0 217 127 368.5t348 151.5q219 0 342 -151.5t123 -370.5zM770 510q0 147 -53 240.5t-172 93.5q-125 0 -178.5 -98.5t-53.5 -239.5q0 -31 1 -57.5t13.5 -83t34 -96.5 t68.5 -71.5t111 -31.5q74 0 124 37t70.5 98t27.5 109.5t7 99.5z" />
<glyph unicode="p" horiz-adv-x="1101" d="M369 -342h-232v1352h217v-176q20 37 38 59t55.5 60t92 57.5t124.5 19.5q102 0 178 -52t114.5 -135t56 -166t17.5 -165q0 -250 -119 -408q-94 -125 -264 -124q-184 0 -278 161v-483zM369 559v-145q0 -113 63.5 -183.5t147.5 -70.5q68 0 112.5 35.5t64 95t25.5 107.5 t6 99.5t-7 102.5t-26.5 110.5t-62.5 96.5t-106 37q-88 0 -152.5 -77t-64.5 -208z" />
<glyph unicode="q" horiz-adv-x="1110" d="M973 1010v-1352h-238v520q-82 -199 -280 -198q-92 0 -164 39.5t-112 97t-65.5 133.5t-33.5 136t-8 116q0 217 105.5 372.5t316.5 155.5q82 0 146.5 -30.5t90 -58.5t60.5 -73l61 142h121zM735 449v145q0 39 -7 76t-25.5 79t-60.5 68.5t-101 26.5q-119 0 -173.5 -96.5 t-54.5 -243.5q0 -168 61.5 -255t151.5 -87q82 0 145.5 72t63.5 215z" />
<glyph unicode="r" horiz-adv-x="677" d="M137 0v1010h205v-242l22 59q9 25 35.5 70t57 73.5t82.5 49.5q47 19 101 19q6 0 11 -1v-245q-139 0 -211 -82q-76 -88 -75 -301v-410h-228z" />
<glyph unicode="s" horiz-adv-x="929" d="M12 231l215 41q10 -25 20.5 -40t34 -37.5t63.5 -33.5t97 -11q213 0 213 124q0 43 -34.5 68t-75.5 33l-185 37q-307 53 -307 297q0 49 15.5 97t53.5 102.5t121 88t197 33.5q319 0 391 -233l-202 -41q-35 113 -183 112q-182 0 -182 -114q0 -80 148 -109l217 -45 q254 -51 254 -291q0 -80 -33 -141.5t-81 -96t-111.5 -56t-114.5 -28.5t-101 -7q-176 0 -287.5 68t-142.5 183z" />
<glyph unicode="t" horiz-adv-x="659" d="M606 178v-178q-86 -20 -160 -20q-147 0 -215 79q-43 49 -56 102.5t-13 147.5v522h-125v179h139l21 262l186 16v-278h203v-179h-203v-491q0 -100 37 -132t129 -32q32 0 57 2z" />
<glyph unicode="u" horiz-adv-x="1103" d="M967 1010v-1010h-213v217q-37 -106 -107 -164q-90 -74 -211 -73q-170 0 -248 122q-51 82 -51 201v707h234v-641q0 -195 141 -195q57 0 115.5 40t83.5 101q29 76 28 209v486h228z" />
<glyph unicode="v" horiz-adv-x="909" d="M897 1010l-344 -1010h-188l-351 1010h238l235 -684l230 684h180z" />
<glyph unicode="w" horiz-adv-x="1427" d="M1407 1010l-297 -1010h-205l-182 707l-180 -707h-211l-312 1010h242l201 -680l172 680h207l178 -680l194 680h193z" />
<glyph unicode="x" horiz-adv-x="905" d="M905 0h-262l-213 369l-233 -369h-197l336 520l-291 490h262l166 -297l189 297h190l-285 -439z" />
<glyph unicode="y" horiz-adv-x="905" d="M891 1010l-393 -1151q-45 -133 -116 -178.5t-159 -45.5q-35 0 -131 9v180q47 -2 83 -2t62 2q50 4 80 29q20 18 42 71t22 74q0 12 -21 63l-346 949h238l246 -668l211 668h182z" />
<glyph unicode="z" horiz-adv-x="858" d="M809 178v-178h-762v178l498 653h-451v179h715v-162l-492 -670h492z" />
<glyph unicode="{" horiz-adv-x="667" d="M373 274v-297q0 -102 35.5 -133.5t162.5 -31.5v-154q-72 0 -105.5 1t-87.5 9t-81 25.5t-56.5 48.5t-41 82t-11.5 121v321q0 76 -22.5 119t-91.5 59v146q61 14 87.5 53t26.5 115v336q0 57 11.5 101t27 72.5t47 48t56 29t74 14.5t79 6t88.5 1v-154q-129 0 -163.5 -31.5 t-34.5 -127.5v-308q0 -78 -20.5 -128t-42 -66t-62.5 -39q61 -35 93 -84.5t32 -153.5z" />
<glyph unicode="|" horiz-adv-x="1024" d="M395 1536h232v-2048h-232v2048z" />
<glyph unicode="}" horiz-adv-x="667" d="M295 750v299q0 100 -36 131.5t-163 31.5v154q59 0 89 -1t79 -6t73.5 -15.5t56.5 -31t47.5 -51t26.5 -76.5t11 -106v-321q0 -76 22.5 -119t92.5 -59v-146q-61 -14 -88 -53t-27 -115v-336q0 -80 -22.5 -133t-51 -80.5t-88 -41t-100.5 -15.5t-121 -2v154q129 0 164 31.5 t35 127.5v308q0 78 20.5 128t42 66t62.5 39q-61 35 -93 84.5t-32 153.5z" />
<glyph unicode="~" d="M233 506l-129 84q33 70 52.5 104.5t55.5 80.5t83 65.5t111 19.5q70 0 217 -57q139 -53 184 -53q41 0 73.5 19t47 38.5t37.5 56.5l133 -78q-27 -55 -45.5 -85.5t-57.5 -79t-94 -72t-123 -23.5q-70 0 -196 54q-152 57 -193 57q-31 0 -55.5 -10.5t-45 -35t-30 -38.5 t-25.5 -47z" />
<glyph unicode="&#xa1;" horiz-adv-x="563" d="M158 774v250h250v-250h-250zM127 -342l100 952h105l96 -952h-301z" />
<glyph unicode="&#xa2;" d="M561 1450h127v-258q55 -8 97 -22.5t97.5 -48.5t96.5 -101.5t61 -163.5l-186 -35q-25 76 -54.5 118t-51 53.5t-60.5 19.5v-619q57 6 95 43t71 142l186 -27q-37 -174 -127 -244.5t-225 -95.5v-279h-127v279q-45 10 -68.5 16t-69.5 25.5t-86 54.5t-77 86q-86 127 -86 305 q0 242 150 383q88 86 237 111v258zM561 393v619q-29 -6 -46 -16.5t-46 -40t-43 -96t-14 -165.5q0 -115 26 -180q16 -43 40 -69.5t40 -35t43 -16.5z" />
<glyph unicode="&#xa3;" d="M-25 0v227q96 2 146.5 12.5t93.5 45.5q94 72 94 196q0 27 -12 142h-158v178h137q-16 111 -16 170q0 180 113.5 297.5t298.5 117.5q92 0 162.5 -24.5t116.5 -71.5t67.5 -77.5t46.5 -75.5l-193 -90q-10 27 -18 43t-29.5 46.5t-58.5 47t-84 16.5q-82 0 -128 -52t-46 -159 q0 -66 31 -188h247v-178h-247q2 -160 -29 -235t-123 -161h260q174 0 250 38t92 155l217 -109q-29 -74 -65.5 -130t-80.5 -89t-82 -53.5t-89 -27.5t-78 -9t-74 -2h-762z" />
<glyph unicode="&#xa4;" d="M74 346l174 174q-80 113 -80 244q0 123 80 240l-176 176l106 108l176 -176q127 80 248 80q127 0 242 -78l174 174l108 -108l-174 -174q82 -123 82 -244q0 -117 -78 -240l174 -176l-106 -108l-174 176q-121 -82 -248 -82q-115 0 -248 80l-176 -172zM600 1016 q-104 0 -178 -75t-74 -179q0 -106 74 -180t178.5 -74t179 73.5t74.5 180.5q0 104 -72.5 179t-181.5 75z" />
<glyph unicode="&#xa5;" d="M106 866h224l-271 500h283l295 -565l281 565h223l-256 -500h209v-123h-273l-86 -168v-32h359v-123h-359v-420h-248v420h-381v123h381v32l-92 168h-289v123z" />
<glyph unicode="&#xa6;" horiz-adv-x="1024" d="M627 1382v-716h-232v716h232zM627 358v-716h-232v716h232z" />
<glyph unicode="&#xa7;" d="M125 -63l217 40q86 -166 281 -165q98 0 157.5 43t59.5 102q0 41 -17.5 72.5t-51.5 53t-58.5 33t-65.5 25.5l-217 80q-86 33 -131 65.5t-78 98.5q-35 72 -35 147q0 168 156 267q-37 29 -57.5 50t-44 71.5t-23.5 111.5q0 78 39 157t121 128q106 61 268 61q303 0 414 -250 l-187 -51q-53 152 -245 152q-27 0 -52.5 -4t-63.5 -15.5t-60.5 -41t-22.5 -74.5q0 -92 160 -146l180 -61q51 -18 87 -35.5t89 -55.5t83 -98.5t30 -138.5q0 -59 -23.5 -114.5t-45 -82t-62.5 -71.5q41 -27 66.5 -49.5t56 -84t30.5 -141.5q0 -158 -114.5 -264t-354.5 -106 q-121 0 -210 26.5t-143 78.5t-78.5 89.5t-53.5 96.5zM598 420l186 -68q74 74 74 140q0 115 -176 172l-217 75q-72 -66 -72 -129q0 -122 205 -190z" />
<glyph unicode="&#xa8;" horiz-adv-x="1024" d="M457 1296q0 -51 -35 -79.5t-80 -28.5q-49 0 -80 32.5t-31 75.5t30 77t81 34q45 0 80 -29t35 -82zM793 1296q0 -51 -35 -79.5t-80 -28.5q-49 0 -80 32.5t-31 75.5t30 77t81 34q45 0 80 -29t35 -82z" />
<glyph unicode="&#xa9;" horiz-adv-x="1501" d="M915 567l164 -18q-8 -47 -13 -67.5t-24.5 -57.5t-50.5 -70q-92 -94 -246 -94q-104 0 -177.5 44t-109.5 114.5t-50.5 135t-14.5 128.5q0 184 94.5 303t262.5 119q274 0 329 -297l-161 -16q-12 43 -20.5 64.5t-27 54t-48 48t-70.5 15.5q-90 0 -130 -83t-40 -204 q0 -156 51 -223.5t125 -67.5q29 0 57.5 10.5t60 52t39.5 109.5zM756 1395q293 0 498.5 -211t205.5 -502q0 -295 -208 -503t-500.5 -208t-501.5 208t-209 503q0 293 207 503t508 210zM754 1280q-246 0 -416 -176t-170 -422q0 -248 172 -422t412 -174q238 0 409.5 174 t171.5 422q0 244 -168.5 421t-410.5 177z" />
<glyph unicode="&#xaa;" horiz-adv-x="731" d="M635 1155v-268q0 -51 20 -127h-155q-6 16 -21 86q-29 -29 -47 -49q-55 -49 -158 -49q-100 0 -159.5 54t-59.5 136q0 217 420 211v37q0 86 -121 86q-53 0 -84.5 -17.5t-39 -34t-13.5 -42.5l-143 20q14 74 63 115q80 68 232 67q94 0 152.5 -19.5t81 -59t27.5 -68.5t5 -78z M475 1016v47q-252 0 -252 -117q0 -84 99 -84q61 0 98 32t46 62.5t9 59.5z" />
<glyph unicode="&#xab;" horiz-adv-x="673" d="M586 799l-92 -289l92 -289h-92l-164 289l164 289h92zM330 799l-99 -289l99 -289h-99l-155 289l155 289h99z" />
<glyph unicode="&#xac;" d="M915 377v356h-819v191h1010v-547h-191z" />
<glyph unicode="&#xad;" horiz-adv-x="501" d="M502 614v-186h-502v186h502z" />
<glyph unicode="&#xae;" horiz-adv-x="1007" d="M438 903v-172h-112v453h211q172 0 172 -135q0 -82 -84 -121l84 -197h-119l-72 172h-80zM438 1102v-115h68q86 0 86 64q0 51 -78 51h-76zM82 956q0 178 124 301t298 123t298 -123.5t124 -300.5q0 -174 -124 -297.5t-298 -123.5t-298 123.5t-124 297.5zM170 956 q0 -133 100.5 -233t233.5 -100t233.5 100t100.5 233q0 137 -99.5 236.5t-234.5 99.5q-133 0 -233.5 -100.5t-100.5 -235.5z" />
<glyph unicode="&#xaf;" horiz-adv-x="1024" d="M813 1352v-129h-602v129h602z" />
<glyph unicode="&#xb0;" d="M328 1118.5q0 108.5 77.5 191.5t194.5 83q115 0 194.5 -81t79.5 -194q0 -111 -79.5 -191.5t-194.5 -80.5q-117 0 -194.5 82t-77.5 190.5zM465 1120q0 -55 39 -96t96 -41t97 40t40 97q0 55 -39 95t-96 40q-59 0 -98 -41t-39 -94z" />
<glyph unicode="&#xb1;" d="M1108 784v-190h-412v-424h-190v424h-410v190h410v426h190v-426h412zM1108 102v-190h-1012v190h1012z" />
<glyph unicode="&#xb2;" horiz-adv-x="792" d="M713 686v-139h-650v151l285 176q92 59 144 123q43 51 43 106.5t-39 95.5t-109 40q-139 0 -162 -172l-162 39q23 129 112 200.5t220 71.5q150 0 235 -78.5t85 -197.5q0 -123 -88 -200t-344 -216h430z" />
<glyph unicode="&#xb3;" horiz-adv-x="792" d="M283 901v129h84q16 0 34.5 2t51 11.5t53 35t20.5 62.5q0 109 -137 108q-121 0 -168 -116l-155 24q29 111 121 166t208 55q119 0 209 -58t90 -165q0 -139 -129 -182q33 -12 52.5 -23.5t47 -33t42 -56.5t14.5 -82q0 -106 -90 -174.5t-242 -68.5q-135 0 -225 62t-123 163 l160 37q47 -135 184 -135q80 0 122 35.5t42 80.5q0 14 -5 30.5t-18.5 39t-47.5 38t-83 15.5h-112z" />
<glyph unicode="&#xb4;" horiz-adv-x="1024" d="M737 1487l68 -150l-418 -176l-41 107z" />
<glyph unicode="&#xb5;" horiz-adv-x="1024" d="M66 -350v1360h231v-557q0 -86 11 -136.5t50 -91.5q63 -63 156 -63q96 0 154 69q61 70 61 232v547h229v-1010h-229v131q-20 -39 -36.5 -64.5t-68 -57.5t-116.5 -32q-129 0 -211 134v-461h-231z" />
<glyph unicode="&#xb6;" d="M1155 1366v-115l-149 2v-1587l-115 -2v1587h-113v-1587h-116v1038h-132q-145 0 -218.5 13.5t-137.5 58.5q-104 78 -104 252q0 158 127 270q49 39 118.5 54.5t221.5 15.5h618zM532 817h130v434h-107q-172 0 -221 -43q-33 -29 -48.5 -87t-15.5 -101q0 -129 92 -176 q49 -27 170 -27z" />
<glyph unicode="&#xb7;" horiz-adv-x="505" d="M377 651v-262h-248v262h248z" />
<glyph unicode="&#xb8;" horiz-adv-x="1024" d="M514 0l-27 -92q80 -4 123 -25q90 -45 90 -135q0 -63 -53 -113.5t-139 -50.5q-68 0 -205 60l33 77q88 -47 156 -47q35 0 57 20.5t22 47.5q0 47 -52 68.5t-144 15.5l57 174h82z" />
<glyph unicode="&#xb9;" horiz-adv-x="792" d="M528 1384v-704h215v-133h-616v133h231v489q-117 -96 -235 -143v162q98 37 131 53t90 66q47 41 70 77h114z" />
<glyph unicode="&#xba;" horiz-adv-x="731" d="M662 1065q0 -150 -90.5 -236t-221.5 -86q-145 0 -221 97.5t-76 222.5q0 133 83 225t224 92q139 0 220.5 -91t81.5 -224zM489 1065q0 190 -129 190q-135 0 -135 -194q0 -90 34 -141.5t97 -51.5q133 0 133 197z" />
<glyph unicode="&#xbb;" horiz-adv-x="673" d="M88 797h94l160 -293l-160 -281h-94l94 281zM342 797h94l162 -293l-162 -281h-94l94 281z" />
<glyph unicode="&#xbc;" horiz-adv-x="1875" d="M1532 309v185q0 25 8 170l-240 -355h232zM442 0l844 1366h146l-844 -1366h-146zM1694 836v-517h129v-137h-129v-182h-172v182h-383v115l385 539h170zM526 1384v-704h215v-133h-616v133h231v489q-117 -96 -235 -143v162q98 37 131 53t90 66q47 41 70 77h114z" />
<glyph unicode="&#xbd;" horiz-adv-x="1875" d="M526 1384v-704h215v-133h-616v133h231v489q-117 -96 -235 -143v162q98 37 131 53t90 66q47 41 70 77h114zM442 0l844 1366h148l-846 -1366h-146zM1798 139v-139h-649v152l254 157q217 133 217 248q0 53 -40 93t-107 40q-137 0 -162 -170l-164 39q25 129 114 200.5 t220 71.5q150 0 234.5 -79.5t84.5 -198.5q0 -121 -88 -197.5t-344 -216.5h430z" />
<glyph unicode="&#xbe;" horiz-adv-x="1875" d="M1532 309v187q0 25 8 170l-240 -357h232zM444 0l842 1366h148l-842 -1366h-148zM1694 0h-172v182h-381v115l383 539h170v-517h129v-137h-129v-182zM283 901v129h84q16 0 34.5 2t51 11.5t53 35t20.5 62.5q0 109 -137 108q-121 0 -168 -116l-155 24q29 111 121 166t208 55 q119 0 209 -58t90 -165q0 -139 -129 -182q33 -12 52.5 -23.5t47 -33t42 -56.5t14.5 -82q0 -106 -90 -174.5t-242 -68.5q-135 0 -225 62t-123 163l160 37q47 -135 184 -135q80 0 122 35.5t42 80.5q0 14 -5 30.5t-18.5 39t-47.5 38t-83 15.5h-112z" />
<glyph unicode="&#xbf;" horiz-adv-x="1028" d="M387 776v248h236v-248h-236zM428 633h195v-135q0 -72 -31 -112t-117 -105q-143 -113 -143 -234q0 -94 57 -146.5t143 -52.5q55 0 98.5 20.5t67 46.5t42 73t23.5 72.5t13 72.5l217 -39q-25 -233 -168 -344.5t-317 -111.5q-193 0 -319 113.5t-126 283.5q0 94 43.5 173 t86.5 115.5t124 98.5q61 45 76 58.5t23 31.5q8 23 12 121z" />
<glyph unicode="&#xc0;" horiz-adv-x="1234" d="M762 1366l459 -1366h-263l-110 326h-524l-107 -326h-211l455 1366h301zM385 522h397l-198 611zM434 1786l408 -191l-39 -106l-430 145z" />
<glyph unicode="&#xc1;" horiz-adv-x="1234" d="M762 1366l459 -1366h-263l-110 326h-524l-107 -326h-211l455 1366h301zM385 522h397l-198 611zM897 1786l61 -152l-430 -145l-39 106z" />
<glyph unicode="&#xc2;" horiz-adv-x="1234" d="M762 1366l459 -1366h-263l-110 326h-524l-107 -326h-211l455 1366h301zM385 522h397l-198 611zM614 1776l357 -260l-191 -21l-166 111l-165 -111l-189 21z" />
<glyph unicode="&#xc3;" horiz-adv-x="1234" d="M762 1366l459 -1366h-263l-110 326h-524l-107 -326h-211l455 1366h301zM385 522h397l-198 611zM881 1735l71 -103q-82 -117 -211 -116q-57 0 -155 47q-74 35 -101 34q-53 0 -137 -77l-72 102q96 115 209 115q49 0 140 -37q94 -43 141 -43q60 0 115 78z" />
<glyph unicode="&#xc4;" horiz-adv-x="1234" d="M762 1366l459 -1366h-263l-110 326h-524l-107 -326h-211l455 1366h301zM385 522h397l-198 611zM553 1620q0 -51 -35 -80t-80 -29q-49 0 -79.5 33t-30.5 76t29.5 77t80.5 34q45 0 80 -29t35 -82zM901 1620q0 -51 -35 -80t-80 -29q-49 0 -79.5 33t-30.5 76t29.5 77t80.5 34 q45 0 80 -29t35 -82z" />
<glyph unicode="&#xc5;" horiz-adv-x="1234" d="M762 1366l459 -1366h-263l-110 326h-524l-107 -326h-211l455 1366h301zM385 522h397l-198 611zM791 1636q0 -72 -53.5 -127t-133.5 -55q-78 0 -132 54.5t-54 129.5q0 78 54 132.5t132 54.5q61 0 124 -45.5t63 -143.5zM686 1634q0 86 -78 86q-29 0 -57.5 -17t-28.5 -63 q0 -31 20.5 -56t61.5 -25q35 0 55.5 19t24.5 38z" />
<glyph unicode="&#xc6;" horiz-adv-x="1732" d="M1671 211v-211h-868v385h-408l-194 -385h-234l727 1366h961v-199h-606v-376h481v-195h-481v-385h622zM494 575h309v623z" />
<glyph unicode="&#xc7;" horiz-adv-x="1185" d="M635 -20l-25 -78q229 -8 230 -162q0 -70 -53.5 -121t-151.5 -51q-92 0 -227 61l32 82q119 -51 168 -51q43 0 67.5 20.5t24.5 53.5q0 88 -145 88q-45 0 -61 -2l51 166q-123 14 -217.5 82.5t-146.5 171t-77.5 214t-25.5 230.5q0 137 32.5 260t97 223.5t174.5 159.5t251 59 q213 0 343 -126.5t167 -356.5l-230 -24q-10 47 -18 75.5t-30.5 77.5t-49.5 79t-73 53.5t-105 23.5q-78 0 -136.5 -41t-87 -97.5t-46 -133t-20.5 -126t-3 -100.5q0 -268 87 -386t212 -118q102 0 179 77t91 212l230 -26q-18 -129 -71.5 -224.5t-127.5 -146.5t-150.5 -74.5 t-158.5 -23.5z" />
<glyph unicode="&#xc8;" horiz-adv-x="1099" d="M1036 0h-886v1366h878v-203h-633v-370h508v-199h-508v-383h641v-211zM301 1786l408 -191l-39 -106l-430 145z" />
<glyph unicode="&#xc9;" horiz-adv-x="1099" d="M1036 0h-886v1366h878v-203h-633v-370h508v-199h-508v-383h641v-211zM877 1786l61 -152l-430 -145l-39 106z" />
<glyph unicode="&#xca;" horiz-adv-x="1099" d="M1036 0h-886v1366h878v-203h-633v-370h508v-199h-508v-383h641v-211zM614 1776l357 -260l-191 -21l-166 111l-165 -111l-189 21z" />
<glyph unicode="&#xcb;" horiz-adv-x="1099" d="M1036 0h-886v1366h878v-203h-633v-370h508v-199h-508v-383h641v-211zM563 1620q0 -51 -34.5 -80t-79.5 -29q-49 0 -80 33t-31 76t29.5 77t81.5 34q45 0 79.5 -29t34.5 -82zM911 1620q0 -51 -34.5 -80t-79.5 -29q-49 0 -80 33t-31 76t29.5 77t81.5 34q45 0 79.5 -29 t34.5 -82z" />
<glyph unicode="&#xcc;" horiz-adv-x="546" d="M395 0h-245v1366h245v-1366zM4 1786l408 -191l-39 -106l-430 145z" />
<glyph unicode="&#xcd;" horiz-adv-x="546" d="M395 0h-245v1366h245v-1366zM528 1786l62 -152l-430 -145l-39 106z" />
<glyph unicode="&#xce;" horiz-adv-x="546" d="M395 0h-245v1366h245v-1366zM266 1776l357 -260l-191 -21l-166 111l-166 -111l-188 21z" />
<glyph unicode="&#xcf;" horiz-adv-x="546" d="M395 0h-245v1366h245v-1366zM205 1620q0 -51 -35 -80t-80 -29q-49 0 -79.5 33t-30.5 76t29.5 77t80.5 34q45 0 80 -29t35 -82zM553 1620q0 -51 -35 -80t-80 -29q-49 0 -79.5 33t-30.5 76t29.5 77t80.5 34q45 0 80 -29t35 -82z" />
<glyph unicode="&#xd0;" horiz-adv-x="1341" d="M6 594v199h137v573h504q254 0 422 -170q195 -197 195 -512q0 -342 -228 -545q-57 -51 -172.5 -95t-271.5 -44h-449v594h-137zM395 594v-393h207q170 0 282.5 129t112.5 364q0 197 -99 337t-267 140h-236v-378h338v-199h-338z" />
<glyph unicode="&#xd1;" horiz-adv-x="1331" d="M1182 1366v-1366h-226l-534 872l-76 152v-1024h-196v1366h272l479 -805l12 -23l32 -60l40 -77v965h197zM942 1735l72 -103q-82 -117 -211 -116q-57 0 -156 47q-74 35 -100 34q-53 0 -137 -77l-72 102q96 115 209 115q49 0 139 -37q94 -43 141 -43q60 0 115 78z" />
<glyph unicode="&#xd2;" horiz-adv-x="1316" d="M1239 684q0 -315 -159.5 -509.5t-426.5 -194.5q-125 0 -225 44t-163.5 115.5t-106.5 165.5t-61.5 189.5t-18.5 193.5q0 291 157.5 494.5t428.5 203.5q184 0 318 -100t195.5 -257t61.5 -345zM973 686q0 215 -68 352q-74 150 -246 150q-315 0 -315 -508q0 -61 5 -115.5 t23.5 -129.5t50.5 -128t91 -91t141 -38q86 0 155 45t101 113q62 123 62 350zM352 1786l408 -191l-39 -106l-430 145z" />
<glyph unicode="&#xd3;" horiz-adv-x="1316" d="M1239 684q0 -315 -159.5 -509.5t-426.5 -194.5q-125 0 -225 44t-163.5 115.5t-106.5 165.5t-61.5 189.5t-18.5 193.5q0 291 157.5 494.5t428.5 203.5q184 0 318 -100t195.5 -257t61.5 -345zM973 686q0 215 -68 352q-74 150 -246 150q-315 0 -315 -508q0 -61 5 -115.5 t23.5 -129.5t50.5 -128t91 -91t141 -38q86 0 155 45t101 113q62 123 62 350zM928 1786l61 -152l-430 -145l-39 106z" />
<glyph unicode="&#xd4;" horiz-adv-x="1316" d="M1239 684q0 -315 -159.5 -509.5t-426.5 -194.5q-125 0 -225 44t-163.5 115.5t-106.5 165.5t-61.5 189.5t-18.5 193.5q0 291 157.5 494.5t428.5 203.5q184 0 318 -100t195.5 -257t61.5 -345zM973 686q0 215 -68 352q-74 150 -246 150q-315 0 -315 -508q0 -61 5 -115.5 t23.5 -129.5t50.5 -128t91 -91t141 -38q86 0 155 45t101 113q62 123 62 350zM666 1776l356 -260l-191 -21l-165 111l-166 -111l-189 21z" />
<glyph unicode="&#xd5;" horiz-adv-x="1316" d="M1239 684q0 -315 -159.5 -509.5t-426.5 -194.5q-125 0 -225 44t-163.5 115.5t-106.5 165.5t-61.5 189.5t-18.5 193.5q0 291 157.5 494.5t428.5 203.5q184 0 318 -100t195.5 -257t61.5 -345zM973 686q0 215 -68 352q-74 150 -246 150q-315 0 -315 -508q0 -61 5 -115.5 t23.5 -129.5t50.5 -128t91 -91t141 -38q86 0 155 45t101 113q62 123 62 350zM922 1735l71 -103q-82 -117 -211 -116q-57 0 -155 47q-74 35 -101 34q-53 0 -137 -77l-72 102q96 115 209 115q49 0 140 -37q94 -43 141 -43q60 0 115 78z" />
<glyph unicode="&#xd6;" horiz-adv-x="1316" d="M1239 684q0 -315 -159.5 -509.5t-426.5 -194.5q-125 0 -225 44t-163.5 115.5t-106.5 165.5t-61.5 189.5t-18.5 193.5q0 291 157.5 494.5t428.5 203.5q184 0 318 -100t195.5 -257t61.5 -345zM973 686q0 215 -68 352q-74 150 -246 150q-315 0 -315 -508q0 -61 5 -115.5 t23.5 -129.5t50.5 -128t91 -91t141 -38q86 0 155 45t101 113q62 123 62 350zM604 1620q0 -51 -34.5 -80t-80.5 -29q-49 0 -79.5 33t-30.5 76t29.5 77t80.5 34q45 0 80 -29t35 -82zM952 1620q0 -51 -34.5 -80t-79.5 -29q-49 0 -80 33t-31 76t29.5 77t81.5 34q45 0 79.5 -29 t34.5 -82z" />
<glyph unicode="&#xd7;" d="M903 1126l133 -137l-299 -299l299 -301l-133 -135l-301 301l-301 -301l-135 135l301 301l-301 301l135 135l301 -301z" />
<glyph unicode="&#xd8;" horiz-adv-x="1316" d="M338 76l-92 -131h-189l166 241q-145 229 -145 500q0 295 158.5 497.5t427.5 202.5q172 0 315 -96l88 131h193l-166 -245q145 -199 145 -496q0 -301 -155.5 -500.5t-430.5 -199.5q-186 0 -315 96zM936 958l-467 -708q76 -72 188 -72q84 0 152 45t102 113q61 119 62 342 q0 147 -37 280zM379 410l471 706q-76 72 -184 72q-178 0 -250 -141q-72 -143 -72 -363q0 -161 35 -274z" />
<glyph unicode="&#xd9;" horiz-adv-x="1218" d="M1085 1366v-879q0 -76 -4 -118.5t-19 -108t-58 -117t-111 -94.5q-115 -70 -283 -69q-254 0 -366 131q-70 84 -89.5 164.5t-19.5 193.5v897h252v-879q0 -160 59 -221q68 -72 193 -71q61 0 118.5 22.5t84.5 61.5q47 66 47 208v879h196zM301 1786l408 -191l-39 -106 l-430 145z" />
<glyph unicode="&#xda;" horiz-adv-x="1218" d="M1085 1366v-879q0 -76 -4 -118.5t-19 -108t-58 -117t-111 -94.5q-115 -70 -283 -69q-254 0 -366 131q-70 84 -89.5 164.5t-19.5 193.5v897h252v-879q0 -160 59 -221q68 -72 193 -71q61 0 118.5 22.5t84.5 61.5q47 66 47 208v879h196zM958 1786l62 -152l-430 -145l-39 106 z" />
<glyph unicode="&#xdb;" horiz-adv-x="1218" d="M1085 1366v-879q0 -76 -4 -118.5t-19 -108t-58 -117t-111 -94.5q-115 -70 -283 -69q-254 0 -366 131q-70 84 -89.5 164.5t-19.5 193.5v897h252v-879q0 -160 59 -221q68 -72 193 -71q61 0 118.5 22.5t84.5 61.5q47 66 47 208v879h196zM614 1776l357 -260l-191 -21 l-166 111l-165 -111l-189 21z" />
<glyph unicode="&#xdc;" horiz-adv-x="1218" d="M1085 1366v-879q0 -76 -4 -118.5t-19 -108t-58 -117t-111 -94.5q-115 -70 -283 -69q-254 0 -366 131q-70 84 -89.5 164.5t-19.5 193.5v897h252v-879q0 -160 59 -221q68 -72 193 -71q61 0 118.5 22.5t84.5 61.5q47 66 47 208v879h196zM553 1620q0 -51 -35 -80t-80 -29 q-49 0 -79.5 33t-30.5 76t29.5 77t80.5 34q45 0 80 -29t35 -82zM901 1620q0 -51 -35 -80t-80 -29q-49 0 -79.5 33t-30.5 76t29.5 77t80.5 34q45 0 80 -29t35 -82z" />
<glyph unicode="&#xdd;" horiz-adv-x="1114" d="M698 0h-260v575l-465 791h297l324 -563l309 563h238l-443 -791v-575zM897 1786l61 -152l-430 -145l-39 106z" />
<glyph unicode="&#xde;" horiz-adv-x="1241" d="M395 0h-245v1366h245v-192h314q176 0 286 -68q184 -115 185 -336q0 -195 -129 -307.5t-314 -112.5h-342v-350zM395 971v-410h293q123 0 178.5 60.5t55.5 144.5q0 68 -37 121q-51 84 -219 84h-271z" />
<glyph unicode="&#xdf;" horiz-adv-x="1140" d="M143 -94v829h-110v178h110q2 86 7.5 138.5t32 134.5t75.5 137q127 141 344 141q164 0 276.5 -89t112.5 -228q0 -88 -43 -154.5t-106 -99.5q-76 -37 -203 -62q-27 -18 -27 -36q0 -25 103 -62q166 -61 239 -115q143 -106 144 -278q0 -158 -116 -271.5t-308 -113.5 q-80 0 -207 37l49 155q74 -18 133 -18q233 0 234 152q0 39 -18.5 70.5t-53.5 57t-62.5 40t-68.5 32.5q-55 25 -88 42.5t-74 47t-59.5 68.5t-18.5 88q0 96 97 213q86 33 137 57q86 41 86 142q0 68 -45 116t-127 48q-84 0 -150.5 -61.5t-66.5 -190.5v-1145h-228z" />
<glyph unicode="&#xe0;" horiz-adv-x="1105" d="M971 659v-454q0 -100 30 -205h-217q-29 86 -36 205q-16 -39 -34 -67.5t-57 -70.5t-103.5 -64.5t-147.5 -22.5q-156 0 -245 90t-89 221q0 358 676 346v76q0 156 -216 155q-70 0 -118.5 -16t-71.5 -46t-31 -48.5t-14 -44.5l-195 28q49 289 457 289q221 0 307 -74 q72 -61 88.5 -121.5t16.5 -175.5zM748 422v92q-156 0 -277 -33q-29 -10 -46 -17t-51 -27.5t-51.5 -54.5t-17.5 -79q0 -18 6 -39.5t21.5 -49.5t54.5 -45t96 -17q78 0 134.5 29.5t82 76.5t37 87t11.5 77zM322 1487l393 -219l-43 -107l-416 176z" />
<glyph unicode="&#xe1;" horiz-adv-x="1105" d="M971 659v-454q0 -100 30 -205h-217q-29 86 -36 205q-16 -39 -34 -67.5t-57 -70.5t-103.5 -64.5t-147.5 -22.5q-156 0 -245 90t-89 221q0 358 676 346v76q0 156 -216 155q-70 0 -118.5 -16t-71.5 -46t-31 -48.5t-14 -44.5l-195 28q49 289 457 289q221 0 307 -74 q72 -61 88.5 -121.5t16.5 -175.5zM748 422v92q-156 0 -277 -33q-29 -10 -46 -17t-51 -27.5t-51.5 -54.5t-17.5 -79q0 -18 6 -39.5t21.5 -49.5t54.5 -45t96 -17q78 0 134.5 29.5t82 76.5t37 87t11.5 77zM778 1487l68 -150l-418 -176l-41 107z" />
<glyph unicode="&#xe2;" horiz-adv-x="1105" d="M971 659v-454q0 -100 30 -205h-217q-29 86 -36 205q-16 -39 -34 -67.5t-57 -70.5t-103.5 -64.5t-147.5 -22.5q-156 0 -245 90t-89 221q0 358 676 346v76q0 156 -216 155q-70 0 -118.5 -16t-71.5 -46t-31 -48.5t-14 -44.5l-195 28q49 289 457 289q221 0 307 -74 q72 -61 88.5 -121.5t16.5 -175.5zM748 422v92q-156 0 -277 -33q-29 -10 -46 -17t-51 -27.5t-51.5 -54.5t-17.5 -79q0 -18 6 -39.5t21.5 -49.5t54.5 -45t96 -17q78 0 134.5 29.5t82 76.5t37 87t11.5 77zM553 1477l348 -289l-180 -21l-168 131l-168 -131l-180 21z" />
<glyph unicode="&#xe3;" horiz-adv-x="1105" d="M971 659v-454q0 -100 30 -205h-217q-29 86 -36 205q-16 -39 -34 -67.5t-57 -70.5t-103.5 -64.5t-147.5 -22.5q-156 0 -245 90t-89 221q0 358 676 346v76q0 156 -216 155q-70 0 -118.5 -16t-71.5 -46t-31 -48.5t-14 -44.5l-195 28q49 289 457 289q221 0 307 -74 q72 -61 88.5 -121.5t16.5 -175.5zM748 422v92q-156 0 -277 -33q-29 -10 -46 -17t-51 -27.5t-51.5 -54.5t-17.5 -79q0 -18 6 -39.5t21.5 -49.5t54.5 -45t96 -17q78 0 134.5 29.5t82 76.5t37 87t11.5 77zM809 1419l70 -102q-33 -59 -95.5 -88t-109.5 -29q-53 0 -180 64 q-41 20 -72 20q-47 0 -125 -78l-70 103q96 115 201 114q49 0 135 -39q92 -43 135 -43q60 0 111 78z" />
<glyph unicode="&#xe4;" horiz-adv-x="1105" d="M971 659v-454q0 -100 30 -205h-217q-29 86 -36 205q-16 -39 -34 -67.5t-57 -70.5t-103.5 -64.5t-147.5 -22.5q-156 0 -245 90t-89 221q0 358 676 346v76q0 156 -216 155q-70 0 -118.5 -16t-71.5 -46t-31 -48.5t-14 -44.5l-195 28q49 289 457 289q221 0 307 -74 q72 -61 88.5 -121.5t16.5 -175.5zM748 422v92q-156 0 -277 -33q-29 -10 -46 -17t-51 -27.5t-51.5 -54.5t-17.5 -79q0 -18 6 -39.5t21.5 -49.5t54.5 -45t96 -17q78 0 134.5 29.5t82 76.5t37 87t11.5 77zM498 1296q0 -51 -35 -79.5t-80 -28.5q-49 0 -80 32.5t-31 75.5t30 77 t81 34q45 0 80 -29t35 -82zM834 1296q0 -51 -35 -79.5t-80 -28.5q-49 0 -80 32.5t-31 75.5t30 77t81 34q45 0 80 -29t35 -82z" />
<glyph unicode="&#xe5;" horiz-adv-x="1105" d="M971 659v-454q0 -100 30 -205h-217q-29 86 -36 205q-16 -39 -34 -67.5t-57 -70.5t-103.5 -64.5t-147.5 -22.5q-156 0 -245 90t-89 221q0 358 676 346v76q0 156 -216 155q-70 0 -118.5 -16t-71.5 -46t-31 -48.5t-14 -44.5l-195 28q49 289 457 289q221 0 307 -74 q72 -61 88.5 -121.5t16.5 -175.5zM748 422v92q-156 0 -277 -33q-29 -10 -46 -17t-51 -27.5t-51.5 -54.5t-17.5 -79q0 -18 6 -39.5t21.5 -49.5t54.5 -45t96 -17q78 0 134.5 29.5t82 76.5t37 87t11.5 77zM760 1315q0 -72 -53.5 -127t-133.5 -55q-78 0 -132 54t-54 130 q0 78 54.5 133t131.5 55q61 0 124 -46t63 -144zM655 1315q0 16 -4 32.5t-23.5 35t-49.5 18.5q-16 0 -34 -5t-35 -24.5t-17 -52.5q0 -31 20 -56.5t61 -25.5q35 0 55.5 20.5t23.5 35t3 22.5z" />
<glyph unicode="&#xe6;" horiz-adv-x="1757" d="M1683 471h-710q0 -111 35 -182q25 -53 80 -92t137 -39q168 0 229 159l211 -34q-43 -145 -172 -224t-285 -79q-274 0 -395 210q-66 -96 -149.5 -153t-223.5 -57q-106 0 -183 31.5t-114 82.5t-53 99.5t-16 97.5q0 104 58 176t155.5 105.5t187.5 46t191 12.5q20 0 90 -4 q-2 96 -11.5 135t-48.5 63q-59 37 -151 37q-98 0 -158 -41q-47 -35 -65 -98l-203 25q8 31 15 51t24.5 53t50.5 62.5t78 54.5q115 61 286 61q199 0 328 -115q43 35 78 56.5t99.5 40t138.5 18.5q281 0 397 -211q35 -63 51 -134t18 -108.5t0 -105.5zM981 625h467 q-6 109 -62 172q-63 72 -172 71q-202 1 -233 -243zM322 299q0 -76 51 -112.5t119 -36.5q139 0 217 110q45 66 45 244q-66 -2 -102 -5t-95 -10.5t-94 -20.5t-72 -34.5t-53 -55.5t-16 -79z" />
<glyph unicode="&#xe7;" horiz-adv-x="954" d="M514 -20l-20 -72q80 -4 122 -25q90 -45 91 -135q0 -63 -53.5 -113.5t-139.5 -50.5q-68 0 -205 60l33 77q88 -47 154 -47q35 0 58.5 20.5t23.5 47.5q0 47 -52.5 68.5t-144.5 15.5l51 158q-102 16 -177 73.5t-112 137t-54 156.5t-17 153q0 221 118.5 373.5t331.5 152.5 q94 0 167 -30.5t111 -67.5t66.5 -94.5t35.5 -87t13 -68.5l-196 -27q-12 96 -61.5 142.5t-122.5 46.5q-137 0 -193 -158q-29 -86 -29 -190q0 -20 1 -39t6.5 -62t18.5 -75.5t34.5 -67.5t59.5 -54.5t87 -19.5q152 0 199 193l196 -21q-10 -45 -19 -77.5t-40 -92t-69.5 -97.5 t-110.5 -69.5t-162 -33.5z" />
<glyph unicode="&#xe8;" horiz-adv-x="1073" d="M778 322l205 -29q-51 -160 -170 -236.5t-276.5 -76.5t-267 79.5t-153.5 193.5t-44 249q0 229 129 378.5t346 149.5q231 0 345 -157.5t109 -395.5h-692q-4 -147 53 -227q61 -92 189 -92q57 0 99 16t67.5 47t37 50.5t23.5 50.5zM309 625h455q-4 94 -49 157q-68 88 -176 88 q-117 0 -183 -98q-37 -53 -47 -147zM305 1487l393 -219l-43 -107l-415 176z" />
<glyph unicode="&#xe9;" horiz-adv-x="1073" d="M778 322l205 -29q-51 -160 -170 -236.5t-276.5 -76.5t-267 79.5t-153.5 193.5t-44 249q0 229 129 378.5t346 149.5q231 0 345 -157.5t109 -395.5h-692q-4 -147 53 -227q61 -92 189 -92q57 0 99 16t67.5 47t37 50.5t23.5 50.5zM309 625h455q-4 94 -49 157q-68 88 -176 88 q-117 0 -183 -98q-37 -53 -47 -147zM762 1487l67 -150l-417 -176l-41 107z" />
<glyph unicode="&#xea;" horiz-adv-x="1073" d="M778 322l205 -29q-51 -160 -170 -236.5t-276.5 -76.5t-267 79.5t-153.5 193.5t-44 249q0 229 129 378.5t346 149.5q231 0 345 -157.5t109 -395.5h-692q-4 -147 53 -227q61 -92 189 -92q57 0 99 16t67.5 47t37 50.5t23.5 50.5zM309 625h455q-4 94 -49 157q-68 88 -176 88 q-117 0 -183 -98q-37 -53 -47 -147zM537 1477l348 -289l-180 -21l-168 131l-168 -131l-181 21z" />
<glyph unicode="&#xeb;" horiz-adv-x="1073" d="M778 322l205 -29q-51 -160 -170 -236.5t-276.5 -76.5t-267 79.5t-153.5 193.5t-44 249q0 229 129 378.5t346 149.5q231 0 345 -157.5t109 -395.5h-692q-4 -147 53 -227q61 -92 189 -92q57 0 99 16t67.5 47t37 50.5t23.5 50.5zM309 625h455q-4 94 -49 157q-68 88 -176 88 q-117 0 -183 -98q-37 -53 -47 -147zM481 1296q0 -51 -34.5 -79.5t-79.5 -28.5q-49 0 -80 32.5t-31 75.5t29.5 77t81.5 34q45 0 79.5 -29t34.5 -82zM817 1296q0 -51 -34.5 -79.5t-80.5 -28.5q-49 0 -79.5 32.5t-30.5 75.5t29.5 77t80.5 34q45 0 80 -29t35 -82z" />
<glyph unicode="&#xec;" horiz-adv-x="501" d="M365 0h-228v1010h228v-1010zM20 1487l394 -219l-43 -107l-416 176z" />
<glyph unicode="&#xed;" horiz-adv-x="501" d="M365 0h-228v1010h228v-1010zM477 1487l68 -150l-418 -176l-41 107z" />
<glyph unicode="&#xee;" horiz-adv-x="501" d="M365 0h-228v1010h228v-1010zM252 1477l348 -289l-180 -21l-168 131l-168 -131l-180 21z" />
<glyph unicode="&#xef;" horiz-adv-x="501" d="M365 0h-228v1010h228v-1010zM197 1296q0 -51 -35 -79.5t-80 -28.5q-49 0 -80 32.5t-31 75.5t30 77t81 34q45 0 80 -29t35 -82zM532 1296q0 -51 -34.5 -79.5t-79.5 -28.5q-49 0 -80 32.5t-31 75.5t30 77t81 34q45 0 79.5 -29t34.5 -82z" />
<glyph unicode="&#xf0;" horiz-adv-x="1083" d="M766 494q0 139 -55.5 234t-165.5 95q-82 0 -135 -43q-49 -41 -76 -120.5t-27 -153.5q0 -147 60 -248q53 -92 170 -92q74 0 124 37t70.5 96t27.5 104.5t7 90.5zM991 1352l-239 -107q119 -141 189.5 -330.5t70.5 -388.5q0 -260 -138.5 -402t-336.5 -142q-129 0 -225.5 54 t-145.5 138t-71.5 167t-22.5 161q0 203 119.5 356.5t322.5 153.5q68 0 104.5 -13.5t88.5 -50.5q-45 117 -132 217l-299 -135l-67 131l258 115q-29 29 -100 86l163 72q53 -27 113 -78l283 127z" />
<glyph unicode="&#xf1;" horiz-adv-x="1107" d="M137 0v1010h207v-234q23 47 40 78t54 78t91.5 72.5t119.5 25.5q68 0 121 -18.5t86 -43t56.5 -68.5t34.5 -74.5t17.5 -85t6.5 -75.5v-67v-598h-228v594q0 238 -155 237q-23 0 -43.5 -3t-56 -23.5t-60.5 -55t-44 -106.5t-19 -170v-473h-228zM811 1419l70 -102 q-33 -59 -95.5 -88t-109.5 -29q-53 0 -180 64q-41 20 -72 20q-47 0 -125 -78l-70 103q96 115 201 114q49 0 135 -39q92 -43 135 -43q60 0 111 78z" />
<glyph unicode="&#xf2;" horiz-adv-x="1083" d="M1012 508q0 -246 -138.5 -387t-341.5 -141q-98 0 -178 32.5t-131 87t-86 125t-50 142t-15 143.5q0 217 127 368.5t348 151.5q219 0 342 -151.5t123 -370.5zM770 510q0 147 -53 240.5t-172 93.5q-125 0 -178.5 -98.5t-53.5 -239.5q0 -31 1 -57.5t13.5 -83t34 -96.5 t68.5 -71.5t111 -31.5q74 0 124 37t70.5 98t27.5 109.5t7 99.5zM311 1487l394 -219l-43 -107l-416 176z" />
<glyph unicode="&#xf3;" horiz-adv-x="1083" d="M1012 508q0 -246 -138.5 -387t-341.5 -141q-98 0 -178 32.5t-131 87t-86 125t-50 142t-15 143.5q0 217 127 368.5t348 151.5q219 0 342 -151.5t123 -370.5zM770 510q0 147 -53 240.5t-172 93.5q-125 0 -178.5 -98.5t-53.5 -239.5q0 -31 1 -57.5t13.5 -83t34 -96.5 t68.5 -71.5t111 -31.5q74 0 124 37t70.5 98t27.5 109.5t7 99.5zM768 1487l68 -150l-418 -176l-41 107z" />
<glyph unicode="&#xf4;" horiz-adv-x="1083" d="M1012 508q0 -246 -138.5 -387t-341.5 -141q-98 0 -178 32.5t-131 87t-86 125t-50 142t-15 143.5q0 217 127 368.5t348 151.5q219 0 342 -151.5t123 -370.5zM770 510q0 147 -53 240.5t-172 93.5q-125 0 -178.5 -98.5t-53.5 -239.5q0 -31 1 -57.5t13.5 -83t34 -96.5 t68.5 -71.5t111 -31.5q74 0 124 37t70.5 98t27.5 109.5t7 99.5zM543 1477l348 -289l-180 -21l-168 131l-168 -131l-180 21z" />
<glyph unicode="&#xf5;" horiz-adv-x="1083" d="M1012 508q0 -246 -138.5 -387t-341.5 -141q-98 0 -178 32.5t-131 87t-86 125t-50 142t-15 143.5q0 217 127 368.5t348 151.5q219 0 342 -151.5t123 -370.5zM770 510q0 147 -53 240.5t-172 93.5q-125 0 -178.5 -98.5t-53.5 -239.5q0 -31 1 -57.5t13.5 -83t34 -96.5 t68.5 -71.5t111 -31.5q74 0 124 37t70.5 98t27.5 109.5t7 99.5zM799 1419l69 -102q-33 -59 -95 -88t-109 -29q-53 0 -181 64q-41 20 -71 20q-47 0 -125 -78l-70 103q96 115 201 114q49 0 135 -39q92 -43 135 -43q60 0 111 78z" />
<glyph unicode="&#xf6;" horiz-adv-x="1083" d="M1012 508q0 -246 -138.5 -387t-341.5 -141q-98 0 -178 32.5t-131 87t-86 125t-50 142t-15 143.5q0 217 127 368.5t348 151.5q219 0 342 -151.5t123 -370.5zM770 510q0 147 -53 240.5t-172 93.5q-125 0 -178.5 -98.5t-53.5 -239.5q0 -31 1 -57.5t13.5 -83t34 -96.5 t68.5 -71.5t111 -31.5q74 0 124 37t70.5 98t27.5 109.5t7 99.5zM487 1296q0 -51 -34.5 -79.5t-79.5 -28.5q-49 0 -80 32.5t-31 75.5t30 77t81 34q45 0 79.5 -29t34.5 -82zM823 1296q0 -51 -34.5 -79.5t-79.5 -28.5q-49 0 -80 32.5t-31 75.5t29.5 77t81.5 34q45 0 79.5 -29 t34.5 -82z" />
<glyph unicode="&#xf7;" d="M600 465q51 0 87 -36t36 -87t-36 -87t-87 -36t-87 36t-36 87t36 87t87 36zM600 1159q51 0 87 -36t36 -87t-36 -87t-87 -36t-87 36t-36 87t36 87t87 36zM1108 784v-190h-1012v190h1012z" />
<glyph unicode="&#xf8;" horiz-adv-x="1083" d="M293 43l-80 -109h-141l133 187q-133 150 -133 387q0 217 126 369.5t353 152.5q129 0 246 -69l71 98h144l-129 -174q129 -156 129 -375q0 -254 -139.5 -392t-346.5 -138q-127 0 -233 63zM743 694l-327 -487q57 -41 125 -41q229 0 229 350q0 90 -27 178zM344 309l332 490 q-51 45 -139 45q-100 0 -162 -86t-62 -252q0 -101 31 -197z" />
<glyph unicode="&#xf9;" horiz-adv-x="1103" d="M967 1010v-1010h-213v217q-37 -106 -107 -164q-90 -74 -211 -73q-170 0 -248 122q-51 82 -51 201v707h234v-641q0 -195 141 -195q57 0 115.5 40t83.5 101q29 76 28 209v486h228zM238 1487l393 -219l-43 -107l-416 176z" />
<glyph unicode="&#xfa;" horiz-adv-x="1103" d="M967 1010v-1010h-213v217q-37 -106 -107 -164q-90 -74 -211 -73q-170 0 -248 122q-51 82 -51 201v707h234v-641q0 -195 141 -195q57 0 115.5 40t83.5 101q29 76 28 209v486h228zM778 1487l68 -150l-418 -176l-41 107z" />
<glyph unicode="&#xfb;" horiz-adv-x="1103" d="M967 1010v-1010h-213v217q-37 -106 -107 -164q-90 -74 -211 -73q-170 0 -248 122q-51 82 -51 201v707h234v-641q0 -195 141 -195q57 0 115.5 40t83.5 101q29 76 28 209v486h228zM553 1477l348 -289l-180 -21l-168 131l-168 -131l-180 21z" />
<glyph unicode="&#xfc;" horiz-adv-x="1103" d="M967 1010v-1010h-213v217q-37 -106 -107 -164q-90 -74 -211 -73q-170 0 -248 122q-51 82 -51 201v707h234v-641q0 -195 141 -195q57 0 115.5 40t83.5 101q29 76 28 209v486h228zM498 1296q0 -51 -35 -79.5t-80 -28.5q-49 0 -80 32.5t-31 75.5t30 77t81 34q45 0 80 -29 t35 -82zM834 1296q0 -51 -35 -79.5t-80 -28.5q-49 0 -80 32.5t-31 75.5t30 77t81 34q45 0 80 -29t35 -82z" />
<glyph unicode="&#xfd;" horiz-adv-x="905" d="M891 1010l-393 -1151q-45 -133 -116 -178.5t-159 -45.5q-35 0 -131 9v180q94 -4 144.5 0t80.5 29q20 18 42 71t22 74q0 12 -21 63l-346 949h238l246 -668l211 668h182zM678 1487l67 -150l-417 -176l-41 107z" />
<glyph unicode="&#xfe;" horiz-adv-x="1097" d="M365 -342h-228v1708h228v-512q94 176 294 176q102 0 178 -52t115 -135t56.5 -166t17.5 -165q0 -250 -119 -408q-94 -125 -264 -124q-184 0 -278 161v-483zM365 559v-145q0 -113 63.5 -183.5t146.5 -70.5q68 0 113 35.5t64.5 95t25.5 107.5t6 99.5t-7 102.5t-26.5 110.5 t-62.5 96.5t-106 37q-88 0 -152.5 -77t-64.5 -208z" />
<glyph unicode="&#xff;" horiz-adv-x="905" d="M891 1010l-393 -1151q-45 -133 -116 -178.5t-159 -45.5q-35 0 -131 9v180q94 -4 144.5 0t80.5 29q20 18 42 71t22 74q0 12 -21 63l-346 949h238l246 -668l211 668h182zM397 1296q0 -51 -34.5 -79.5t-79.5 -28.5q-49 0 -80 32.5t-31 75.5t29.5 77t81.5 34q45 0 79.5 -29 t34.5 -82zM733 1296q0 -51 -34.5 -79.5t-80.5 -28.5q-49 0 -79.5 32.5t-30.5 75.5t29.5 77t80.5 34q45 0 80 -29t35 -82z" />
<glyph unicode="&#x152;" horiz-adv-x="1925" d="M952 1366h912v-199h-666v-374h528v-195h-528v-387h666v-211h-912v68q-133 -88 -301 -88q-266 0 -419.5 204.5t-153.5 505.5t149.5 500t411.5 199q170 0 313 -82v59zM952 438v482q-4 115 -69 180q-88 90 -213 90q-141 0 -234 -113q-92 -111 -92 -379q0 -512 315 -512 q94 0 175 47q41 23 65.5 48.5t34.5 56.5t13 48t5 52z" />
<glyph unicode="&#x153;" horiz-adv-x="1728" d="M1657 479h-690q0 -166 68.5 -239.5t174.5 -73.5q170 0 224 156l208 -33q-37 -123 -157 -223q-113 -86 -285 -86q-102 0 -179 30.5t-102.5 56t-54.5 64.5q-37 -43 -65.5 -68.5t-100 -54t-163.5 -28.5q-215 0 -338 147q-125 152 -125 379q0 217 122.5 370.5t346.5 153.5 q96 0 168.5 -30.5t97 -56t57.5 -66.5q33 43 60.5 68.5t103.5 55t176 29.5q254 0 375 -199q78 -121 78 -352zM969 621h454q-4 125 -71.5 182t-153.5 57q-121 0 -184 -92q-35 -49 -45 -147zM760 520q0 150 -45 223q-25 43 -73 72t-107 29q-74 0 -123.5 -39t-69.5 -101.5 t-27.5 -109.5t-7.5 -96q0 -47 7.5 -93.5t26.5 -105.5t68.5 -96t120.5 -37q55 0 96.5 20.5t65 58.5t38.5 73.5t21.5 84t7.5 69.5t1 48z" />
<glyph unicode="&#x178;" horiz-adv-x="1114" d="M698 0h-260v575l-465 791h297l324 -563l309 563h238l-443 -791v-575zM512 1620q0 -51 -35 -80t-80 -29q-49 0 -79.5 33t-30.5 76t29.5 77t80.5 34q45 0 80 -29t35 -82zM860 1620q0 -51 -34.5 -80t-80.5 -29q-49 0 -79.5 33t-30.5 76t29.5 77t80.5 34q45 0 80 -29t35 -82z " />
<glyph unicode="&#x2c6;" horiz-adv-x="1024" d="M512 1477l348 -289l-180 -21l-168 131l-168 -131l-180 21z" />
<glyph unicode="&#x2dc;" horiz-adv-x="1024" d="M768 1419l70 -102q-33 -59 -95.5 -88t-109.5 -29q-53 0 -180 64q-41 20 -72 20q-47 0 -125 -78l-70 103q96 115 201 114q49 0 135 -39q92 -43 135 -43q60 0 111 78z" />
<glyph unicode="&#x2000;" horiz-adv-x="911" />
<glyph unicode="&#x2001;" horiz-adv-x="1824" />
<glyph unicode="&#x2002;" horiz-adv-x="911" />
<glyph unicode="&#x2003;" horiz-adv-x="1824" />
<glyph unicode="&#x2004;" horiz-adv-x="608" />
<glyph unicode="&#x2005;" horiz-adv-x="454" />
<glyph unicode="&#x2006;" horiz-adv-x="303" />
<glyph unicode="&#x2007;" horiz-adv-x="303" />
<glyph unicode="&#x2008;" horiz-adv-x="227" />
<glyph unicode="&#x2009;" horiz-adv-x="364" />
<glyph unicode="&#x200a;" horiz-adv-x="100" />
<glyph unicode="&#x2010;" horiz-adv-x="501" d="M502 614v-186h-502v186h502z" />
<glyph unicode="&#x2011;" horiz-adv-x="501" d="M502 614v-186h-502v186h502z" />
<glyph unicode="&#x2012;" horiz-adv-x="501" d="M502 614v-186h-502v186h502z" />
<glyph unicode="&#x2013;" horiz-adv-x="1024" d="M928 614v-186h-830v186h830z" />
<glyph unicode="&#x2014;" horiz-adv-x="2048" d="M2048 614v-186h-2048v186h2048z" />
<glyph unicode="&#x2018;" horiz-adv-x="485" d="M129 872v226l154 268h73l-110 -268h110v-226h-227z" />
<glyph unicode="&#x2019;" horiz-adv-x="485" d="M356 1366v-225l-153 -269h-74l111 269h-111v225h227z" />
<glyph unicode="&#x201a;" horiz-adv-x="485" d="M356 225v-225l-153 -268h-74l111 268h-111v225h227z" />
<glyph unicode="&#x201c;" horiz-adv-x="768" d="M129 870v226l150 270h86l-115 -270h96v-226h-217zM418 870v226l149 270h72l-107 -270h107v-226h-221z" />
<glyph unicode="&#x201d;" horiz-adv-x="768" d="M639 1366v-227l-150 -269h-83l114 269h-96v227h215zM350 1366v-227l-149 -269h-72l107 269h-107v227h221z" />
<glyph unicode="&#x201e;" horiz-adv-x="768" d="M639 227v-227l-150 -268h-83l114 268h-96v227h215zM350 227v-227l-149 -268h-72l107 268h-107v227h221z" />
<glyph unicode="&#x2022;" d="M377 684q0 -94 65.5 -161.5t159.5 -67.5t159.5 67.5t65.5 161.5t-64.5 160.5t-160.5 66.5t-160.5 -66.5t-64.5 -160.5z" />
<glyph unicode="&#x2026;" horiz-adv-x="2048" d="M465 262v-262h-248v262h248zM1149 262v-262h-248v262h248zM1833 262v-262h-248v262h248z" />
<glyph unicode="&#x202f;" horiz-adv-x="364" />
<glyph unicode="&#x2039;" horiz-adv-x="417" d="M330 817l-94 -293l94 -280h-94l-160 280l160 293h94z" />
<glyph unicode="&#x203a;" horiz-adv-x="417" d="M88 817h94l160 -293l-160 -280h-94l94 280z" />
<glyph unicode="&#x205f;" horiz-adv-x="454" />
<glyph unicode="&#x20ac;" d="M813 645l-25 -143h-346q29 -156 99.5 -243t165.5 -87q100 0 168.5 60.5t93.5 156.5l211 -27q-25 -123 -109 -225q-127 -158 -377 -157q-221 0 -362 170q-111 131 -142 352h-176l25 143h139v41q0 51 2 76h-166l25 143h160q45 225 180 353t334 128q186 0 304 -105t157 -280 l-218 -24q-33 104 -89 165.5t-169 61.5q-90 0 -156.5 -78.5t-95.5 -220.5h408l-25 -143h-401q-2 -23 -2 -72v-45h387z" />
<glyph unicode="&#x2122;" horiz-adv-x="1591" d="M401 588h-180v645h-217v133h617v-133h-220v-645zM1511 588h-172v610l-206 -610h-95l-209 610v-610h-141v778h250l162 -467l160 467h251v-778z" />
<glyph unicode="&#xe000;" horiz-adv-x="1010" d="M0 1010h1010v-1010h-1010v1010z" />
<glyph unicode="&#xfb01;" horiz-adv-x="1105" d="M969 1366v-240h-236v240h236zM969 1010v-1010h-236v1010h236zM408 831v-831h-236v831h-149v179h149q4 188 66 266q84 111 251 110q76 0 140 -10v-180h-54q-102 -2 -134.5 -34t-32.5 -113v-39h221v-179h-221z" />
<glyph unicode="&#xfb02;" horiz-adv-x="1105" d="M971 1366v-1366h-236v1366h236zM408 831v-831h-236v831h-149v179h149q4 188 66 266q84 111 251 110q76 0 140 -10v-180h-54q-102 -2 -134.5 -34t-32.5 -113v-39h221v-179h-221z" />
<glyph unicode="&#xfb03;" horiz-adv-x="1796" d="M1659 0h-228v1012h228v-1012zM1659 1128h-228v238h228v-238zM1038 0h-219v831h-149v179h149q0 80 3 123t33 106.5t87 101.5q73 47 250 47q33 0 69 -2v-178q-27 2 -59 2q-61 0 -95 -9t-48.5 -40t-17.5 -58.5t-3 -92.5h223v-179h-223v-831zM391 0h-219v831h-149v179h149 q0 80 3 123t33 106.5t87 101.5q73 47 250 47q33 0 69 -2v-178q-27 2 -59 2q-61 0 -95 -9t-48.5 -40t-17.5 -58.5t-3 -92.5h223v-179h-223v-831z" />
<glyph unicode="&#xfb04;" horiz-adv-x="1796" d="M1659 0h-228v1366h228v-1366zM1038 0h-219v831h-149v179h149q0 80 3 123t33 106.5t87 101.5q73 47 250 47q33 0 69 -2v-178q-27 2 -59 2q-61 0 -95 -9t-48.5 -40t-17.5 -58.5t-3 -92.5h223v-179h-223v-831zM391 0h-219v831h-149v179h149q0 80 3 123t33 106.5t87 101.5 q73 47 250 47q33 0 69 -2v-178q-27 2 -59 2q-61 0 -95 -9t-48.5 -40t-17.5 -58.5t-3 -92.5h223v-179h-223v-831z" />
</font>
</defs>
</svg>
