<?xml version="1.0" standalone="no"?>
<!DOCTYPE svg PUBLIC "-//W3C//DTD SVG 1.1//EN" "http://www.w3.org/Graphics/SVG/1.1/DTD/svg11.dtd" >
<svg xmlns="http://www.w3.org/2000/svg">
<metadata>
This is a custom SVG webfont generated by Font Squirrel.
Copyright   : Copyright  1995 2001 2002 Adobe Systems Incorporated All Rights Reserved
Designer    : Vic Caruso
Foundry URL : httpwwwadobecomtype
</metadata>
<defs>
<font id="webfontucL7AojA" horiz-adv-x="1046" >
<font-face units-per-em="2048" ascent="1405" descent="-643" />
<missing-glyph horiz-adv-x="522" />
<glyph unicode=" "  horiz-adv-x="522" />
<glyph unicode="&#x09;" horiz-adv-x="522" />
<glyph unicode="&#xa0;" horiz-adv-x="522" />
<glyph unicode="!" horiz-adv-x="698" d="M168 1366h360l-88 -958h-182zM209 303h278v-303h-278v303z" />
<glyph unicode="&#x22;" horiz-adv-x="872" d="M377 1366l-37 -600h-188l-37 600h262zM760 1366l-37 -600h-188l-37 600h262z" />
<glyph unicode="#" d="M346 1366h178l-61 -395h203l59 395h178l-61 -395h184l-25 -166h-184l-33 -219h185l-25 -168h-184l-64 -418h-176l64 418h-203l-64 -418h-176l62 418h-183l25 168h184l33 219h-184l24 166h185zM641 805h-203l-32 -219h202z" />
<glyph unicode="$" d="M446 1479h154v-142q88 -12 152.5 -47t101.5 -86t51.5 -82.5t28.5 -77.5l-211 -86q-14 39 -25.5 61.5t-34 54.5t-56.5 47.5t-77 15.5q-68 0 -105.5 -42t-37.5 -96q0 -66 47 -96.5t209 -89.5q160 -57 246 -142t86 -243q0 -182 -121 -289q-84 -80 -254 -102v-184h-154v184 q-84 10 -149.5 41t-101 65.5t-64.5 87t-38 82t-21 74.5l239 64q33 -203 217 -203q72 0 113 30.5t50 59.5t9 57q0 72 -51 103.5t-237 97.5q-295 102 -295 367q0 186 127 290q70 59 202 84v142z" />
<glyph unicode="%" horiz-adv-x="1359" d="M326 1374q129 0 199.5 -91t70.5 -261q0 -172 -70.5 -262t-199.5 -90q-127 0 -199 90t-72 262t71 262t200 90zM326 1223q-45 0 -60.5 -47.5t-15.5 -153.5q0 -109 15.5 -155t60.5 -46t60 46t15 155q0 106 -15 153.5t-60 47.5zM1036 696q125 0 197 -89t72 -263 q0 -172 -71 -262t-198 -90t-198.5 89t-71.5 263t71.5 263t198.5 89zM1036 545q-45 0 -60 -47t-15 -154q0 -109 16 -155t59 -46t58.5 46.5t15.5 154.5q0 106 -15.5 153.5t-58.5 47.5zM928 1366h153l-643 -1366h-155z" />
<glyph unicode="&#x26;" horiz-adv-x="1325" d="M1016 782l221 -41q-57 -244 -184 -438q37 -39 66.5 -55.5t55 -17.5t62.5 1v-231q-68 -14 -102 -14q-61 0 -115.5 21.5t-82.5 44t-69 63.5q-51 -41 -89 -64.5t-113.5 -47t-165.5 -23.5q-119 0 -206 37.5t-130 86t-67.5 114t-29 100t-4.5 65.5q0 262 310 393 q-127 186 -127 307q0 119 98 211t262 92q168 0 259 -97t91 -228q0 -203 -235 -328l188 -252q66 111 107 301zM514 1085q0 -72 90 -196q123 70 123 188q0 25 -6 47.5t-31.5 45t-68.5 22.5q-53 0 -80 -31t-27 -76zM735 285l-248 333q-139 -84 -139 -217q0 -78 47 -137t150 -59 q100 0 190 80z" />
<glyph unicode="'" horiz-adv-x="489" d="M377 1366l-37 -600h-188l-37 600h262z" />
<glyph unicode="(" horiz-adv-x="698" d="M352 1366h219q-80 -152 -127 -309q-80 -281 -79 -545q0 -266 79 -545q45 -156 127 -309h-219q-248 367 -248 854t248 854z" />
<glyph unicode=")" horiz-adv-x="698" d="M350 -342h-221q78 145 127 309q80 279 80 545q0 260 -80 545q-47 158 -127 309h221q246 -373 246 -854t-246 -854z" />
<glyph unicode="*" d="M438 1366h170l-24 -252l207 141l83 -153l-223 -98l223 -99l-83 -153l-207 141l24 -252h-170l25 252l-207 -141l-84 153l223 99l-223 98l84 153l207 -141z" />
<glyph unicode="+" d="M635 791h305v-218h-305v-309h-225v309h-306v218h306v309h225v-309z" />
<glyph unicode="," horiz-adv-x="522" d="M123 303h278v-274l-168 -353h-110l131 324h-131v303z" />
<glyph unicode="-" horiz-adv-x="559" d="M76 629h407v-221h-407v221z" />
<glyph unicode="." horiz-adv-x="522" d="M123 303h278v-303h-278v303z" />
<glyph unicode="/" horiz-adv-x="1081" d="M793 1366h190l-833 -1708h-189z" />
<glyph unicode="0" d="M68 666q0 381 109.5 550.5t344.5 169.5q262 0 373 -219q84 -166 84 -467q0 -379 -108.5 -549.5t-348.5 -170.5q-139 0 -227 53t-145 168q-82 164 -82 465zM383 682q0 -309 27 -389q31 -94 114 -94q82 0 113 92q27 82 27 391q0 315 -25 391q-31 94 -115 94t-114 -94 q-27 -82 -27 -391z" />
<glyph unicode="1" d="M713 1378v-1155h225v-223h-754v223h230v807q-106 -106 -230 -172v268q186 98 299 252h230z" />
<glyph unicode="2" d="M332 885l-275 55q12 68 27.5 122t50.5 117.5t81 106.5t122 71.5t172 28.5q121 0 209 -39.5t132 -104t63.5 -127t19.5 -126.5q0 -199 -143.5 -365.5t-425.5 -355.5h587l-22 -268h-873v268q401 344 504 504q57 92 57 201q0 170 -126 170q-66 0 -106 -54t-54 -204z" />
<glyph unicode="3" d="M326 985l-263 49q102 352 451 352q180 0 290.5 -94t110.5 -272q0 -74 -20.5 -130t-58 -91t-62 -50.5t-59.5 -31.5q229 -74 229 -326q0 -102 -33.5 -180t-83 -120t-114 -68.5t-115.5 -34.5t-100 -8q-219 0 -346 129q-90 92 -119 274l266 43l7 -49q3 -20 15.5 -52t30 -51.5 t50 -35t75.5 -15.5q76 0 117 50.5t41 138.5q0 190 -211 186h-82v219h82q37 0 60.5 3t59.5 17.5t55 52.5t19 97q0 74 -32 119q-31 47 -104.5 47t-105.5 -45t-50 -123z" />
<glyph unicode="4" d="M514 1386h328v-833h153v-231h-153v-322h-301v322h-490v231zM262 539h303v561z" />
<glyph unicode="5" d="M178 1366h729l-28 -268h-484l-16 -307q92 117 233 116q35 0 75 -7t106.5 -44t109.5 -98q76 -111 76 -297q0 -305 -209 -422q-104 -59 -250 -59q-215 0 -342 135q-88 92 -108 250l272 45q6 -35 12 -58.5t24.5 -57.5t54.5 -52.5t87 -18.5q90 0 127 62q41 59 41 159 q0 33 -6 66t-23.5 69.5t-54.5 60.5t-90 24q-47 0 -81 -20.5t-45 -39t-23 -47.5l-236 45z" />
<glyph unicode="6" d="M981 1022l-242 -72q-37 217 -172 217q-43 0 -73.5 -16t-50 -54t-32 -72t-18.5 -98.5t-8 -104.5t-4 -115q25 41 45 67.5t76.5 57t130.5 30.5q143 0 249.5 -110.5t106.5 -317.5q0 -127 -40 -221t-106.5 -142t-137 -69.5t-146.5 -21.5q-84 0 -155.5 27.5t-112.5 62t-74 83 t-44 75t-19 53.5q-49 170 -50 385q0 223 48.5 389t185.5 264q94 68 237 67q332 1 406 -364zM549 643q-156 0 -156 -229q0 -217 152 -217q154 0 153 237q1 209 -149 209z" />
<glyph unicode="7" d="M109 1098l22 268h811v-229q-51 -72 -88 -129.5t-85 -163t-79 -216t-54.5 -275.5t-25.5 -353h-325q6 322 106 592q45 121 108.5 234.5t95.5 155.5l89 116h-575z" />
<glyph unicode="8" d="M774 745q211 -133 211 -354q0 -45 -10 -93t-41 -107.5t-81 -104.5t-139 -75.5t-206 -30.5q-276 0 -385 161q-61 92 -62 213q0 70 19.5 125.5t59.5 93t68 56t75 45.5q-35 23 -57.5 42t-56.5 59t-51.5 95.5t-17.5 124.5q0 166 109 279q117 113 330 112q240 0 342 -137 q68 -88 67 -211q0 -84 -34.5 -150.5t-64.5 -90t-75 -52.5zM594 836q96 100 96 188q0 20 -4 41.5t-17.5 53.5t-47 52.5t-82.5 20.5q-70 0 -114 -42t-44 -108q0 -55 42 -102t171 -104zM457 575q-39 -25 -61.5 -43t-46 -61t-23.5 -94q0 -86 51 -138.5t143 -52.5 q88 0 136.5 49.5t48.5 110.5q0 78 -60.5 125t-187.5 104z" />
<glyph unicode="9" d="M88 313l262 49q6 -33 12.5 -53t21.5 -50t44 -45t68 -15q174 0 166 428q-25 -33 -42.5 -52.5t-71.5 -45t-122 -25.5q-123 0 -210 70.5t-123 166t-36 199.5q0 47 8.5 97t37 115t72.5 115t126 84.5t188 34.5q123 0 208 -43t149 -149q96 -162 96 -489q0 -725 -459 -725 q-88 0 -156.5 25.5t-106.5 57t-68.5 86t-40 84t-23.5 80.5zM496 1167q-74 0 -111 -60t-37 -149q0 -211 151.5 -210.5t151.5 210.5q0 100 -41.5 154.5t-113.5 54.5z" />
<glyph unicode=":" horiz-adv-x="522" d="M123 303h278v-303h-278v303zM123 1010h278v-303h-278v303z" />
<glyph unicode=";" horiz-adv-x="522" d="M123 303h278v-274l-168 -353h-110l131 324h-131v303zM123 1010h278v-303h-278v303z" />
<glyph unicode="&#x3c;" d="M967 1276v-303l-564 -291l564 -291v-301l-887 465v256z" />
<glyph unicode="=" d="M942 741h-838v217h838v-217zM942 408h-838v217h838v-217z" />
<glyph unicode="&#x3e;" d="M80 90v303l565 291l-565 291v301l887 -465v-256z" />
<glyph unicode="?" horiz-adv-x="976" d="M315 897l-256 35q8 227 122 340.5t298 113.5q102 0 180 -31.5t119 -74.5t65.5 -100.5t31 -98.5t6.5 -77q0 -70 -16.5 -129.5t-52.5 -106.5t-61.5 -73.5t-72.5 -67.5q-78 -70 -93.5 -107t-15.5 -129h-239q2 152 9 201t44 98q10 12 66 70l59 61q70 82 70 189 q0 76 -39 104.5t-78 28.5t-67.5 -19.5t-43 -43t-23 -64.5t-10.5 -62.5t-2 -56.5zM315 291h269v-291h-269v291z" />
<glyph unicode="@" horiz-adv-x="1290" d="M811 1040h139l-59 -417q-10 -68 -10 -119q0 -41 9 -57.5t36 -16.5q61 0 110 101.5t49 248.5q0 59 -8 116.5t-34.5 126.5t-69.5 119t-120 84t-177 34q-217 0 -339 -163t-122 -415q0 -111 26.5 -209t81 -181t151.5 -132t224 -49q190 0 357 110l55 -133q-199 -127 -420 -127 q-41 0 -89 7t-127 26.5t-156.5 72t-135.5 130.5q-145 197 -145 481q0 309 172 520t467 211q152 0 267.5 -54.5t181 -144.5t97 -194.5t31.5 -218.5q0 -231 -108.5 -376t-245.5 -145q-51 0 -84 19.5t-44 39t-23 56.5q-18 -31 -32 -49t-54.5 -43t-90.5 -25q-92 0 -151.5 92.5 t-59.5 243.5q0 178 81 311.5t210 133.5q43 0 76 -19.5t44 -37t28 -48.5zM662 868q-55 0 -85 -74.5t-30 -179.5q0 -154 76 -153q55 0 75 49q33 78 33 221q1 137 -69 137z" />
<glyph unicode="A" d="M369 1366h303l389 -1366h-305l-70 281h-383l-67 -281h-277zM360 516h271l-137 557z" />
<glyph unicode="B" horiz-adv-x="1150" d="M129 0v1366h465q70 0 107.5 -2t95 -12.5t98.5 -36t72 -66.5q72 -98 71 -243q0 -78 -19.5 -133.5t-56 -88t-59 -45t-59.5 -26.5q90 -33 137 -84q94 -102 94 -250q0 -94 -40 -183.5t-109 -132.5q-49 -31 -109.5 -45t-101.5 -16t-121 -2h-465zM418 1145v-330h96q45 0 71.5 3 t66.5 17.5t60.5 52.5t20.5 97q0 55 -20.5 91t-57.5 49.5t-60.5 16.5t-57.5 3h-119zM418 594v-358h147q102 0 153.5 40.5t51.5 139.5q0 51 -16.5 87t-36 53t-53 26.5t-52 10.5t-49.5 1h-145z" />
<glyph unicode="C" horiz-adv-x="1116" d="M795 498l276 -19q-18 -219 -140 -359t-337 -140q-119 0 -212 44t-148.5 112.5t-91.5 164.5t-49 188.5t-13 192.5q0 88 9 170t42 183.5t86 175t151.5 124.5t229.5 51q246 0 371 -184q80 -119 96 -344l-272 -20l-7 61q-2 20 -9 64.5t-19.5 69t-32.5 54t-52 43t-73 13.5 q-61 0 -103 -35t-63.5 -104.5t-30 -150.5t-8.5 -194q0 -96 7.5 -165.5t28 -136t63.5 -100.5t106 -34q45 0 81 23.5t54.5 50.5t32.5 75t17 67z" />
<glyph unicode="D" horiz-adv-x="1150" d="M129 0v1366h322q49 0 77.5 -1t85 -7t94 -17.5t92 -35t90.5 -56t76 -84t63.5 -117t38.5 -156.5t15 -200q0 -197 -57 -356.5t-166 -241.5q-55 -43 -131 -65.5t-122 -25.5t-120 -3h-358zM428 1130v-894h51q47 0 77 4t74 29.5t70.5 71.5t46 137t19.5 218q0 121 -19.5 206 t-45 129t-69.5 67.5t-75 27.5t-78 4h-51z" />
<glyph unicode="E" horiz-adv-x="976" d="M129 1366h829v-236h-530v-315h412v-235h-412v-336h530v-244h-829v1366z" />
<glyph unicode="F" horiz-adv-x="907" d="M129 1366h809v-236h-510v-356h393v-235h-393v-539h-299v1366z" />
<glyph unicode="G" horiz-adv-x="1185" d="M608 729h475v-729h-127l-38 156q-115 -176 -332 -176q-244 0 -375 191t-131 488q0 78 8 155t40 186.5t85 189.5t156.5 138t242.5 58q109 0 192 -30.5t130 -74.5t81 -112.5t46 -123t22 -125.5l-270 -46q-8 57 -15 88t-26.5 81.5t-58.5 75t-95 24.5q-121 0 -172 -120 t-51 -345q0 -102 9.5 -177t33 -141.5t71.5 -101.5t120 -35q49 0 85 21.5t54 47t28.5 71t12.5 68t4 63.5h-205v235z" />
<glyph unicode="H" horiz-adv-x="1185" d="M1057 1366v-1366h-299v559h-330v-559h-299v1366h299v-551h330v551h299z" />
<glyph unicode="I" horiz-adv-x="557" d="M129 1366h299v-1366h-299v1366z" />
<glyph unicode="J" horiz-adv-x="663" d="M242 1366h299v-907q0 -92 -4.5 -148.5t-24.5 -127t-57 -109.5t-108 -66.5t-173 -27.5q-66 0 -184 20v252q68 -14 121 -14q84 0 107.5 46t23.5 175v907z" />
<glyph unicode="K" horiz-adv-x="1081" d="M129 1366h299v-569l332 569h303l-342 -502l371 -864h-310l-241 629l-113 -166v-463h-299v1366z" />
<glyph unicode="L" horiz-adv-x="872" d="M129 1366h299v-1110h440v-256h-739v1366z" />
<glyph unicode="M" horiz-adv-x="1533" d="M129 1366h440l193 -844l217 844h426v-1366h-281v1145l-278 -1145h-219l-254 1145v-1145h-244v1366z" />
<glyph unicode="N" horiz-adv-x="1150" d="M117 1366h334l350 -848v848h233v-1366h-268l-416 989v-989h-233v1366z" />
<glyph unicode="O" horiz-adv-x="1150" d="M575 1386q496 0 496 -704q0 -702 -495.5 -702t-495.5 702q0 94 8 176t39 184.5t82 174t145 120.5t221 49zM575 1143q-106 0 -143 -109.5t-37 -351.5q0 -240 37 -349.5t143 -109.5q57 0 93.5 30t54.5 93.5t25.5 141t7.5 194.5q0 240 -36 350.5t-145 110.5z" />
<glyph unicode="P" d="M129 1366h393q96 0 148.5 -3t126 -27.5t121.5 -73.5q115 -119 114 -324q0 -244 -143 -354q-102 -80 -354 -80h-107v-504h-299v1366zM522 1145h-94v-406h94q94 0 143.5 40t49.5 165q0 70 -18.5 115t-55.5 61.5t-59.5 20.5t-59.5 4z" />
<glyph unicode="Q" horiz-adv-x="1150" d="M1022 -47v-219q-70 -16 -127 -17q-145 0 -204.5 71t-67.5 194q-145 0 -227.5 29.5t-141.5 86.5q-174 172 -174 584q0 705 495 704q117 0 207 -41.5t143.5 -107.5t87.5 -160t46 -186t12 -197q0 -164 -22.5 -284.5t-65.5 -192.5t-78 -108.5t-84 -69.5q2 -31 6 -48.5 t27 -35.5t66 -18q49 0 102 16zM395 682q0 -240 37 -349.5t143 -109.5q109 0 145 110.5t36 350.5q0 238 -36 348.5t-145 110.5q-106 0 -143 -109.5t-37 -351.5z" />
<glyph unicode="R" horiz-adv-x="1116" d="M129 1366h428q90 0 139 -4t118 -30.5t118 -82.5q98 -109 98 -297q0 -84 -18.5 -149.5t-54 -106.5t-58 -59.5t-61.5 -40.5l252 -596h-328l-182 539h-152v-539h-299v1366zM549 1145h-121v-385h133q176 0 176 196q0 66 -20.5 108t-56 57.5t-58 19.5t-53.5 4z" />
<glyph unicode="S" d="M965 1069l-250 -96q-10 31 -19.5 49t-31 52t-58.5 51.5t-84 17.5q-70 0 -106.5 -39t-36.5 -86q0 -27 12 -50.5t26.5 -38t52.5 -33.5t62 -29l82 -31q66 -25 101 -40.5t96 -53t94 -76.5t59.5 -104.5t26.5 -145.5q0 -186 -127 -311t-358 -125q-229 0 -356 143 q-78 90 -117 231l262 74q10 -35 19.5 -59.5t34 -63.5t66.5 -60.5t99 -21.5q78 0 126 40t48 108q0 66 -47 102.5t-141 69.5l-117 44q-39 15 -105.5 54t-100.5 78t-61.5 104.5t-27.5 145.5q0 174 112.5 295.5t323.5 121.5q96 0 173 -25.5t120 -58t78 -85t46.5 -80t23.5 -68.5z " />
<glyph unicode="T" horiz-adv-x="802" d="M-25 1366h850v-256h-278v-1110h-299v1110h-273v256z" />
<glyph unicode="U" horiz-adv-x="1185" d="M129 1366h299v-780q0 -78 1 -116t11.5 -95.5t29.5 -84t57 -47t96 -20.5q115 0 157 90q25 53 25 273v780h252v-768q0 -117 -3 -175t-17.5 -139t-50.5 -134.5t-95 -92.5q-121 -78 -295 -77q-96 0 -172 19t-124 48t-83 82t-51 95t-25.5 116t-10.5 119t-1 127v780z" />
<glyph unicode="V" horiz-adv-x="942" d="M-29 1366h316l209 -1042l217 1042h258l-336 -1374l-336 6z" />
<glyph unicode="W" horiz-adv-x="1464" d="M-10 1366h305l143 -946l180 946h275l168 -948l168 948h252l-293 -1374h-268l-183 950l-186 -950h-266z" />
<glyph unicode="X" horiz-adv-x="976" d="M10 1366h334l164 -356l172 356h287l-322 -618l363 -748h-328l-201 446l-223 -446h-287l375 700z" />
<glyph unicode="Y" horiz-adv-x="907" d="M-57 1366h329l193 -500l205 500h293l-379 -788v-578h-299v578z" />
<glyph unicode="Z" horiz-adv-x="942" d="M45 1366h877v-213l-572 -909h590v-244h-938v209l576 913h-533v244z" />
<glyph unicode="[" horiz-adv-x="698" d="M150 1366h421v-127h-172v-1454h172v-127h-421v1708z" />
<glyph unicode="\" horiz-adv-x="1081" d="M289 1366l833 -1708h-190l-832 1708h189z" />
<glyph unicode="]" horiz-adv-x="698" d="M549 -342h-422v127h172v1454h-172v127h422v-1708z" />
<glyph unicode="^" d="M1016 647h-248l-246 504l-246 -504h-245l387 733h211z" />
<glyph unicode="_" horiz-adv-x="1024" d="M0 -154h1024v-102h-1024v102z" />
<glyph unicode="`" horiz-adv-x="942" d="M610 1202l-84 -84l-368 232l112 168z" />
<glyph unicode="a" horiz-adv-x="976" d="M371 690l-265 27q25 178 168 260q96 55 240 55q193 0 293 -106q66 -66 65 -299v-402q0 -170 17 -225h-260q-14 47 -15 156q-27 -47 -50 -78t-85.5 -64.5t-142.5 -33.5q-113 0 -188.5 68.5t-75.5 207.5q0 197 134 276.5t386 94.5v39q0 45 -2 67.5t-10.5 53t-31 45 t-56.5 14.5q-63 0 -88 -41t-33 -115zM592 434v49q-127 -16 -178.5 -56t-51.5 -134q0 -127 95 -127q55 0 92 55q43 63 43 213z" />
<glyph unicode="b" horiz-adv-x="976" d="M104 1366h277v-451q88 109 211 109q117 0 193.5 -80t104.5 -189.5t28 -242.5q0 -76 -8.5 -152.5t-56.5 -187.5t-132 -154q-76 -39 -164 -38q-57 0 -100 14t-70 43t-38 47t-25 47q-31 -57 -54 -131h-166v1366zM381 653v-233q0 -47 1 -71.5t7 -63.5t17.5 -58.5t35 -36 t58.5 -16.5q68 0 97.5 70.5t29.5 259.5q0 190 -30 262t-93 72q-57 0 -90 -43q-33 -40 -33 -142z" />
<glyph unicode="c" horiz-adv-x="907" d="M858 639l-262 -10q-8 106 -33.5 147t-77.5 41q-141 0 -141 -299q0 -66 5 -114t18.5 -97t41 -74.5t70.5 -25.5q61 0 86 48t31 138l262 -16q-6 -51 -12 -84t-32 -99.5t-63.5 -106.5t-112.5 -73.5t-175 -33.5q-98 0 -173 34.5t-117 87t-68.5 126t-35 138t-8.5 138.5 q0 147 36 260t132.5 190.5t247.5 77.5q176 0 273 -104q43 -47 67.5 -103.5t30.5 -92.5t10 -93z" />
<glyph unicode="d" horiz-adv-x="976" d="M596 1366h276v-1366h-260v166q-14 -39 -26.5 -61.5t-39 -54.5t-67.5 -48t-98 -16q-96 0 -163.5 50t-99.5 133t-45.5 164t-13.5 167q0 37 2 68.5t10.5 101t30 124t56.5 111t95 88t140 31.5q61 0 107.5 -20.5t60.5 -38t35 -47.5v448zM596 408v178q0 39 -1 62.5t-7 64.5 t-18.5 64.5t-37 42t-59.5 18.5q-74 0 -98.5 -75t-24.5 -218q0 -66 1 -97.5t4 -83t10.5 -77t20.5 -54t34.5 -41t50.5 -12.5q43 0 71.5 22.5t39 65.5t12.5 71t2 69z" />
<glyph unicode="e" horiz-adv-x="942" d="M883 459h-531v-82q0 -41 7.5 -78t19.5 -64.5t39.5 -44t68.5 -16.5q43 0 72 16.5t43 48t19.5 53t9.5 56.5l252 -16q-10 -45 -18.5 -75t-38 -88t-68.5 -94t-112 -65.5t-165 -29.5q-147 0 -244.5 73.5t-136.5 184t-39 254.5q0 211 76 348q51 94 143.5 143t198.5 49 q121 0 206 -54t124 -130q74 -141 74 -389zM354 621h262q0 13 1 24q0 201 -132 201q-37 0 -62.5 -18.5t-37.5 -39t-19.5 -58.5t-9.5 -56t-2 -53z" />
<glyph unicode="f" horiz-adv-x="593" d="M422 1010h178v-222h-178v-788h-270v788h-115v222h115q4 150 22.5 221.5t85.5 124.5q78 63 217 63q41 0 133 -10v-219q-37 4 -61 4q-86 0 -106.5 -35.5t-20.5 -148.5z" />
<glyph unicode="g" horiz-adv-x="942" d="M963 1176v-183q-33 8 -62 8q-88 0 -106 -92q76 -78 75 -202q0 -145 -105.5 -224.5t-258.5 -79.5q-55 0 -133 19q-66 -37 -66 -84q0 -20 9.5 -32.5t36 -19.5t49 -9.5t73.5 -6.5q188 -10 254 -20t117 -47q104 -72 104 -223q0 -336 -493 -336q-414 0 -414 239q0 131 164 189 q-131 66 -131 174q0 57 33.5 105t62.5 68.5t78 49.5q-43 23 -68.5 42t-53.5 75.5t-28 134.5q0 164 112 237.5t265 73.5q115 0 217 -47q6 47 14.5 77t28 61.5t56 47t92.5 15.5q27 0 78 -10zM492 881q-55 0 -78 -40t-23 -130q0 -156 96 -156q53 0 73 39t20 123q0 90 -21.5 127 t-66.5 37zM365 43q-88 -43 -89 -121q0 -102 224 -102q109 0 158 24.5t49 81.5q0 92 -111 99q-16 2 -114.5 9t-116.5 9z" />
<glyph unicode="h" horiz-adv-x="976" d="M104 1366h281v-463q82 129 248 129q74 0 124 -25.5t75.5 -57t38 -92t14.5 -98.5t2 -110v-649h-281v649q0 47 -2 68.5t-10 48.5t-27.5 37t-54.5 10q-57 0 -87 -28.5t-35 -59.5t-5 -84v-641h-281v1366z" />
<glyph unicode="i" horiz-adv-x="487" d="M104 1010h281v-1010h-281v1010zM387 1096h-285v278h285v-278z" />
<glyph unicode="j" horiz-adv-x="489" d="M113 1010h280v-977q0 -57 -1 -86t-5 -80t-14.5 -78t-28.5 -62.5t-46 -53t-70 -31t-95 -13.5q-41 0 -151 15v231q33 -4 38 -4q61 0 77 31.5t16 138.5v969zM395 1096h-284v278h284v-278z" />
<glyph unicode="k" horiz-adv-x="942" d="M104 1366h281v-745l285 389h256l-256 -338l280 -672h-303l-160 469l-102 -143v-326h-281v1366z" />
<glyph unicode="l" horiz-adv-x="489" d="M104 1366h281v-1366h-281v1366z" />
<glyph unicode="m" horiz-adv-x="1429" d="M104 0v1010h267v-138q16 31 28.5 50.5t41 49t73.5 45t102 15.5q61 0 103.5 -15.5t65 -44t31.5 -48t18 -52.5q20 43 41.5 73t76 58.5t129.5 28.5q53 0 95.5 -12t69 -28.5t46 -49.5t28.5 -57.5t13 -70.5t5 -73.5t1 -78.5v-662h-280v633q0 43 -1 63.5t-5 48t-13.5 39 t-27 20.5t-43.5 9q-70 0 -88.5 -49t-18.5 -176v-588h-280v639q0 102 -14.5 137t-73.5 35q-70 0 -89.5 -51t-19.5 -172v-588h-281z" />
<glyph unicode="n" horiz-adv-x="976" d="M104 1010h267v-138q37 78 91 119t161 41q154 0 223 -106q41 -63 41 -262v-664h-281v664q0 78 -17.5 113.5t-78.5 35.5q-45 0 -71.5 -15.5t-38 -52t-13.5 -65.5t-2 -88v-592h-281v1010z" />
<glyph unicode="o" horiz-adv-x="942" d="M471 1032q410 0 410 -526t-412 -526q-410 0 -410 526t412 526zM471 836h-2q-68 0 -93.5 -72t-25.5 -258q0 -195 28 -262.5t93.5 -67.5t92 67.5t26.5 262.5q0 190 -26.5 260t-92.5 70z" />
<glyph unicode="p" horiz-adv-x="976" d="M104 1010h261v-152q18 35 32.5 55.5t42 50t65.5 45t87 15.5q115 0 192 -78q131 -133 131 -428q0 -57 -4 -111.5t-24.5 -136.5t-54 -140t-100 -101t-159.5 -43q-111 0 -192 88v-416h-277v1352zM381 604v-192q0 -55 1 -81t7 -62t17.5 -51t35 -26.5t58.5 -11.5 q41 0 67.5 20.5t38.5 69.5t15.5 102.5t3.5 145.5q0 78 -3.5 127t-14.5 98.5t-35.5 72t-63.5 22.5q-45 0 -72.5 -21.5t-39 -64.5t-13.5 -71t-2 -77z" />
<glyph unicode="q" horiz-adv-x="976" d="M719 1010h153q-8 -86 -8 -258v-1094h-276v446q-84 -119 -209 -118q-143 0 -231.5 133t-88.5 368q0 537 342 537q66 0 119 -28.5t73.5 -53t47.5 -63.5q47 55 78 131zM588 459v149q0 123 -25.5 176.5t-93.5 53.5q-74 0 -96.5 -62.5t-22.5 -245.5q0 -98 3 -149t13.5 -104.5 t36 -75t66.5 -21.5q51 0 78.5 42t34 95.5t6.5 141.5z" />
<glyph unicode="r" horiz-adv-x="628" d="M104 1010h248v-244q14 49 26.5 80t39 79t70.5 73.5t102 25.5q29 0 49 -6v-275q-25 4 -47 5q-207 0 -207 -312v-436h-281v1010z" />
<glyph unicode="s" horiz-adv-x="837" d="M770 768l-201 -59q-8 27 -16 44t-24.5 41.5t-43 38t-63.5 13.5q-45 0 -66.5 -26.5t-21.5 -61.5q0 -39 22.5 -64.5t49 -37t96.5 -38.5l87 -31q30 -11 77 -39t71.5 -56.5t44 -75.5t19.5 -107q0 -129 -95.5 -229t-287.5 -100q-94 0 -166 25.5t-107.5 57t-61.5 81t-32 75 t-12 62.5l223 36q33 -152 160 -151q113 0 113 94q0 55 -36 80t-126 53q-43 12 -74 24.5t-78 39t-76.5 58.5t-52 83t-22.5 113q0 154 105.5 237.5t252.5 83.5q129 0 222 -70.5t120 -193.5z" />
<glyph unicode="t" horiz-adv-x="628" d="M182 1307l238 22v-319h186v-222h-186v-370v-65q0 -19 3 -48t7 -39t14.5 -25.5t23.5 -18.5t36.5 -7t49.5 -3t67 3v-215q-102 -20 -175 -20q-178 0 -251 104q-23 33 -34 85t-13.5 93t-2.5 125v401h-110v222h125z" />
<glyph unicode="u" horiz-adv-x="976" d="M90 1010h281v-650q0 -47 2 -69.5t10 -48t28.5 -35.5t55.5 -10q88 0 106.5 57t18.5 240v516h280v-1010h-264v139q-25 -41 -40 -62.5t-45.5 -48t-72.5 -37.5t-102 -11q-53 0 -95 12t-68.5 28.5t-46 49t-29 57.5t-13.5 72t-5 73.5t-1 79.5v658z" />
<glyph unicode="v" horiz-adv-x="733" d="M-23 1010h273l139 -596l139 596h236l-279 -1010h-221z" />
<glyph unicode="w" horiz-adv-x="1185" d="M-16 1010h274l119 -615l112 615h275l90 -615l137 615h221l-254 -1010h-235l-129 686l-127 -686h-229z" />
<glyph unicode="x" horiz-adv-x="768" d="M-10 1010h305l108 -234l129 234h244l-260 -445l301 -565h-305l-147 303l-170 -303h-244l299 516z" />
<glyph unicode="y" horiz-adv-x="733" d="M-27 1010h281l137 -619l131 619h242l-303 -1028l-35 -111t-40 -90t-57.5 -76.5t-78.5 -43t-115 -19.5q-51 0 -121 16v221q39 -6 80 -6q82 0 112 26.5t56 118.5z" />
<glyph unicode="z" horiz-adv-x="733" d="M76 1010h631v-181l-375 -628h383v-201h-674v201l367 608h-332v201z" />
<glyph unicode="{" horiz-adv-x="698" d="M92 426v170q74 2 87.5 35t13.5 178v246q0 195 55 253t205 58h96v-135q-76 -2 -93.5 -32t-17.5 -144v-238q0 -178 -17.5 -224t-103.5 -81q86 -37 103.5 -84t17.5 -223v-236q0 -117 17.5 -145.5t93.5 -30.5v-135h-115q-133 0 -187 61.5t-54 249.5v246v92q0 66 -17.5 91.5 t-83.5 27.5z" />
<glyph unicode="|" horiz-adv-x="1024" d="M666 1536v-2048h-308v2048h308z" />
<glyph unicode="}" horiz-adv-x="698" d="M612 596v-170q-66 -2 -83 -27.5t-17 -91.5v-92v-246q0 -188 -54.5 -249.5t-187.5 -61.5h-114v135q76 2 93 31t17 145v236q0 176 17.5 223t103.5 84q-86 35 -103.5 81t-17.5 224v238q0 115 -17.5 144.5t-92.5 31.5v135h96q150 0 205 -58.5t55 -252.5v-246q0 -145 13 -178 t87 -35z" />
<glyph unicode="~" d="M176 475l-147 125q113 279 305 279q68 0 229 -70q121 -51 158 -51q84 0 147 127l150 -125l-30 -69q-11 -26 -39.5 -69.5t-59.5 -69.5t-81 -46.5t-110 -20.5q-63 0 -145 35q-184 82 -234 82q-27 0 -49 -11t-41.5 -36t-27.5 -39z" />
<glyph unicode="&#xa1;" horiz-adv-x="698" d="M528 -356h-360l90 958h182zM487 707h-278v303h278v-303z" />
<glyph unicode="&#xa2;" d="M467 1374h145v-184q111 -14 179 -80q98 -98 118 -285l-235 -16q-4 49 -10.5 80t-36 67.5t-80.5 36.5q-74 0 -101.5 -68.5t-27.5 -224.5q0 -150 26.5 -219t100.5 -69q49 0 77.5 30.5t36 60t15.5 89.5l235 -21q-25 -180 -112 -276q-70 -74 -185 -92v-217h-145v217 q-94 18 -150 55q-180 127 -180 426q0 45 4 92t23.5 123t51.5 133.5t97.5 103.5t153.5 54v184z" />
<glyph unicode="&#xa3;" d="M553 836h231v-209h-200q4 -139 -22.5 -221t-129.5 -173h152q123 0 187.5 39t107.5 166l221 -84q-18 -84 -47 -146.5t-71 -100t-80 -60t-99.5 -33t-103.5 -12.5t-115 -2h-568v233h105q27 0 42 2.5t41.5 9.5t42 25.5t32 48t24.5 82t8 121.5q0 59 -6 105h-155v209h120 q-12 90 -12 163.5t19.5 138t59.5 123t115.5 92t178.5 33.5q94 0 161.5 -25.5t103.5 -73.5t50.5 -79.5t28.5 -79.5l-217 -102q-33 141 -127 141q-90 0 -90 -139q0 -16 6 -98t6 -94z" />
<glyph unicode="&#xa4;" d="M692 1016l131 131l144 -141l-131 -134q43 -82 43 -167q0 -84 -41 -166l133 -133l-150 -150l-133 133q-82 -41 -166 -41q-88 0 -168 43l-133 -131l-141 141l131 134q-43 80 -43 170q0 82 41 163l-133 133l149 150l133 -133q82 41 164 41q88 0 170 -43zM522 545 q68 0 114 47t46 112.5t-47 111.5t-112.5 46t-111.5 -47t-46 -112.5t45.5 -111.5t111.5 -46z" />
<glyph unicode="&#xa5;" d="M49 1366h291l205 -555l219 555h233l-223 -532h205v-150h-270l-52 -123h322v-149h-322v-412h-270v412h-307v149h307l-51 123h-256v150h192z" />
<glyph unicode="&#xa6;" horiz-adv-x="1024" d="M666 1382v-716h-308v716h308zM666 358v-716h-308v716h308z" />
<glyph unicode="&#xa7;" d="M938 1130l-209 -63q-8 29 -15 45t-24.5 41t-46.5 36t-72 11q-63 0 -96 -32.5t-33 -80.5q0 -55 36 -83.5t161 -85.5l82 -40q27 -13 73 -46t69.5 -65t42 -84t18.5 -114q0 -70 -23.5 -124t-47.5 -80.5t-67 -63.5q39 -29 65 -53.5t54.5 -87t28.5 -142.5q0 -174 -112.5 -269 t-293.5 -95q-221 0 -329 121q-57 61 -90 190l231 41q6 -29 14 -47t26.5 -49t56.5 -46.5t91 -15.5q154 0 154 138q0 72 -58.5 112.5t-267.5 132.5q-143 68 -192 189q-20 53 -21 119q0 178 158 274q-33 33 -50.5 52.5t-39 71.5t-21.5 114q0 141 91.5 238t277.5 97 q82 0 147.5 -20t102.5 -45t66.5 -66t40 -65.5t22.5 -59.5zM434 729v-2q-57 -53 -57 -119q0 -86 106 -145q14 -8 85 -41t75 -35q55 47 55 121q0 68 -59 110q-16 10 -106.5 58.5t-98.5 52.5z" />
<glyph unicode="&#xa8;" horiz-adv-x="942" d="M301 1163q-41 0 -78 29t-37 78q0 45 34 76.5t81 31.5t81 -31.5t34 -76.5q0 -49 -37 -78t-78 -29zM639 1163q-41 0 -78 29t-37 78q0 45 34 76.5t81 31.5t81 -31.5t34 -76.5q0 -49 -37 -78t-78 -29z" />
<glyph unicode="&#xa9;" horiz-adv-x="1595" d="M932 584l207 -11q-12 -152 -100.5 -232.5t-225.5 -80.5q-80 0 -142.5 26.5t-100.5 67.5t-62.5 97.5t-33.5 110.5t-9 114q0 121 30.5 212t111.5 153.5t208 62.5q295 0 320 -330l-205 -12q-2 49 -8.5 80.5t-32 64.5t-72.5 33q-63 0 -91 -65.5t-28 -202.5q0 -121 25 -184.5 t94 -63.5q95 0 115 160zM797 -25q-295 0 -505 206t-210 501q0 293 209 501t506 208t505.5 -208t208.5 -501q0 -295 -208.5 -501t-505.5 -206zM797 133q225 0 382.5 160t157.5 389q0 227 -158.5 389t-382 162t-382 -162t-158.5 -389t159 -388t382 -161z" />
<glyph unicode="&#xaa;" d="M459 1163l-223 19q45 205 303 204q78 0 132 -19t80.5 -44t41 -69t16.5 -69.5t2 -72.5v-256q0 -115 18 -160h-198q-8 49 -10 95q-25 -31 -41.5 -48.5t-63.5 -39t-102 -21.5q-82 0 -143.5 47t-61.5 148q0 127 98.5 184t276.5 67q0 43 -2 60.5t-15.5 33t-42.5 15.5 q-35 0 -47 -18.5t-18 -55.5zM444 899q0 -68 56 -68q84 0 84 168q-43 -2 -65.5 -5t-48.5 -26.5t-26 -68.5z" />
<glyph unicode="&#xab;" horiz-adv-x="907" d="M807 166h-148l-210 358l210 359h148l-125 -359zM459 166h-148l-211 358l211 359h148l-125 -359z" />
<glyph unicode="&#xac;" d="M717 408v333h-613v217h838v-550h-225z" />
<glyph unicode="&#xad;" horiz-adv-x="559" d="M76 629h407v-221h-407v221z" />
<glyph unicode="&#xae;" d="M367 752v450h155q31 0 51.5 -3t53 -14t50 -42t17.5 -78q0 -86 -69 -115l88 -198h-119l-64 176h-53v-176h-110zM477 1128v-127h47q61 0 62 66q0 61 -66 61h-43zM115 969q0 172 119.5 291.5t289.5 119.5q168 0 288 -119.5t120 -291.5q0 -170 -120 -289t-288 -119 t-288.5 119t-120.5 289zM225 969q0 -127 88 -215t211 -88t210 88t87 215t-87 217t-210 90t-211 -89t-88 -218z" />
<glyph unicode="&#xaf;" horiz-adv-x="942" d="M190 1343h562v-147h-562v147z" />
<glyph unicode="&#xb0;" d="M524 1386q135 0 230.5 -95t95.5 -230t-96.5 -230.5t-229.5 -95.5q-135 0 -231 95.5t-96 230.5t95 230t232 95zM524.5 1225q-59.5 0 -100.5 -47.5t-41 -116.5q0 -68 42 -115t99.5 -47t98.5 48t41 114q0 68 -40 116t-99.5 48z" />
<glyph unicode="&#xb1;" d="M635 791h305v-218h-305v-286h-225v286h-306v218h306v309h225v-309zM940 -25h-836v218h836v-218z" />
<glyph unicode="&#xb2;" horiz-adv-x="698" d="M240 1053l-207 39q6 39 12 62.5t27.5 71.5t51.5 76.5t86 52t130 23.5q84 0 145.5 -26.5t90 -67.5t41 -79t12.5 -72q0 -66 -28 -123.5t-89 -110.5t-106.5 -84t-129.5 -82h365l-16 -186h-590v178q225 174 291.5 251t66.5 148q0 80 -63 80q-43 0 -63.5 -35.5t-26.5 -115.5z " />
<glyph unicode="&#xb3;" horiz-adv-x="698" d="M233 1112l-200 35q70 231 309 231q135 0 204.5 -62.5t69.5 -158.5q0 -53 -24.5 -93t-46 -54.5t-60.5 -32.5q150 -53 150 -197q0 -115 -84 -181.5t-219 -66.5q-78 0 -137.5 23t-90 49.5t-52 70.5t-27 65.5t-11.5 56.5l203 28q4 -37 9 -56t29 -40.5t64 -21.5q84 0 84 92 q0 96 -118 96h-70v149h70q25 0 38 2.5t32.5 9.5t28.5 25.5t9 48.5q0 82 -74 82q-68 0 -86 -100z" />
<glyph unicode="&#xb4;" horiz-adv-x="942" d="M373 1202l340 316l112 -168l-368 -232z" />
<glyph unicode="&#xb5;" horiz-adv-x="976" d="M592 1010h280v-1010h-264v139q-8 -39 -14 -59.5t-19.5 -48t-37 -39.5t-56 -12t-56.5 12t-37 39.5t-19.5 48t-14.5 59.5v-481h-264v1352h281v-514q0 -188 12 -230q18 -68 98 -67.5t99 69.5q12 39 12 228v514z" />
<glyph unicode="&#xb6;" horiz-adv-x="1116" d="M958 1366v-1708h-159v1546h-99v-1546h-159v870h-72q-45 0 -71.5 1t-77 9.5t-82 24t-72.5 46t-64.5 74.5t-41 113.5t-17.5 157.5q0 256 152 357q80 55 288 55h475z" />
<glyph unicode="&#xb7;" horiz-adv-x="524" d="M123 831h278v-303h-278v303z" />
<glyph unicode="&#xb8;" horiz-adv-x="942" d="M426 0h117l-41 -100q55 4 95 -8.5t59.5 -31t31.5 -44t14.5 -42t2.5 -32.5q0 -72 -52.5 -121t-154.5 -49q-98 0 -219 70l32 84q104 -49 162 -50q72 0 72 60q0 41 -34 64.5t-83 23.5q-35 0 -68 -6z" />
<glyph unicode="&#xb9;" horiz-adv-x="698" d="M328 1374h172v-665h143v-162h-516v162h147v411q-76 -55 -147 -88v191q127 63 201 151z" />
<glyph unicode="&#xba;" d="M524 1386q299 0 299 -346q0 -358 -299 -358q-301 0 -301 346q0 358 301 358zM524 1255q-47 0 -65.5 -49t-18.5 -172q0 -129 18.5 -175t63.5 -46q47 0 65.5 46t18.5 175q0 127 -18.5 174t-63.5 47z" />
<glyph unicode="&#xbb;" horiz-adv-x="907" d="M100 883h148l211 -359l-211 -358h-148l125 358zM449 883h147l211 -359l-211 -358h-147l124 358z" />
<glyph unicode="&#xbc;" horiz-adv-x="1640" d="M1090 330h182v313zM1053 1366h178l-643 -1366h-178zM1241 831h236v-479h98v-168h-98v-184h-226v184h-313v156zM305 1374h172v-665h144v-162h-517v162h148v411q-76 -55 -148 -88v191q127 63 201 151z" />
<glyph unicode="&#xbd;" horiz-adv-x="1640" d="M311 1374h172v-665h144v-162h-516v162h147v411q-76 -55 -147 -88v191q126 63 200 151zM1053 1366h178l-643 -1366h-178zM1141 506l-207 39q45 287 307 286q152 0 220.5 -76.5t68.5 -166.5q0 -53 -22.5 -105.5t-51.5 -88.5t-85 -79t-91 -65l-102 -64h364l-16 -186h-590 v178q227 176 292.5 254t65.5 146q0 80 -63 79q-43 0 -63.5 -35.5t-26.5 -115.5z" />
<glyph unicode="&#xbe;" horiz-adv-x="1640" d="M1102 330h182v311zM1100 1366h178l-645 -1366h-178zM1253 831h236v-481h98v-166h-98v-184h-225v184h-314v156zM281 1112l-201 35q70 231 309 231q135 0 205 -62.5t70 -158.5q0 -53 -25 -93t-46.5 -54.5t-60.5 -32.5q150 -53 150 -197q0 -115 -84 -181.5t-219 -66.5 q-78 0 -137.5 23t-90 49.5t-52 70.5t-26.5 65.5t-12 56.5l203 28q4 -37 9.5 -56t29 -40.5t64.5 -21.5q84 0 84 92q0 96 -119 96h-70v149h70q25 0 38 2.5t32.5 9.5t28.5 25.5t9 48.5q0 82 -73 82q-68 0 -86 -100z" />
<glyph unicode="&#xbf;" horiz-adv-x="976" d="M662 113l256 -35q-10 -229 -122 -342t-298 -113q-100 0 -177 31t-118 74t-66.5 99t-33 98t-7.5 81q0 92 36 171t68.5 113t96.5 93q78 70 94.5 106.5t16.5 128.5h239q-2 -152 -9 -200.5t-44 -98.5q-10 -12 -66 -69l-59 -62q-70 -82 -70 -188q0 -74 37 -103.5t80 -29.5 q39 0 67.5 19.5t43 43t22.5 64.5t10.5 62.5t2.5 56.5zM662 719h-267v291h267v-291z" />
<glyph unicode="&#xc0;" d="M369 1366h303l389 -1366h-305l-70 281h-383l-67 -281h-277zM360 516h271l-137 557zM655 1575l-61 -105l-428 132l65 196z" />
<glyph unicode="&#xc1;" d="M369 1366h303l389 -1366h-305l-70 281h-383l-67 -281h-277zM360 516h271l-137 557zM344 1575l422 223l68 -196l-428 -132z" />
<glyph unicode="&#xc2;" d="M369 1366h303l389 -1366h-305l-70 281h-383l-67 -281h-277zM360 516h271l-137 557zM109 1487l413 301l414 -301h-225l-189 100l-188 -100h-225z" />
<glyph unicode="&#xc3;" d="M369 1366h303l389 -1366h-305l-70 281h-383l-67 -281h-277zM360 516h271l-137 557zM756 1710l94 -68q-104 -158 -242 -157q-45 0 -170 51q-63 25 -92 25q-27 0 -45 -12.5t-57 -51.5l-90 68q121 147 231 147q35 0 59.5 -7t118.5 -44q55 -25 92 -25q44 0 101 74z" />
<glyph unicode="&#xc4;" d="M369 1366h303l389 -1366h-305l-70 281h-383l-67 -281h-277zM360 516h271l-137 557zM358 1495q-43 0 -80.5 29.5t-37.5 81.5q0 47 35.5 78.5t83 31.5t82 -32.5t34.5 -79.5q0 -49 -38 -79t-79 -30zM705 1495q-41 0 -79 29.5t-38 79.5q0 47 34.5 79.5t82 32.5t83 -31.5 t35.5 -78.5q0 -51 -37.5 -81t-80.5 -30z" />
<glyph unicode="&#xc5;" d="M369 1366h303l389 -1366h-305l-70 281h-383l-67 -281h-277zM360 516h271l-137 557zM512 1452q-74 0 -136.5 53.5t-62.5 143.5q0 88 59.5 144t139.5 56t139.5 -56t59.5 -144q0 -90 -63.5 -143.5t-135.5 -53.5zM512 1567q29 0 54.5 22.5t25.5 59.5q0 39 -24.5 62.5 t-55.5 23.5t-55.5 -23.5t-24.5 -62.5q0 -37 25.5 -59.5t54.5 -22.5z" />
<glyph unicode="&#xc6;" horiz-adv-x="1396" d="M455 1366h921v-236h-504v-315h398v-235h-398v-336h504v-244h-790v315h-297l-111 -315h-260zM362 537h230v628z" />
<glyph unicode="&#xc7;" horiz-adv-x="1116" d="M1065 858l-272 -20l-7 61q-2 20 -9 64.5t-19.5 69t-32.5 54t-52 43t-73 13.5q-61 0 -103 -35t-63.5 -104.5t-30 -150.5t-8.5 -194q0 -96 7.5 -165.5t28 -136t63.5 -100.5t106 -34q162 0 193 275l278 -19q-16 -219 -139 -358q-100 -117 -303 -141l-29 -84q86 4 133 -21 q76 -41 76 -141q0 -74 -53.5 -125t-159.5 -51q-102 0 -227 73l34 90q109 -51 166 -51q66 0 66 58q0 33 -27.5 60.5t-89.5 27.5q-20 0 -65 -4l61 172q-168 33 -254 122q-180 193 -180 576q0 88 9 170t42 183.5t86 175t151.5 124.5t229.5 51q246 0 371 -184q80 -119 96 -344z " />
<glyph unicode="&#xc8;" horiz-adv-x="976" d="M129 1366h829v-236h-530v-315h412v-235h-412v-336h530v-244h-829v1366zM696 1575l-61 -105l-428 132l65 196z" />
<glyph unicode="&#xc9;" horiz-adv-x="976" d="M129 1366h829v-236h-530v-315h412v-235h-412v-336h530v-244h-829v1366zM385 1575l422 223l67 -196l-428 -132z" />
<glyph unicode="&#xca;" horiz-adv-x="976" d="M129 1366h829v-236h-530v-315h412v-235h-412v-336h530v-244h-829v1366zM129 1487l414 301l413 -301h-225l-188 100l-189 -100h-225z" />
<glyph unicode="&#xcb;" horiz-adv-x="976" d="M129 1366h829v-236h-530v-315h412v-235h-412v-336h530v-244h-829v1366zM389 1495q-43 0 -81 29.5t-38 81.5q0 47 36 78.5t83 31.5t82 -32.5t35 -79.5q0 -49 -38 -79t-79 -30zM735 1495q-41 0 -79 29.5t-38 79.5q0 47 35 79.5t82 32.5t83 -31.5t36 -78.5q0 -51 -38 -81 t-81 -30z" />
<glyph unicode="&#xcc;" horiz-adv-x="557" d="M129 1366h299v-1366h-299v1366zM430 1575l-61 -105l-428 132l65 196z" />
<glyph unicode="&#xcd;" horiz-adv-x="557" d="M129 1366h299v-1366h-299v1366zM98 1575l422 223l68 -196l-428 -132z" />
<glyph unicode="&#xce;" horiz-adv-x="557" d="M129 1366h299v-1366h-299v1366zM-137 1487l413 301l414 -301h-225l-189 100l-188 -100h-225z" />
<glyph unicode="&#xcf;" horiz-adv-x="557" d="M129 1366h299v-1366h-299v1366zM113 1495q-43 0 -81 29.5t-38 81.5q0 47 36 78.5t83 31.5t81.5 -32.5t34.5 -79.5q0 -49 -37.5 -79t-78.5 -30zM459 1495q-41 0 -79 29.5t-38 79.5q0 47 35 79.5t82 32.5t83 -31.5t36 -78.5q0 -51 -38 -81t-81 -30z" />
<glyph unicode="&#xd0;" horiz-adv-x="1150" d="M129 815v551h322q63 0 101 -2t112.5 -14.5t123 -36t109.5 -73.5t98 -119.5t62.5 -180.5t25.5 -250q0 -195 -57 -354.5t-164 -241.5q-57 -43 -133 -65.5t-122 -25.5t-120 -3h-358v580h-117v235h117zM428 1130v-315h201v-235h-201v-344h51q45 0 75 4t75 28.5t71.5 69.5 t47 136t20.5 220q0 123 -20.5 209t-47 129t-70.5 66.5t-74 27.5t-77 4h-51z" />
<glyph unicode="&#xd1;" horiz-adv-x="1150" d="M117 1366h334l350 -848v848h233v-1366h-268l-416 989v-989h-233v1366zM838 1710l94 -68q-104 -158 -242 -157q-45 0 -170 51q-63 25 -92 25q-27 0 -45 -12.5t-57 -51.5l-90 68q121 147 231 147q35 0 59.5 -7t118.5 -44q55 -25 92 -25q44 0 101 74z" />
<glyph unicode="&#xd2;" horiz-adv-x="1150" d="M575 1386q496 0 496 -704q0 -702 -495.5 -702t-495.5 702q0 94 8 176t39 184.5t82 174t145 120.5t221 49zM575 1143q-106 0 -143 -109.5t-37 -351.5q0 -240 37 -349.5t143 -109.5q57 0 93.5 30t54.5 93.5t25.5 141t7.5 194.5q0 240 -36 350.5t-145 110.5zM696 1575 l-61 -105l-428 132l65 196z" />
<glyph unicode="&#xd3;" horiz-adv-x="1150" d="M575 1386q496 0 496 -704q0 -702 -495.5 -702t-495.5 702q0 94 8 176t39 184.5t82 174t145 120.5t221 49zM575 1143q-106 0 -143 -109.5t-37 -351.5q0 -240 37 -349.5t143 -109.5q57 0 93.5 30t54.5 93.5t25.5 141t7.5 194.5q0 240 -36 350.5t-145 110.5zM426 1575 l422 223l67 -196l-428 -132z" />
<glyph unicode="&#xd4;" horiz-adv-x="1150" d="M575 1386q496 0 496 -704q0 -702 -495.5 -702t-495.5 702q0 94 8 176t39 184.5t82 174t145 120.5t221 49zM575 1143q-106 0 -143 -109.5t-37 -351.5q0 -240 37 -349.5t143 -109.5q57 0 93.5 30t54.5 93.5t25.5 141t7.5 194.5q0 240 -36 350.5t-145 110.5zM160 1487 l413 301l414 -301h-225l-189 100l-188 -100h-225z" />
<glyph unicode="&#xd5;" horiz-adv-x="1150" d="M575 1386q496 0 496 -704q0 -702 -495.5 -702t-495.5 702q0 94 8 176t39 184.5t82 174t145 120.5t221 49zM575 1143q-106 0 -143 -109.5t-37 -351.5q0 -240 37 -349.5t143 -109.5q57 0 93.5 30t54.5 93.5t25.5 141t7.5 194.5q0 240 -36 350.5t-145 110.5zM786 1710 l95 -68q-104 -158 -242 -157q-45 0 -170 51q-63 25 -92 25q-27 0 -45.5 -12.5t-57.5 -51.5l-90 68q121 147 232 147q35 0 59.5 -7t118.5 -44q55 -25 92 -25q43 0 100 74z" />
<glyph unicode="&#xd6;" horiz-adv-x="1150" d="M575 1386q496 0 496 -704q0 -702 -495.5 -702t-495.5 702q0 94 8 176t39 184.5t82 174t145 120.5t221 49zM575 1143q-106 0 -143 -109.5t-37 -351.5q0 -240 37 -349.5t143 -109.5q57 0 93.5 30t54.5 93.5t25.5 141t7.5 194.5q0 240 -36 350.5t-145 110.5zM399 1495 q-43 0 -80.5 29.5t-37.5 81.5q0 47 35.5 78.5t82.5 31.5t82 -32.5t35 -79.5q0 -49 -38 -79t-79 -30zM745 1495q-41 0 -78.5 29.5t-37.5 79.5q0 47 34.5 79.5t82 32.5t83 -31.5t35.5 -78.5q0 -51 -38 -81t-81 -30z" />
<glyph unicode="&#xd7;" d="M524 842l232 233l159 -160l-231 -233l231 -231l-159 -160l-232 231l-233 -231l-160 160l234 231l-234 233l160 160z" />
<glyph unicode="&#xd8;" horiz-adv-x="1150" d="M1040 1444l-110 -217q141 -184 141 -545q0 -57 -3 -109.5t-14.5 -126t-32 -134t-57 -125t-87 -108.5t-128 -71.5t-171.5 -27.5q-129 0 -240 55l-64 -119h-155l106 215q-39 53 -62.5 95t-53 168t-29.5 288q0 55 3 105.5t13 125t29.5 135t57.5 126t88.5 110.5t127 73.5 t172.5 28.5q141 0 250 -61l62 119h157zM383 434l315 674q-55 51 -125 51q-49 0 -84.5 -18.5t-57 -60.5t-35 -82t-19.5 -109.5t-7 -116.5t-1 -129q0 -111 14 -209zM768 922l-311 -678q49 -39 127 -39q47 0 82.5 20.5t57 65.5t34 86t17.5 113.5t6 114.5t1 122q0 97 -14 195z " />
<glyph unicode="&#xd9;" horiz-adv-x="1185" d="M129 1366h299v-780q0 -78 1 -116t11.5 -95.5t29.5 -84t57 -47t96 -20.5q115 0 157 90q25 53 25 273v780h252v-768q0 -117 -3 -175t-17.5 -139t-50.5 -134.5t-95 -92.5q-121 -78 -295 -77q-96 0 -172 19t-124 48t-83 82t-51 95t-25.5 116t-10.5 119t-1 127v780zM696 1575 l-61 -105l-428 132l65 196z" />
<glyph unicode="&#xda;" horiz-adv-x="1185" d="M129 1366h299v-780q0 -78 1 -116t11.5 -95.5t29.5 -84t57 -47t96 -20.5q115 0 157 90q25 53 25 273v780h252v-768q0 -117 -3 -175t-17.5 -139t-50.5 -134.5t-95 -92.5q-121 -78 -295 -77q-96 0 -172 19t-124 48t-83 82t-51 95t-25.5 116t-10.5 119t-1 127v780zM426 1575 l422 223l67 -196l-428 -132z" />
<glyph unicode="&#xdb;" horiz-adv-x="1185" d="M129 1366h299v-780q0 -78 1 -116t11.5 -95.5t29.5 -84t57 -47t96 -20.5q115 0 157 90q25 53 25 273v780h252v-768q0 -117 -3 -175t-17.5 -139t-50.5 -134.5t-95 -92.5q-121 -78 -295 -77q-96 0 -172 19t-124 48t-83 82t-51 95t-25.5 116t-10.5 119t-1 127v780zM180 1487 l414 301l414 -301h-226l-188 100l-188 -100h-226z" />
<glyph unicode="&#xdc;" horiz-adv-x="1185" d="M129 1366h299v-780q0 -78 1 -116t11.5 -95.5t29.5 -84t57 -47t96 -20.5q115 0 157 90q25 53 25 273v780h252v-768q0 -117 -3 -175t-17.5 -139t-50.5 -134.5t-95 -92.5q-121 -78 -295 -77q-96 0 -172 19t-124 48t-83 82t-51 95t-25.5 116t-10.5 119t-1 127v780zM440 1495 q-43 0 -80.5 29.5t-37.5 81.5q0 47 35.5 78.5t82.5 31.5t82 -32.5t35 -79.5q0 -49 -38 -79t-79 -30zM786 1495q-41 0 -78.5 29.5t-37.5 79.5q0 47 34.5 79.5t82 32.5t83 -31.5t35.5 -78.5q0 -51 -38 -81t-81 -30z" />
<glyph unicode="&#xdd;" horiz-adv-x="907" d="M-57 1366h329l193 -500l205 500h293l-379 -788v-578h-299v578zM385 1575l422 223l67 -196l-428 -132z" />
<glyph unicode="&#xde;" d="M129 1366h299v-186h94q96 0 148.5 -3t126 -28t121.5 -74q115 -119 114 -323q0 -244 -143 -355q-102 -80 -354 -80h-107v-317h-299v1366zM522 958h-94v-405h94q94 0 143.5 42t49.5 163q0 70 -18.5 115t-55.5 61t-59.5 20t-59.5 4z" />
<glyph unicode="&#xdf;" horiz-adv-x="1116" d="M20 696v222h111q0 293 168 428q125 100 313 100q109 0 185.5 -34t110.5 -86t46.5 -94t12.5 -81q0 -221 -305 -324q25 -35 124 -77q51 -20 85 -38t80 -50.5t74 -70.5t48.5 -96.5t20.5 -129.5q0 -180 -108.5 -282.5t-274.5 -102.5q-106 0 -226 40l70 191q84 -37 152 -37 q74 0 104.5 41t30.5 94q0 47 -23.5 84t-51.5 57.5t-91 57.5q-111 66 -156 125t-45 135q0 59 37 170q193 27 193 170q0 63 -36 103t-102 40q-82 0 -123 -69q-23 -37 -27.5 -89.5t-4.5 -166.5v-1045h-281v815h-111z" />
<glyph unicode="&#xe0;" horiz-adv-x="976" d="M371 690l-265 27q25 178 168 260q96 55 240 55q193 0 293 -106q66 -66 65 -299v-402q0 -170 17 -225h-260q-14 47 -15 156q-27 -47 -50 -78t-85.5 -64.5t-142.5 -33.5q-113 0 -188.5 68.5t-75.5 207.5q0 197 134 276.5t386 94.5v39q0 45 -2 67.5t-10.5 53t-31 45 t-56.5 14.5q-63 0 -88 -41t-33 -115zM592 434v49q-127 -16 -178.5 -56t-51.5 -134q0 -127 95 -127q55 0 92 55q43 63 43 213zM670 1202l-84 -84l-369 232l113 168z" />
<glyph unicode="&#xe1;" horiz-adv-x="976" d="M371 690l-265 27q25 178 168 260q96 55 240 55q193 0 293 -106q66 -66 65 -299v-402q0 -170 17 -225h-260q-14 47 -15 156q-27 -47 -50 -78t-85.5 -64.5t-142.5 -33.5q-113 0 -188.5 68.5t-75.5 207.5q0 197 134 276.5t386 94.5v39q0 45 -2 67.5t-10.5 53t-31 45 t-56.5 14.5q-63 0 -88 -41t-33 -115zM592 434v49q-127 -16 -178.5 -56t-51.5 -134q0 -127 95 -127q55 0 92 55q43 63 43 213zM391 1202l340 316l113 -168l-369 -232z" />
<glyph unicode="&#xe2;" horiz-adv-x="976" d="M371 690l-265 27q25 178 168 260q96 55 240 55q193 0 293 -106q66 -66 65 -299v-402q0 -170 17 -225h-260q-14 47 -15 156q-27 -47 -50 -78t-85.5 -64.5t-142.5 -33.5q-113 0 -188.5 68.5t-75.5 207.5q0 197 134 276.5t386 94.5v39q0 45 -2 67.5t-10.5 53t-31 45 t-56.5 14.5q-63 0 -88 -41t-33 -115zM592 434v49q-127 -16 -178.5 -56t-51.5 -134q0 -127 95 -127q55 0 92 55q43 63 43 213zM88 1133l401 313l402 -313h-219l-183 116l-182 -116h-219z" />
<glyph unicode="&#xe3;" horiz-adv-x="976" d="M371 690l-265 27q25 178 168 260q96 55 240 55q193 0 293 -106q66 -66 65 -299v-402q0 -170 17 -225h-260q-14 47 -15 156q-27 -47 -50 -78t-85.5 -64.5t-142.5 -33.5q-113 0 -188.5 68.5t-75.5 207.5q0 197 134 276.5t386 94.5v39q0 45 -2 67.5t-10.5 53t-31 45 t-56.5 14.5q-63 0 -88 -41t-33 -115zM592 434v49q-127 -16 -178.5 -56t-51.5 -134q0 -127 95 -127q55 0 92 55q43 63 43 213zM729 1386l90 -67q-104 -154 -229 -154q-45 0 -129 38t-119 38q-27 0 -45 -13.5t-49 -49.5l-88 65q115 143 219 143q47 0 168 -49q55 -25 86 -24 q43 -1 96 73z" />
<glyph unicode="&#xe4;" horiz-adv-x="976" d="M371 690l-265 27q25 178 168 260q96 55 240 55q193 0 293 -106q66 -66 65 -299v-402q0 -170 17 -225h-260q-14 47 -15 156q-27 -47 -50 -78t-85.5 -64.5t-142.5 -33.5q-113 0 -188.5 68.5t-75.5 207.5q0 197 134 276.5t386 94.5v39q0 45 -2 67.5t-10.5 53t-31 45 t-56.5 14.5q-63 0 -88 -41t-33 -115zM592 434v49q-127 -16 -178.5 -56t-51.5 -134q0 -127 95 -127q55 0 92 55q43 63 43 213zM319.5 1163q-40.5 0 -77.5 29t-37 78q0 45 33.5 76.5t81 31.5t81 -31.5t33.5 -76.5q0 -49 -37 -78t-77.5 -29zM657 1163q-41 0 -77.5 29t-36.5 78 q0 45 33.5 76.5t81 31.5t81 -31.5t33.5 -76.5q0 -49 -37 -78t-78 -29z" />
<glyph unicode="&#xe5;" horiz-adv-x="976" d="M371 690l-265 27q25 178 168 260q96 55 240 55q193 0 293 -106q66 -66 65 -299v-402q0 -170 17 -225h-260q-14 47 -15 156q-27 -47 -50 -78t-85.5 -64.5t-142.5 -33.5q-113 0 -188.5 68.5t-75.5 207.5q0 197 134 276.5t386 94.5v39q0 45 -2 67.5t-10.5 53t-31 45 t-56.5 14.5q-63 0 -88 -41t-33 -115zM592 434v49q-127 -16 -178.5 -56t-51.5 -134q0 -127 95 -127q55 0 92 55q43 63 43 213zM489.5 1108q-69.5 0 -131 52t-61.5 140q0 86 58.5 141.5t134 55.5t134 -55.5t58.5 -141.5q0 -88 -61.5 -140t-131 -52zM489.5 1221q26.5 0 51 22.5 t24.5 59.5q0 35 -23.5 58t-52 23t-52 -23.5t-23.5 -60.5q0 -35 24.5 -57t51 -22z" />
<glyph unicode="&#xe6;" horiz-adv-x="1429" d="M1370 459h-522q-12 -285 133 -285q41 0 68.5 16.5t42 48t19.5 52t9 53.5l242 -18q-10 -51 -19.5 -83t-37 -88.5t-64.5 -89t-104.5 -59t-155.5 -26.5q-57 0 -105.5 14t-76 29.5t-53 45t-33.5 43l-23 40.5q-104 -172 -319 -172q-86 0 -147.5 27.5t-92.5 72.5t-44 90t-13 94 q0 90 46 177t150 128q84 33 303 60q4 45 2 84t-10 68.5t-32.5 47t-65.5 17.5q-61 0 -89 -40t-34 -124l-246 27q51 324 385 323q170 0 242 -104q29 29 50.5 46t77.5 37.5t124 20.5q244 0 342 -221q51 -119 51 -352zM846 621h260q-4 225 -129 225q-33 0 -57.5 -17.5t-37 -39 t-21.5 -58.5t-11 -56t-4 -54zM573 483q-59 -10 -85.5 -16t-64.5 -25.5t-53.5 -54.5t-15.5 -90q0 -131 95 -131q136 0 124 317z" />
<glyph unicode="&#xe7;" horiz-adv-x="907" d="M858 639l-262 -10q-8 106 -33.5 147t-77.5 41q-68 0 -104.5 -66.5t-36.5 -232.5q0 -66 5 -114t18.5 -97t42 -74.5t71.5 -25.5q61 0 85 48t30 138l262 -14q-12 -117 -46 -196t-87 -118.5t-101.5 -57t-115.5 -27.5l-33 -80q70 6 116 -13.5t62.5 -54.5t20.5 -53.5t4 -36.5 q0 -70 -52.5 -120t-154.5 -50q-98 0 -219 70l33 90q100 -55 161 -56q72 0 72 62q0 39 -33.5 62.5t-83.5 23.5q-33 0 -67 -6l59 166q-332 53 -332 520q0 109 21.5 199t67 166.5t129 119.5t198.5 43q176 0 273 -104q43 -47 67.5 -103.5t30.5 -92.5t10 -93z" />
<glyph unicode="&#xe8;" horiz-adv-x="942" d="M883 459h-531v-82q0 -41 7.5 -78t19.5 -64.5t39.5 -44t68.5 -16.5q43 0 72 16.5t43 48t19.5 53t9.5 56.5l252 -16q-10 -45 -18.5 -75t-38 -88t-68.5 -94t-112 -65.5t-165 -29.5q-147 0 -244.5 73.5t-136.5 184t-39 254.5q0 211 76 348q51 94 143.5 143t198.5 49 q121 0 206 -54t124 -130q74 -141 74 -389zM354 621h262q8 225 -131 225q-37 0 -62.5 -18.5t-37.5 -39t-19.5 -58.5t-9.5 -56t-2 -53zM590 1202l-84 -84l-369 232l113 168z" />
<glyph unicode="&#xe9;" horiz-adv-x="942" d="M883 459h-531v-82q0 -41 7.5 -78t19.5 -64.5t39.5 -44t68.5 -16.5q43 0 72 16.5t43 48t19.5 53t9.5 56.5l252 -16q-10 -45 -18.5 -75t-38 -88t-68.5 -94t-112 -65.5t-165 -29.5q-147 0 -244.5 73.5t-136.5 184t-39 254.5q0 211 76 348q51 94 143.5 143t198.5 49 q121 0 206 -54t124 -130q74 -141 74 -389zM354 621h262q8 225 -131 225q-37 0 -62.5 -18.5t-37.5 -39t-19.5 -58.5t-9.5 -56t-2 -53zM373 1202l340 316l112 -168l-368 -232z" />
<glyph unicode="&#xea;" horiz-adv-x="942" d="M883 459h-531v-82q0 -41 7.5 -78t19.5 -64.5t39.5 -44t68.5 -16.5q43 0 72 16.5t43 48t19.5 53t9.5 56.5l252 -16q-10 -45 -18.5 -75t-38 -88t-68.5 -94t-112 -65.5t-165 -29.5q-147 0 -244.5 73.5t-136.5 184t-39 254.5q0 211 76 348q51 94 143.5 143t198.5 49 q121 0 206 -54t124 -130q74 -141 74 -389zM354 621h262q8 225 -131 225q-37 0 -62.5 -18.5t-37.5 -39t-19.5 -58.5t-9.5 -56t-2 -53zM70 1133l401 313l401 -313h-219l-182 116l-182 -116h-219z" />
<glyph unicode="&#xeb;" horiz-adv-x="942" d="M883 459h-531v-82q0 -41 7.5 -78t19.5 -64.5t39.5 -44t68.5 -16.5q43 0 72 16.5t43 48t19.5 53t9.5 56.5l252 -16q-10 -45 -18.5 -75t-38 -88t-68.5 -94t-112 -65.5t-165 -29.5q-147 0 -244.5 73.5t-136.5 184t-39 254.5q0 211 76 348q51 94 143.5 143t198.5 49 q121 0 206 -54t124 -130q74 -141 74 -389zM354 621h262q8 225 -131 225q-37 0 -62.5 -18.5t-37.5 -39t-19.5 -58.5t-9.5 -56t-2 -53zM301 1163q-41 0 -78 29t-37 78q0 45 34 76.5t81 31.5t81 -31.5t34 -76.5q0 -49 -37 -78t-78 -29zM639 1163q-41 0 -78 29t-37 78 q0 45 34 76.5t81 31.5t81 -31.5t34 -76.5q0 -49 -37 -78t-78 -29z" />
<glyph unicode="&#xec;" horiz-adv-x="487" d="M104 1010h281v-1010h-281v1010zM383 1202l-84 -84l-369 232l113 168z" />
<glyph unicode="&#xed;" horiz-adv-x="487" d="M104 1010h281v-1010h-281v1010zM145 1202l340 316l113 -168l-369 -232z" />
<glyph unicode="&#xee;" horiz-adv-x="487" d="M104 1010h281v-1010h-281v1010zM-158 1133l402 313l401 -313h-219l-182 116l-183 -116h-219z" />
<glyph unicode="&#xef;" horiz-adv-x="487" d="M104 1010h281v-1010h-281v1010zM74 1163q-41 0 -78 29t-37 78q0 45 34 76.5t81 31.5t80.5 -31.5t33.5 -76.5q0 -49 -36.5 -78t-77.5 -29zM412 1163q-41 0 -78 29t-37 78q0 45 34 76.5t81 31.5t80.5 -31.5t33.5 -76.5q0 -49 -36.5 -78t-77.5 -29z" />
<glyph unicode="&#xf0;" horiz-adv-x="942" d="M350 504q0 -193 28 -260.5t93.5 -67.5t92 67.5t26.5 262.5q0 190 -26.5 259t-94.5 69t-93.5 -72t-25.5 -258zM887 1366l-234 -111q227 -436 228 -768q0 -266 -127 -403q-96 -104 -279 -104q-197 0 -289 104q-127 143 -127 422q0 133 29 234.5t68 153.5t91 85t88 41t68 8 q66 0 134 -45q-70 160 -80 178l-224 -106l-67 139l215 102q-10 23 -49 88l196 95l50 -90l241 114z" />
<glyph unicode="&#xf1;" horiz-adv-x="976" d="M104 1010h267v-138q37 78 91 119t161 41q154 0 223 -106q41 -63 41 -262v-664h-281v664q0 78 -17.5 113.5t-78.5 35.5q-45 0 -71.5 -15.5t-38 -52t-13.5 -65.5t-2 -88v-592h-281v1010zM729 1386l90 -67q-104 -154 -229 -154q-45 0 -129 38t-119 38q-27 0 -45 -13.5 t-49 -49.5l-88 65q115 143 219 143q47 0 168 -49q55 -25 86 -24q43 -1 96 73z" />
<glyph unicode="&#xf2;" horiz-adv-x="942" d="M471 1032q410 0 410 -526t-412 -526q-410 0 -410 526t412 526zM471 836h-2q-68 0 -93.5 -72t-25.5 -258q0 -195 28 -262.5t93.5 -67.5t92 67.5t26.5 262.5q0 190 -26.5 260t-92.5 70zM569 1202l-84 -84l-368 232l112 168z" />
<glyph unicode="&#xf3;" horiz-adv-x="942" d="M471 1032q410 0 410 -526t-412 -526q-410 0 -410 526t412 526zM471 836h-2q-68 0 -93.5 -72t-25.5 -258q0 -195 28 -262.5t93.5 -67.5t92 67.5t26.5 262.5q0 190 -26.5 260t-92.5 70zM373 1202l340 316l112 -168l-368 -232z" />
<glyph unicode="&#xf4;" horiz-adv-x="942" d="M471 1032q410 0 410 -526t-412 -526q-410 0 -410 526t412 526zM471 836h-2q-68 0 -93.5 -72t-25.5 -258q0 -195 28 -262.5t93.5 -67.5t92 67.5t26.5 262.5q0 190 -26.5 260t-92.5 70zM70 1133l401 313l401 -313h-219l-182 116l-182 -116h-219z" />
<glyph unicode="&#xf5;" horiz-adv-x="942" d="M471 1032q410 0 410 -526t-412 -526q-410 0 -410 526t412 526zM471 836h-2q-68 0 -93.5 -72t-25.5 -258q0 -195 28 -262.5t93.5 -67.5t92 67.5t26.5 262.5q0 190 -26.5 260t-92.5 70zM711 1386l90 -67q-104 -154 -230 -154q-45 0 -129 38t-118 38q-27 0 -45.5 -13.5 t-49.5 -49.5l-88 65q115 143 219 143q47 0 168 -49q55 -25 86 -24q44 -1 97 73z" />
<glyph unicode="&#xf6;" horiz-adv-x="942" d="M471 1032q410 0 410 -526t-412 -526q-410 0 -410 526t412 526zM471 836h-2q-68 0 -93.5 -72t-25.5 -258q0 -195 28 -262.5t93.5 -67.5t92 67.5t26.5 262.5q0 190 -26.5 260t-92.5 70zM301 1163q-41 0 -78 29t-37 78q0 45 34 76.5t81 31.5t81 -31.5t34 -76.5 q0 -49 -37 -78t-78 -29zM639 1163q-41 0 -78 29t-37 78q0 45 34 76.5t81 31.5t81 -31.5t34 -76.5q0 -49 -37 -78t-78 -29z" />
<glyph unicode="&#xf7;" d="M940 575h-836v218h836v-218zM643 887h-242v270h242v-270zM643 211h-242v270h242v-270z" />
<glyph unicode="&#xf8;" horiz-adv-x="942" d="M723 1116h133l-96 -192q123 -141 123 -418q0 -526 -412 -526q-88 0 -180 30l-64 -127h-133l99 195q-37 41 -58.5 73.5t-48.5 130t-27 224.5q0 526 410 526q109 0 193 -37zM322 305l241 522q-49 23 -88 23q-96 0 -130 -75t-34 -283q1 -99 11 -187zM625 682l-236 -506 q37 -14 82 -14q90 0 125 73.5t35 284.5q0 58 -6 162z" />
<glyph unicode="&#xf9;" horiz-adv-x="976" d="M90 1010h281v-650q0 -47 2 -69.5t10 -48t28.5 -35.5t55.5 -10q88 0 106.5 57t18.5 240v516h280v-1010h-264v139q-25 -41 -40 -62.5t-45.5 -48t-72.5 -37.5t-102 -11q-53 0 -95 12t-68.5 28.5t-46 49t-29 57.5t-13.5 72t-5 73.5t-1 79.5v658zM565 1202l-84 -84l-368 232 l112 168z" />
<glyph unicode="&#xfa;" horiz-adv-x="976" d="M90 1010h281v-650q0 -47 2 -69.5t10 -48t28.5 -35.5t55.5 -10q88 0 106.5 57t18.5 240v516h280v-1010h-264v139q-25 -41 -40 -62.5t-45.5 -48t-72.5 -37.5t-102 -11q-53 0 -95 12t-68.5 28.5t-46 49t-29 57.5t-13.5 72t-5 73.5t-1 79.5v658zM391 1202l340 316l113 -168 l-369 -232z" />
<glyph unicode="&#xfb;" horiz-adv-x="976" d="M90 1010h281v-650q0 -47 2 -69.5t10 -48t28.5 -35.5t55.5 -10q88 0 106.5 57t18.5 240v516h280v-1010h-264v139q-25 -41 -40 -62.5t-45.5 -48t-72.5 -37.5t-102 -11q-53 0 -95 12t-68.5 28.5t-46 49t-29 57.5t-13.5 72t-5 73.5t-1 79.5v658zM88 1133l401 313l402 -313 h-219l-183 116l-182 -116h-219z" />
<glyph unicode="&#xfc;" horiz-adv-x="976" d="M90 1010h281v-650q0 -47 2 -69.5t10 -48t28.5 -35.5t55.5 -10q88 0 106.5 57t18.5 240v516h280v-1010h-264v139q-25 -41 -40 -62.5t-45.5 -48t-72.5 -37.5t-102 -11q-53 0 -95 12t-68.5 28.5t-46 49t-29 57.5t-13.5 72t-5 73.5t-1 79.5v658zM319.5 1163q-40.5 0 -77.5 29 t-37 78q0 45 33.5 76.5t81 31.5t81 -31.5t33.5 -76.5q0 -49 -37 -78t-77.5 -29zM657 1163q-41 0 -77.5 29t-36.5 78q0 45 33.5 76.5t81 31.5t81 -31.5t33.5 -76.5q0 -49 -37 -78t-78 -29z" />
<glyph unicode="&#xfd;" horiz-adv-x="733" d="M-27 1010h281l137 -619l131 619h242l-303 -1028l-35 -111t-40 -90t-57.5 -76.5t-78.5 -43t-115 -19.5q-51 0 -121 16v221q39 -6 80 -6q82 0 112 26.5t56 118.5zM268 1202l340 316l113 -168l-369 -232z" />
<glyph unicode="&#xfe;" horiz-adv-x="976" d="M104 1366h277v-483l30 42q11 15 39.5 42.5t65.5 42t82 14.5q133 0 225 -124t92 -380q0 -55 -3 -105t-22.5 -134t-53 -144.5t-102 -105.5t-161.5 -45q-106 0 -188 88l-4 -416h-277v1708zM381 604v-192q0 -55 1 -81t7 -62t17.5 -51t35 -26.5t58.5 -11.5q80 0 102.5 80 t22.5 266q0 166 -23.5 239t-89.5 73t-104 -74q-27 -45 -27 -160z" />
<glyph unicode="&#xff;" horiz-adv-x="733" d="M-27 1010h281l137 -619l131 619h242l-303 -1028l-35 -111t-40 -90t-57.5 -76.5t-78.5 -43t-115 -19.5q-51 0 -121 16v221q39 -6 80 -6q82 0 112 26.5t56 118.5zM197 1163q-41 0 -78 29t-37 78q0 45 34 76.5t81 31.5t80.5 -31.5t33.5 -76.5q0 -49 -36.5 -78t-77.5 -29z M534.5 1163q-40.5 0 -77.5 29t-37 78q0 45 33.5 76.5t81 31.5t81 -31.5t33.5 -76.5q0 -49 -37 -78t-77.5 -29z" />
<glyph unicode="&#x152;" horiz-adv-x="1605" d="M1587 1366v-236h-536v-315h417v-235h-417v-336h536v-244h-813q-29 -6 -108 -16q-57 -4 -72 -4q-231 0 -358 147q-74 84 -115 232.5t-41 295.5q0 225 61 418q53 158 179 235.5t286 77.5q66 0 185 -20h796zM762 274v816q-68 53 -152 53q-102 0 -143 -72q-72 -117 -72 -412 q0 -436 219 -436q93 0 148 51z" />
<glyph unicode="&#x153;" horiz-adv-x="1466" d="M1405 459h-537q-2 -68 1 -104t14.5 -85t43 -72.5t83.5 -23.5q55 0 89 33t41 62.5t13 78.5l252 -16q-8 -41 -17.5 -71t-38 -88t-67.5 -95t-110.5 -67.5t-161.5 -30.5q-74 0 -134.5 20t-85 37.5t-59.5 50.5q-31 -33 -53.5 -50.5t-80.5 -37.5t-136 -20q-401 0 -401.5 526 t403.5 526q178 0 280 -117q104 117 258 117q123 0 207 -55t123 -129q35 -66 52.5 -140.5t19.5 -120.5t2 -128zM471 836q-70 0 -95.5 -72t-25.5 -258q0 -195 28 -262.5t93.5 -67.5t92 66.5t26.5 263.5q0 190 -26.5 260t-92.5 70zM870 621h269q8 225 -131 225 q-138 0 -138 -225z" />
<glyph unicode="&#x178;" horiz-adv-x="907" d="M-57 1366h329l193 -500l205 500h293l-379 -788v-578h-299v578zM297 1495q-43 0 -81 29.5t-38 81.5q0 47 36 78.5t83 31.5t82 -32.5t35 -79.5q0 -49 -38 -79t-79 -30zM643 1495q-41 0 -79 29.5t-38 79.5q0 47 35 79.5t82 32.5t83 -31.5t36 -78.5q0 -51 -38 -81t-81 -30z " />
<glyph unicode="&#x2c6;" horiz-adv-x="942" d="M70 1133l401 313l401 -313h-219l-182 116l-182 -116h-219z" />
<glyph unicode="&#x2dc;" horiz-adv-x="942" d="M711 1386l90 -67q-104 -154 -230 -154q-45 0 -129 38t-118 38q-27 0 -45.5 -13.5t-49.5 -49.5l-88 65q115 143 219 143q47 0 168 -49q55 -25 86 -24q44 -1 97 73z" />
<glyph unicode="&#x2000;" horiz-adv-x="923" />
<glyph unicode="&#x2001;" horiz-adv-x="1849" />
<glyph unicode="&#x2002;" horiz-adv-x="923" />
<glyph unicode="&#x2003;" horiz-adv-x="1849" />
<glyph unicode="&#x2004;" horiz-adv-x="616" />
<glyph unicode="&#x2005;" horiz-adv-x="460" />
<glyph unicode="&#x2006;" horiz-adv-x="307" />
<glyph unicode="&#x2007;" horiz-adv-x="307" />
<glyph unicode="&#x2008;" horiz-adv-x="229" />
<glyph unicode="&#x2009;" horiz-adv-x="368" />
<glyph unicode="&#x200a;" horiz-adv-x="102" />
<glyph unicode="&#x2010;" horiz-adv-x="559" d="M76 629h407v-221h-407v221z" />
<glyph unicode="&#x2011;" horiz-adv-x="559" d="M76 629h407v-221h-407v221z" />
<glyph unicode="&#x2012;" horiz-adv-x="559" d="M76 629h407v-221h-407v221z" />
<glyph unicode="&#x2013;" horiz-adv-x="907" d="M82 623h743v-209h-743v209z" />
<glyph unicode="&#x2014;" horiz-adv-x="1359" d="M76 623h1208v-209h-1208v209z" />
<glyph unicode="&#x2018;" horiz-adv-x="489" d="M373 1122v-303h-256v303l145 267h111l-113 -267h113z" />
<glyph unicode="&#x2019;" horiz-adv-x="489" d="M373 1366v-303l-146 -268h-110l112 268h-112v303h256z" />
<glyph unicode="&#x201a;" horiz-adv-x="489" d="M117 303h256v-303l-146 -268h-110l112 268h-112v303z" />
<glyph unicode="&#x201c;" horiz-adv-x="872" d="M739 1122v-303h-256v303l146 267h110l-112 -267h112zM389 1122v-303h-256v303l146 267h110l-113 -267h113z" />
<glyph unicode="&#x201d;" horiz-adv-x="872" d="M389 1366v-303l-145 -268h-111l113 268h-113v303h256zM739 1366v-303l-145 -268h-111l113 268h-113v303h256z" />
<glyph unicode="&#x201e;" horiz-adv-x="872" d="M133 303h256v-303l-145 -266h-111l113 266h-113v303zM483 303h256v-303l-145 -266h-111l113 266h-113v303z" />
<glyph unicode="&#x2022;" horiz-adv-x="296" d="M0 862h297v-319h-297v319z" />
<glyph unicode="&#x2026;" horiz-adv-x="1570" d="M123 303h278v-303h-278v303zM647 303h279v-303h-279v303zM1171 303h279v-303h-279v303z" />
<glyph unicode="&#x202f;" horiz-adv-x="368" />
<glyph unicode="&#x2039;" horiz-adv-x="559" d="M459 166h-148l-211 358l211 359h148l-125 -359z" />
<glyph unicode="&#x203a;" horiz-adv-x="559" d="M100 883h148l211 -359l-211 -358h-148l125 358z" />
<glyph unicode="&#x205f;" horiz-adv-x="460" />
<glyph unicode="&#x20ac;" d="M1038 393q-43 -221 -151.5 -317t-251.5 -96q-201 0 -310.5 118.5t-131.5 386.5h-156l24 150h123v45v57h-147l24 150h136q63 500 460 499q164 0 263.5 -104t113.5 -297l-237 -20q-16 104 -45 153t-95 49q-72 0 -106.5 -64.5t-44.5 -215.5h278l-24 -150h-260v-102h241 l-24 -150h-213q8 -162 41 -224t100 -62q57 0 93 48t53 163z" />
<glyph unicode="&#x2122;" horiz-adv-x="1501" d="M539 1366v-145h-168v-633h-181v633h-163v145h512zM600 588v778h268l113 -477l125 477h262v-778h-170v647l-168 -647h-129l-153 647v-647h-148z" />
<glyph unicode="&#xe000;" horiz-adv-x="1010" d="M0 1010h1010v-1010h-1010v1010z" />
<glyph unicode="&#xfb01;" horiz-adv-x="1081" d="M422 1010h178v-222h-178v-788h-270v788h-115v222h115q4 150 22.5 221.5t85.5 124.5q82 63 221 63q49 0 115 -8v-219q-66 6 -101.5 0t-51 -35t-18.5 -55t-3 -92zM696 1010h281v-1010h-281v1010zM979 1096h-285v278h285v-278z" />
<glyph unicode="&#xfb02;" horiz-adv-x="1081" d="M422 1010h178v-222h-178v-788h-270v788h-115v222h115q4 150 22.5 221.5t85.5 124.5q82 63 221 63q49 0 115 -8v-221q-66 6 -101.5 0t-51 -34t-18.5 -55.5t-3 -90.5zM696 1366h281v-1366h-281v1366z" />
<glyph unicode="&#xfb03;" horiz-adv-x="1675" d="M1292 1010h281v-1010h-281v1010zM1575 1096h-285v278h285v-278zM1016 1010h178v-222h-178v-788h-270v788h-115v222h115q4 150 22.5 221.5t85.5 124.5q78 63 217 63q41 0 133 -10v-219q-37 4 -61 4q-86 0 -106.5 -35.5t-20.5 -148.5zM422 1010h178v-222h-178v-788h-270 v788h-115v222h115q4 150 22.5 221.5t85.5 124.5q78 63 217 63q41 0 133 -10v-219q-37 4 -61 4q-86 0 -106.5 -35.5t-20.5 -148.5z" />
<glyph unicode="&#xfb04;" horiz-adv-x="1677" d="M1292 1366h281v-1366h-281v1366zM1016 1010h178v-222h-178v-788h-270v788h-115v222h115q4 150 22.5 221.5t85.5 124.5q78 63 217 63q41 0 133 -10v-219q-37 4 -61 4q-86 0 -106.5 -35.5t-20.5 -148.5zM422 1010h178v-222h-178v-788h-270v788h-115v222h115 q4 150 22.5 221.5t85.5 124.5q78 63 217 63q41 0 133 -10v-219q-37 4 -61 4q-86 0 -106.5 -35.5t-20.5 -148.5z" />
</font>
</defs>
</svg>
