<?xml version="1.0" encoding="utf-8"?>
<!-- Generator: Adobe Illustrator 16.0.1, SVG Export Plug-In . SVG Version: 6.00 Build 0)  -->
<!DOCTYPE svg PUBLIC "-//W3C//DTD SVG 1.1//EN" "http://www.w3.org/Graphics/SVG/1.1/DTD/svg11.dtd">
<svg version="1.1" id="Calque_1" xmlns="http://www.w3.org/2000/svg" xmlns:xlink="http://www.w3.org/1999/xlink" x="0px" y="0px"
	 width="160px" height="160px" viewBox="0 0 160 160" enable-background="new 0 0 160 160" xml:space="preserve">
<g>
	<path fill="#BB1622" d="M24.5,111.501c-3.86,0-7-3.141-7-7c0-3.86,3.14-7.001,7-7.001s7,3.141,7,7.001
		C31.5,108.36,28.36,111.501,24.5,111.501z"/>
	<g>
		<path fill="#BB1622" d="M24.5,98c3.59,0,6.5,2.911,6.5,6.501c0,3.589-2.91,6.5-6.5,6.5s-6.5-2.911-6.5-6.5
			C18,100.911,20.91,98,24.5,98 M24.5,97c-4.136,0-7.5,3.365-7.5,7.501s3.364,7.5,7.5,7.5s7.5-3.364,7.5-7.5S28.636,97,24.5,97
			L24.5,97z"/>
	</g>
</g>
<g>
	<path fill="#FFFFFF" d="M16,31.5C7.453,31.5,0.5,24.547,0.5,16S7.453,0.5,16,0.5S31.5,7.453,31.5,16S24.547,31.5,16,31.5z"/>
	<path fill="#F2F2F2" d="M16,1c8.271,0,15,6.729,15,15s-6.729,15-15,15S1,24.271,1,16S7.729,1,16,1 M16,0C7.164,0,0,7.164,0,16
		s7.164,16,16,16s16-7.164,16-16S24.836,0,16,0L16,0z"/>
</g>
<g>
	<path fill="#1D2326" d="M23.5,27.5h-6.603L7.5,15.992L16.897,4.5H23.5l-9.397,11.492L23.5,27.5z"/>
</g>
<g>
	<path fill="#FFFFFF" d="M24,79.5C11.042,79.5,0.5,68.958,0.5,56S11.042,32.5,24,32.5S47.5,43.042,47.5,56S36.958,79.5,24,79.5z"/>
	<path fill="#F2F2F2" d="M24,33c12.682,0,23,10.318,23,23S36.682,79,24,79S1,68.682,1,56S11.318,33,24,33 M24,32
		C10.745,32,0,42.745,0,56s10.745,24,24,24s24-10.745,24-24S37.255,32,24,32L24,32z"/>
</g>
<g>
	<path fill="#1D2326" d="M33.25,73.25h-9.905L9.25,55.988L23.345,38.75h9.905L19.155,55.988L33.25,73.25z"/>
</g>
<g>
	<path fill="#FFFFFF" d="M88,79.5c-12.958,0-23.5-10.542-23.5-23.5S75.042,32.5,88,32.5s23.5,10.542,23.5,23.5S100.958,79.5,88,79.5
		z"/>
	<path fill="#F2F2F2" d="M88,33c12.684,0,23,10.318,23,23s-10.316,23-23,23c-12.682,0-23-10.318-23-23S75.318,33,88,33 M88,32
		c-13.255,0-24,10.745-24,24s10.745,24,24,24s24-10.745,24-24S101.255,32,88,32L88,32z"/>
</g>
<g>
	<path fill="#1D2326" d="M92.846,55.988L78.75,38.75h9.904l14.096,17.238L88.654,73.25H78.75L92.846,55.988z"/>
</g>
<g>
	<path fill="#E6E6E6" d="M72.246,4.405L66.75,9.25V5.846L72.246,1l5.504,4.846V9.25L72.246,4.405z"/>
</g>
<g>
	<path fill="#FFFFFF" d="M77.75,17v3.405l-5.504,4.846l-5.496-4.846V17l5.496,4.846L77.75,17z"/>
</g>
<g>
	<path fill="#FFFFFF" d="M48,31.5c-8.547,0-15.5-6.953-15.5-15.5S39.453,0.5,48,0.5S63.5,7.453,63.5,16S56.547,31.5,48,31.5z"/>
	<path fill="#F2F2F2" d="M48,1c8.271,0,15,6.729,15,15s-6.729,15-15,15s-15-6.729-15-15S39.729,1,48,1 M48,0
		c-8.836,0-16,7.164-16,16s7.164,16,16,16s16-7.164,16-16S56.836,0,48,0L48,0z"/>
</g>
<g>
	<path fill="#1D2326" d="M49.897,15.992L40.5,4.5h6.603L56.5,15.992L47.103,27.5H40.5L49.897,15.992z"/>
</g>
<g>
	
		<line fill="none" stroke="#BB1622" stroke-width="2" stroke-linecap="round" stroke-miterlimit="10" x1="8.5" y1="99.5" x2="8.5" y2="109.5"/>
	
		<line fill="none" stroke="#BB1622" stroke-width="2" stroke-linecap="round" stroke-miterlimit="10" x1="13.5" y1="104.5" x2="3.5" y2="104.5"/>
</g>
<g>
	
		<line fill="none" stroke="#FFFFFF" stroke-width="2" stroke-linecap="round" stroke-miterlimit="10" x1="24.5" y1="99.5" x2="24.5" y2="109.5"/>
	
		<line fill="none" stroke="#FFFFFF" stroke-width="2" stroke-linecap="round" stroke-miterlimit="10" x1="29.5" y1="104.5" x2="19.5" y2="104.5"/>
</g>
<g>
	<g>
		<path fill="#888888" d="M8.5,114c3.59,0,6.5,2.911,6.5,6.501c0,3.589-2.91,6.5-6.5,6.5s-6.5-2.911-6.5-6.5
			C2,116.911,4.91,114,8.5,114 M8.5,113c-4.136,0-7.5,3.365-7.5,7.501s3.364,7.5,7.5,7.5s7.5-3.364,7.5-7.5S12.636,113,8.5,113
			L8.5,113z"/>
	</g>
</g>
<line fill="none" stroke="#616161" stroke-width="2" stroke-linecap="round" stroke-miterlimit="10" x1="5.5" y1="120.501" x2="11.5" y2="120.501"/>
<g>
	<g>
		<path fill="#BB1622" d="M24.5,114c3.59,0,6.5,2.911,6.5,6.501c0,3.589-2.91,6.5-6.5,6.5s-6.5-2.911-6.5-6.5
			C18,116.911,20.91,114,24.5,114 M24.5,113c-4.136,0-7.5,3.365-7.5,7.501s3.364,7.5,7.5,7.5s7.5-3.364,7.5-7.5S28.636,113,24.5,113
			L24.5,113z"/>
	</g>
</g>
<line fill="none" stroke="#BB1622" stroke-width="2" stroke-linecap="round" stroke-miterlimit="10" x1="21.5" y1="120.501" x2="27.5" y2="120.501"/>
<rect x="33" y="97" fill="#888888" width="14" height="3"/>
<rect x="33" y="101" fill="#888888" width="14" height="3"/>
<rect x="33" y="105.001" fill="#888888" width="14" height="3"/>
<rect x="33" y="109" fill="#888888" width="14" height="3"/>
</svg>
