<?xml version="1.0" standalone="no"?>
<!DOCTYPE svg PUBLIC "-//W3C//DTD SVG 1.1//EN" "http://www.w3.org/Graphics/SVG/1.1/DTD/svg11.dtd" >
<svg xmlns="http://www.w3.org/2000/svg">
<metadata>
This is a custom SVG webfont generated by Font Squirrel.
Copyright   : Copyright  1987 1992 1998 2002 Adobe Systems Incorporated  All Rights Reserved 1987 1992 1998 2002 Heidelberger Druckmaschinen AG All rights reserved
Designer    : Aldo Novarese A Butti
Foundry URL : httpwwwadobecomtype
</metadata>
<defs>
<font id="EurostileLTStdBoldOblique" horiz-adv-x="1474" >
<font-face units-per-em="2048" ascent="1536" descent="-512" />
<missing-glyph horiz-adv-x="737" />
<glyph unicode=" "  horiz-adv-x="737" />
<glyph unicode="&#x09;" horiz-adv-x="737" />
<glyph unicode="&#xa0;" horiz-adv-x="737" />
<glyph unicode="!" horiz-adv-x="714" d="M193 0l75 356h332l-76 -356h-331zM311 604l183 932h380l-210 -932h-353z" />
<glyph unicode="&#x22;" horiz-adv-x="905" d="M354 1270l56 266h282l-55 -266l-143 -264h-111zM809 1270l55 266h283l-55 -266l-144 -264h-110z" />
<glyph unicode="#" d="M252 369l51 235h232l104 266h-197l52 236h239l170 430h217l-170 -430h207l170 430h215l-170 -430h164l-51 -236h-201l-104 -266h192l-51 -235h-242l-145 -369h-217l145 369h-207l-145 -369h-217l145 369h-186zM752 604h209l108 266h-213z" />
<glyph unicode="$" d="M130 313q1 82 26 193h368q-29 -133 8 -166t166 -33h199q57 0 83 1t62.5 9.5t54 24.5t34 46t26.5 77q18 84 -17.5 111.5t-176.5 39.5l-197 15q-244 16 -353.5 61t-133 138.5t17.5 246.5q59 287 197.5 379t468.5 92l34 168h199l-35 -168q80 -4 130 -9t111.5 -18.5t96.5 -33 t69 -54t46 -81.5t11 -117t-19 -158h-359q20 98 -12.5 125t-140.5 27h-199q-109 0 -159 -27.5t-70 -124.5q-16 -80 14.5 -102.5t153.5 -28.5l194 -18q276 -23 367 -58q154 -59 153 -239q0 -66 -18 -152q-59 -279 -217 -385t-484 -106l-41 -189h-198l41 189q-100 0 -173 7 t-138.5 27.5t-104.5 57.5t-62.5 94t-22.5 139z" />
<glyph unicode="%" horiz-adv-x="1857" d="M268 1044l49 226q41 176 119 227t266 51q66 0 109 -3t82 -13t59.5 -29.5t32.5 -50.5t11 -75t-13 -105l-47 -225q-41 -176 -124 -227.5t-273.5 -51.5t-247 50t-23.5 226zM367 0l1232 1536h246l-1233 -1536h-245zM469 1002.5q-2 -25.5 11.5 -39t30.5 -15.5t62 -2 q84 0 114 20.5t50 110.5l35 170q18 86 -1 104.5t-107 18.5q-80 0 -104.5 -18.5t-43.5 -104.5l-35 -170q-10 -49 -12 -74.5zM1200 264l49 225q41 176 119 227.5t266 51.5q66 0 109 -3t82 -13.5t59.5 -30t32.5 -50t11 -74.5t-13 -105l-47 -226q-41 -176 -124 -227t-273.5 -51 t-247 50t-23.5 226zM1401 222.5q-2 -25.5 11 -39t30.5 -15.5t62.5 -2q84 0 114 20.5t50 110.5l35 170q18 86 -1.5 104.5t-107.5 18.5q-80 0 -104.5 -18.5t-42.5 -104.5l-35 -170q-10 -49 -12 -74.5z" />
<glyph unicode="&#x26;" horiz-adv-x="1585" d="M191.5 326.5q1.5 66.5 19.5 148.5t41.5 145.5t64.5 125t104.5 95t147.5 36.5q-57 63 -69.5 114t8.5 146q53 250 188 330.5t412 80.5q80 0 138.5 -4t115.5 -14t93 -29.5t65.5 -51.5t41 -76t9.5 -105.5t-21 -139.5l-16 -77h-352q31 127 8 159q-25 33 -148 33 q-80 0 -113.5 -26.5t-49.5 -108.5q-16 -78 49 -152l305 -335l43 202h326l-64 -301q-14 -74 -72 -149l138 -154l-230 -219l-114 127q-61 -66 -152.5 -98.5t-154 -36.5t-177.5 -4q-82 0 -141.5 3t-125 10t-110.5 22.5t-88 40t-67.5 61.5t-39 86t-13 115.5zM589 407.5 q1 -20.5 13 -36t18.5 -25.5t31 -16t35.5 -9.5t48 -5.5t51 -2h60q141 0 217 33l-334 352q-47 -4 -75.5 -37.5t-37 -61.5t-18.5 -83q-8 -35 -9 -61.5t0 -47z" />
<glyph unicode="'" horiz-adv-x="450" d="M354 1270l56 266h282l-55 -266l-143 -264h-111z" />
<glyph unicode="(" horiz-adv-x="788" d="M134 -35.5q1 144.5 56 379.5l115 541q66 297 115 397q84 176 274 231q121 35 307 35l-71 -336q-106 0 -149.5 -58t-71.5 -202l-142 -663q-10 -49 -15 -78t-5 -69t12 -61.5t42 -36.5t77 -15l-72 -336q-262 0 -367.5 63.5t-104.5 208z" />
<glyph unicode=")" horiz-adv-x="788" d="M51 -307l72 336q47 0 83 16t57.5 35.5t38.5 60.5t23.5 69t18.5 79l141 663q35 127 15.5 193.5t-125.5 66.5l71 336q117 0 200 -13t137.5 -40t84 -68t41 -93t6 -118.5t-18.5 -144.5t-32 -170q-2 -10 -4 -16l-115 -541q-27 -119 -44 -187.5t-44.5 -148.5t-59.5 -122 t-81 -86t-113.5 -63.5t-150.5 -31.5t-201 -12z" />
<glyph unicode="*" d="M567 1171l103 181l239 -92l58 276h190l-57 -276l284 92l19 -197l-273 -80l107 -219l-174 -115l-111 230l-221 -228l-131 113l207 221z" />
<glyph unicode="+" horiz-adv-x="1228" d="M199 449l49 235h393l84 391h236l-84 -391h395l-49 -235h-396l-88 -408h-235l88 408h-393z" />
<glyph unicode="," horiz-adv-x="737" d="M113 -291l32 154q86 2 123 30.5t54 106.5h-127l73 344h332l-74 -344q-31 -162 -118.5 -227.5t-294.5 -63.5z" />
<glyph unicode="-" horiz-adv-x="557" d="M84 397l72 336h557l-72 -336h-557z" />
<glyph unicode="." horiz-adv-x="737" d="M184 0l76 356h332l-76 -356h-332z" />
<glyph unicode="/" horiz-adv-x="1304" d="M12 -231l1278 1767h281l-1278 -1767h-281z" />
<glyph unicode="0" d="M187 355.5q3 76.5 24 170.5l102 484q27 125 70 219t104.5 151.5t121 93t146.5 51t150.5 19.5t161.5 4q74 0 121 -2t111.5 -9t105.5 -22.5t86 -41t68.5 -66.5t41 -95.5t14.5 -131t-24 -170.5l-102 -484q-27 -125 -70 -219t-104.5 -151.5t-120.5 -93t-146 -51t-150.5 -19.5 t-162.5 -4q-74 0 -121 2t-111.5 9t-105.5 22.5t-86 41t-68.5 66.5t-41 95.5t-14.5 131zM589 439.5q-3 -52.5 26.5 -79t65.5 -30.5t126 -4q74 0 106.5 3t70.5 15t56.5 42t37 78t34.5 128l76 352q20 100 23 152.5t-25.5 79t-64.5 30.5t-126 4q-74 0 -106.5 -3t-71.5 -15 t-57.5 -42t-36.5 -78t-35 -128l-76 -352q-20 -100 -23 -152.5z" />
<glyph unicode="1" d="M332 1073l657 463h479l-325 -1536h-410l250 1174l-475 -363z" />
<glyph unicode="2" d="M127 0l68 319q20 94 39.5 156t55.5 115t76 85t113.5 63.5t154.5 54t214 51.5q211 47 250 69q47 27 67 109q4 14 9 37q25 111 -12.5 141.5t-166.5 28.5q-143 0 -186 -29t-70 -149l-16 -76h-389l16 76q33 154 92.5 253t152.5 152t201.5 72.5t266.5 19.5q84 0 146.5 -4 t126 -16t105.5 -33.5t76.5 -57.5t50 -87.5t15.5 -122t-18 -162.5q-29 -131 -65 -211t-102.5 -134t-144 -85t-217.5 -68q-66 -16 -143.5 -32.5t-112.5 -23.5t-75.5 -20.5t-58 -34t-34 -53t-28.5 -84.5h823l-68 -319h-1212z" />
<glyph unicode="3" d="M190.5 311.5q2.5 65.5 18.5 145.5l18 82h389l-10 -52q-25 -119 21.5 -149.5t173.5 -30.5q139 0 192.5 31t79.5 156q18 84 -16.5 113.5t-186.5 29.5h-98l64 297h98q145 0 184 21.5t58 103.5q23 104 -4 137t-175 33q-68 0 -99.5 -3t-68 -19.5t-55 -53.5t-33.5 -102l-6 -31 h-389l10 53q23 109 58 187.5t87 131t106.5 84t135 47t155.5 20.5t185 5q43 0 77 -1t78 -4t78 -10t74 -17.5t67.5 -26.5t56 -39t45 -53.5t26.5 -68.5t9 -87t-13 -106q-68 -315 -309 -347l-4 -16q250 -10 184 -330q-25 -117 -73 -199.5t-108.5 -132t-148.5 -77t-172 -36.5 t-198 -9q-76 0 -130.5 2t-118 9t-105.5 21.5t-85 37t-67.5 58.5t-41 83t-14 112.5z" />
<glyph unicode="4" d="M137 303l94 438l756 795h604l-198 -936h131l-64 -297h-131l-63 -303h-389l63 303h-803zM522 600h482l133 621h-15z" />
<glyph unicode="5" d="M213 280.5q2 71.5 14 165.5h389q-12 -88 28 -113.5t140 -25.5q63 0 94 2t67 12.5t53.5 32t34 59.5t28.5 97q39 147 10 193.5t-192 46.5q-109 0 -148 -11.5t-65 -62.5h-353l183 860h1110l-62 -297h-758l-63 -295q90 78 149.5 95.5t212.5 17.5q272 0 351.5 -115t21.5 -389 q-39 -182 -94 -294t-150.5 -172t-206 -79.5t-290.5 -19.5q-100 0 -173 7t-138.5 26.5t-102.5 52t-64.5 84t-25.5 123z" />
<glyph unicode="6" d="M210 344.5q3 104.5 38 263.5l82 385q31 143 76 240.5t102 160t145 96.5t185.5 46t240.5 12q63 0 105.5 -1t97.5 -5t91 -12t78 -23.5t67.5 -36t49 -52.5t32 -71.5t8.5 -94t-15 -119.5l-14 -66h-389q23 109 -15 135.5t-163 26.5q-152 0 -204 -34t-85 -179l-51 -244h4 q41 76 93 112t94 42t126 6q86 0 144.5 -3t118 -14.5t95 -31t66.5 -51t41 -78.5t9 -111.5t-19 -150.5q-33 -158 -89.5 -259.5t-147.5 -154.5t-195.5 -71.5t-263.5 -18.5q-158 0 -256.5 15t-168 53t-93 111t-20.5 177.5zM608 477q-23 -109 5 -139.5t155 -30.5q168 0 213 27.5 t72 150.5q20 90 -23 108.5t-196 18.5q-119 0 -163.5 -23.5t-62.5 -111.5z" />
<glyph unicode="7" d="M338 0l774 1192h-739l71 344h1160l-72 -344l-764 -1192h-430z" />
<glyph unicode="8" d="M188 304q0 54 15 120q31 143 123 245.5t231 108.5l2 15q-129 35 -168 117.5t-6 232.5q23 109 74 185.5t111.5 118.5t150.5 65.5t165 29.5t181 6q70 0 121 -2t109.5 -8t99.5 -19.5t81 -34t63.5 -52t38.5 -74.5t15 -101.5t-16 -132.5q-33 -156 -94.5 -221t-210.5 -110 l-2 -15q248 -35 180 -354q-20 -98 -57 -173t-91.5 -121t-111.5 -75.5t-138 -44t-150.5 -18.5t-168.5 -4q-61 0 -108 2t-100.5 7t-93.5 15.5t-82 26.5t-69.5 38.5t-50 55.5t-33 75t-10.5 96zM602 469q-20 -98 21 -130t176 -32q164 0 208 30t66 138q23 106 -11 132t-194 26 q-145 0 -194 -29t-72 -135zM760 1075q-20 -94 16.5 -119.5t157.5 -25.5q135 0 180 27.5t68 132.5q18 86 -11.5 112.5t-171.5 26.5q-129 0 -174 -27t-65 -127z" />
<glyph unicode="9" d="M187 283.5q1 54.5 16 119.5l14 66h389q-23 -109 15 -135.5t163 -26.5q152 0 204 34t83 179l51 244h-4q-31 -57 -63.5 -91t-76.5 -48.5t-76 -17.5t-95 -3q-86 0 -144.5 3t-118 14.5t-96 31t-66.5 51t-41 78.5t-10 113t19 149q35 158 91.5 259.5t147.5 154.5t195.5 71.5 t264.5 18.5q131 0 220 -9t156.5 -36.5t102.5 -69.5t49 -114t6 -165t-37 -226l-82 -385q-31 -143 -74.5 -240.5t-102 -160t-145.5 -96.5t-184.5 -46t-240.5 -12q-63 0 -105.5 1t-97.5 5t-91 12t-79 23.5t-67.5 36t-48 52.5t-33 71.5t-8.5 94zM741 1051q-18 -90 25 -108.5 t197 -18.5q119 0 162.5 23.5t62.5 111.5q23 109 -5 139.5t-155 30.5q-168 0 -215 -27.5t-72 -150.5z" />
<glyph unicode=":" horiz-adv-x="737" d="M184 0l76 356h332l-76 -356h-332zM338 719l76 356h331l-75 -356h-332z" />
<glyph unicode=";" horiz-adv-x="737" d="M113 -291l32 154q86 2 123 30.5t54 106.5h-127l73 344h332l-74 -344q-31 -162 -118.5 -227.5t-294.5 -63.5zM348 719l76 356h332l-76 -356h-332z" />
<glyph unicode="&#x3c;" horiz-adv-x="1228" d="M197 444l53 246l1106 385l-58 -262l-743 -244v-4l639 -243l-55 -263z" />
<glyph unicode="=" horiz-adv-x="1228" d="M147 213l52 236h1024l-52 -236h-1024zM248 684l49 236h1024l-49 -236h-1024z" />
<glyph unicode="&#x3e;" horiz-adv-x="1228" d="M115 59l55 263l745 243v4l-641 244l58 262l942 -385l-53 -246z" />
<glyph unicode="?" horiz-adv-x="1239" d="M326 1090l14 63q23 102 64.5 175t93 116t127 66.5t151.5 30.5t185 7q74 0 127 -3t107 -14t90 -28.5t66.5 -47.5t43 -72t13.5 -99t-15 -131q-41 -188 -118 -266t-269 -156q-70 -27 -98.5 -53.5t-39.5 -73.5l-14 -61h-352l14 61q31 147 80 208.5t201 131.5l82 35 q49 23 73.5 37t50 49t37.5 88q16 78 -15.5 101.5t-121.5 23.5q-94 0 -144 -23.5t-67 -101.5l-14 -63h-352zM397 0l76 356h332l-76 -356h-332z" />
<glyph unicode="@" horiz-adv-x="1556" d="M195 764q70 330 346 557t604 227q172 0 317.5 -81t220 -230.5t37.5 -325.5q-51 -236 -241.5 -416t-397.5 -180q-53 0 -81.5 26t-16.5 75l-2 4q-102 -96 -217 -96q-137 0 -219 106.5t-49 255.5q41 188 187 329.5t331 141.5q162 0 227 -121l41 105h195l-228 -598 q-20 -57 -12 -66q6 -8 23 -8q72 0 158.5 108.5t119.5 266.5q51 244 -73 382t-365 138q-254 0 -449.5 -171t-251.5 -429q-55 -268 80 -430t402 -162q213 0 419 137h203q-301 -322 -678 -321q-334 0 -517 221t-113 555zM750 719q-16 -76 14.5 -128t101.5 -52q92 0 165 67.5 t91 159.5q16 76 -17.5 125t-107.5 49q-84 0 -156.5 -68.5t-90.5 -152.5z" />
<glyph unicode="A" horiz-adv-x="1501" d="M-25 0l787 1536h622l142 -1536h-418l-25 264h-551l-131 -264h-426zM684 563h381l-47 666h-4z" />
<glyph unicode="B" horiz-adv-x="1511" d="M123 0l326 1536h806q82 0 140.5 -6t115 -21.5t87 -43t55.5 -71.5q22 -39 22 -92q0 -7 -1 -14q-3 -61 -15 -145q-35 -162 -102.5 -247t-215.5 -108l-4 -16q109 -6 160 -52t51 -120t-18 -172q-29 -139 -78 -225t-128 -130t-165 -58.5t-221 -14.5h-815zM604 336h309 q104 0 153.5 32.5t68.5 123.5q7 34 6 58q0 43 -20 60q-32 27 -136 27h-317zM729 922h295q109 0 148.5 27.5t60.5 119.5q8 35 8 59q0 28 -10 42q-18 28 -98 30h-345z" />
<glyph unicode="C" horiz-adv-x="1490" d="M168 401q4 76 25 168l83 398q33 150 88.5 255t126 168.5t174 99.5t208 47t251.5 11q100 0 167 -4t135.5 -15t108.5 -33.5t73.5 -59.5t45.5 -90q10 -45 9 -106v-22q-2 -75 -21 -174l-12 -59h-422l13 59q2 15 1 30q0 70 -43 91q-52 27 -175 27q-88 0 -141.5 -13.5 t-88.5 -51t-52 -87t-36 -139.5l-51 -239q-28 -119 -28 -188q0 -67 47 -98q48 -32 169 -32q143 0 205 34t88 159l8 45h422l-8 -45q-18 -84 -30.5 -127t-38 -106.5t-66.5 -113t-100 -90.5q-76 -53 -171.5 -79.5t-157 -29.5t-181.5 -3q-82 0 -135.5 1t-122 7t-111.5 17.5 t-92 32t-76 50t-52.5 73.5t-32.5 100q-5 36 -5 80q1 24 2 52z" />
<glyph unicode="D" horiz-adv-x="1587" d="M106 0l326 1536h778q326 0 444 -137q75 -87 75 -249q0 -93 -25 -210l-70 -322q-68 -326 -224.5 -472t-469.5 -146h-834zM592 356h358q205 0 262 262l70 322q13 63 13 107q0 57 -21 85q-37 48 -150 48h-358z" />
<glyph unicode="E" horiz-adv-x="1388" d="M131 0l326 1536h1108l-70 -336h-698l-62 -280h656l-60 -285h-655l-64 -299h713l-72 -336h-1122z" />
<glyph unicode="F" horiz-adv-x="1261" d="M113 0l325 1536h1090l-70 -336h-680l-65 -301h626l-71 -336h-627l-119 -563h-409z" />
<glyph unicode="G" horiz-adv-x="1552" d="M162 378q2 83 24 189l84 398q33 150 89.5 256t127 169.5t175 99.5t210 47t252.5 11q78 0 117 -1t104.5 -3t98.5 -9t83 -18.5t73.5 -30t54.5 -45t42 -62.5t20 -82q6 -28 6 -60q0 -22 -3 -46q-6 -60 -20 -132h-416q2 16 2 30q0 26 -7 46q-11 31 -28.5 46t-57.5 22t-64.5 8 t-75.5 1q-111 0 -175.5 -15t-104.5 -63.5t-57.5 -98.5t-41.5 -161l-53 -249q-16 -82 -16.5 -136.5t14 -87t52.5 -50t80 -22.5t113 -5q158 0 221.5 51t98.5 209h-283l60 284h698l-57 -268q-33 -160 -74 -263.5t-98.5 -175t-148.5 -108.5t-202.5 -51t-285.5 -14q-111 0 -193 6 t-157.5 21.5t-126 43t-88.5 71.5t-53 104q-14 53 -13 125v19z" />
<glyph unicode="H" horiz-adv-x="1613" d="M131 0l326 1536h409l-123 -578h535l123 578h409l-325 -1536h-410l127 602h-534l-127 -602h-410z" />
<glyph unicode="I" horiz-adv-x="663" d="M127 0l326 1536h409l-325 -1536h-410z" />
<glyph unicode="J" horiz-adv-x="1232" d="M122 296q5 85 34 220l26 127h389l-26 -127q-15 -57 -15 -93q0 -24 7 -40q16 -39 96 -39q90 0 121.5 26.5t48.5 102.5l225 1063h410l-226 -1063q-33 -158 -76.5 -250t-123.5 -146t-182.5 -71.5t-272.5 -17.5q-133 0 -215 14t-136 47t-72 97q-13 50 -13 112q0 19 1 38z" />
<glyph unicode="K" horiz-adv-x="1540" d="M131 0l326 1536h409l-123 -578h123l518 578h496l-700 -754l419 -782h-507l-301 602h-123l-127 -602h-410z" />
<glyph unicode="L" horiz-adv-x="1198" d="M119 0l325 1536h410l-250 -1180h641l-76 -356h-1050z" />
<glyph unicode="M" horiz-adv-x="2148" d="M125 0l326 1536h649l88 -965h14l484 965h665l-326 -1536h-409l291 1178h-15l-639 -1178h-354l-143 1178h-13l-208 -1178h-410z" />
<glyph unicode="N" horiz-adv-x="1783" d="M125 0l326 1536h692l190 -1180h17l225 1180h410l-326 -1536h-698l-185 1180h-16l-225 -1180h-410z" />
<glyph unicode="O" horiz-adv-x="1556" d="M164 371q-1 15 -1 30q0 68 21 150l92 434q37 172 112 286.5t188.5 173t237.5 81t294 22.5q82 0 148.5 -5t132 -16t114.5 -31.5t92 -50.5t70 -74t41 -99q13 -48 13 -110q0 -9 -1 -17q-2 -72 -20 -160l-92 -434q-37 -172 -112 -286.5t-187.5 -173t-236.5 -81t-294 -22.5 q-94 0 -169 6t-147.5 22.5t-121.5 44t-93 70.5t-59.5 101.5t-21.5 138.5zM616 596q-12 -64 -12 -110q0 -72 30 -98q48 -44 218 -44q172 0 239.5 44t102.5 208l74 346q12 57 14 97v13q0 32 -8 56q-10 29 -26.5 45t-50.5 24.5t-69.5 11.5t-95.5 3q-170 0 -236.5 -44 t-105.5 -206z" />
<glyph unicode="P" horiz-adv-x="1456" d="M119 0l325 1536h773q285 0 377 -130q55 -76 55 -212q0 -96 -27 -221q-49 -225 -115.5 -345t-191.5 -177.5t-340 -57.5h-363l-84 -393h-409zM688 750h281q123 4 160.5 39.5t70.5 183.5q15 62 15 103q0 39 -13 60q-27 44 -143 44h-281z" />
<glyph unicode="Q" horiz-adv-x="1630" d="M231 606l68 324q41 186 110.5 309t179 189.5t239.5 93t317 26.5q123 0 213 -11t168 -37.5t125 -72t74 -113.5q27 -66 27 -157v-7q-1 -95 -28 -220l-79 -385q-27 -121 -76 -205l143 -115l-215 -227l-127 121q-78 -57 -186.5 -89t-184 -37t-186.5 -5q-125 0 -216 10 t-169 35.5t-125 71t-74 112.5q-26 65 -25 158q-1 99 27 231zM635 492v-12q0 -33 10 -57q12 -28 28.5 -43t52.5 -23.5t69.5 -10.5t93.5 -2q123 0 186 23l-233 178l209 229l186 -156l53 250q24 110 24 178q0 59 -18 87q-39 59 -229 59t-252.5 -58.5t-105.5 -265.5l-60 -276 q-12 -59 -14 -100z" />
<glyph unicode="R" horiz-adv-x="1519" d="M117 0l325 1536h791q94 -2 161.5 -10t125 -27.5t92.5 -53.5t54 -85q18 -49 19 -115q0 -73 -22 -174q-20 -96 -32.5 -143t-40 -111.5t-64.5 -98.5t-100.5 -67t-153.5 -53l-4 -16q129 -4 187 -74q40 -48 40 -124q0 -35 -8 -75l-66 -309h-409l45 215q11 42 10 75 q0 118 -137 118h-318l-86 -408h-409zM688 764h318q37 0 65.5 5t48 10t35.5 25.5t24.5 30t18.5 47.5t13 52t16 70q10 47 10 79q0 41 -15 61q-28 36 -128 36h-318z" />
<glyph unicode="S" horiz-adv-x="1466" d="M161 349q3 67 21 151h393q-9 -41 -8 -72q0 -54 28 -74q44 -31 202 -30q154 0 210 24.5t74 116.5q9 41 9 68q0 36 -16 47q-28 18 -177 28l-88 6q-270 18 -348 43q-147 45 -170 183q-5 29 -5 64q0 75 21 175q23 109 58.5 188t90 130t110 81.5t141.5 46t159.5 19.5t190.5 4 q70 0 110.5 -1t101 -5t95.5 -11t81 -22.5t69.5 -37t49 -53.5t32.5 -75q6 -38 7 -85v-14q-1 -56 -16 -126l-14 -63h-393q8 39 10 66.5t-9.5 45t-22.5 26.5t-43 13t-55.5 5t-74.5 1q-106 0 -163.5 -16t-76 -41t-28.5 -74q-6 -27 -6 -46t3 -32.5t14 -23.5t19.5 -15.5t30 -9.5 t34.5 -5t44 -3l168 -12q121 -8 197.5 -19.5t140 -32t95.5 -50t49 -77.5q15 -41 15 -92v-19q-3 -62 -24 -152q-39 -190 -86 -267q-121 -197 -496 -229q-88 -8 -190 -8q-80 0 -126 1t-111.5 6t-101.5 14t-82 26.5t-68.5 43t-46 64.5t-27.5 89q-2 29 -3 63q1 25 2 54z" />
<glyph unicode="T" horiz-adv-x="1218" d="M252 1180l76 356h1216l-76 -356h-413l-250 -1180h-410l250 1180h-393z" />
<glyph unicode="U" horiz-adv-x="1579" d="M214 213q-5 35 -5 75q0 96 29 224l217 1024h409l-215 -1016q-6 -33 -8 -57.5t5 -43t14.5 -31.5t28 -21.5t34.5 -12.5t46 -7t52 -3h62q139 0 192 33t82 162l211 997h410l-217 -1024q-63 -299 -234.5 -411.5t-519.5 -112.5q-301 0 -438.5 54t-154.5 171z" />
<glyph unicode="V" horiz-adv-x="1456" d="M293 1536h416l82 -1184h12l588 1184h424l-775 -1536h-639z" />
<glyph unicode="W" horiz-adv-x="2260" d="M307 1536h416l-29 -1184h15l538 1184h426l25 -1184h14l481 1184h412l-666 -1536h-591l-5 963h-16l-428 -963h-586z" />
<glyph unicode="X" horiz-adv-x="1499" d="M-33 0l629 791l-274 745h479l157 -563l398 563h471l-582 -745l289 -791h-477l-180 592l-428 -592h-482z" />
<glyph unicode="Y" horiz-adv-x="1449" d="M293 1536h469l149 -592h15l407 592h475l-772 -997l-114 -539h-410l115 539z" />
<glyph unicode="Z" horiz-adv-x="1349" d="M47 0l74 346l899 821l2 13h-678l76 356h1208l-72 -344l-911 -823l-2 -13h735l-75 -356h-1256z" />
<glyph unicode="[" horiz-adv-x="788" d="M51 -307l395 1855h555l-71 -336h-166l-252 -1183h166l-72 -336h-555z" />
<glyph unicode="\" horiz-adv-x="1310" d="M389 1536h281l528 -1767h-280z" />
<glyph unicode="]" horiz-adv-x="788" d="M51 -307l72 336h166l252 1183h-166l71 336h555l-395 -1855h-555z" />
<glyph unicode="^" horiz-adv-x="1228" d="M211 512l606 1024h246l172 -1024h-266l-97 692h-4l-391 -692h-266z" />
<glyph unicode="_" horiz-adv-x="1024" d="M-55 -256l22 102h1024l-22 -102h-1024z" />
<glyph unicode="`" horiz-adv-x="827" d="M434 1321l152 227l364 -245l-84 -127z" />
<glyph unicode="a" horiz-adv-x="1247" d="M152 322q41 186 151.5 261.5t308.5 75.5q55 0 85 -2t79 -12t75 -36.5t30 -69.5h16l37 170q13 40 13 70q0 28 -11 49q-23 44 -127 44q-74 0 -115 -24.5t-55 -91.5h-352q49 223 217 291q100 41 350 40q98 0 162.5 -5t124 -20t90.5 -43t50 -75q18 -45 19 -107 q0 -68 -22 -165l-143 -672h-353l47 160h-12q-70 -172 -346 -172q-201 0 -281 69q-53 46 -52 147q0 52 14 118zM506 332q-4 -19 -4 -35q0 -18 5 -32q9 -26 35.5 -36t45 -12t47.5 -2q115 0 159 24.5t62 106.5q3 14 3 26q0 40 -33 54q-42 18 -142 18q-76 0 -119 -22t-59 -90z " />
<glyph unicode="b" horiz-adv-x="1255" d="M113 0l325 1536h353l-129 -614h16q59 96 151 135q70 31 183 30q221 0 292 -106q40 -61 40 -167q0 -80 -23 -185l-51 -246q-45 -207 -168 -301t-324 -94q-127 0 -193.5 42t-72.5 156h-16l-31 -186h-352zM561 319q23 -61 154 -61q111 0 154.5 53.5t80.5 227.5q16 78 22 121 q2 16 2 31q0 27 -6 53q-9 40 -42 56.5t-92 16.5q-115 0 -166.5 -51t-87.5 -227q-26 -102 -27 -164q0 -34 8 -56z" />
<glyph unicode="c" horiz-adv-x="1140" d="M148 206q-6 36 -6 80q0 104 36 251q31 147 70 241t108.5 169t180 107.5t272.5 32.5q74 0 126 -3t108.5 -12t91 -27.5t66.5 -49t44 -73.5t12 -106.5t-16 -143.5h-352q9 38 9 65q0 33 -13 49q-29 31 -133 31q-98 0 -141.5 -51t-80.5 -229q-25 -126 -24 -188q0 -31 6 -46 q18 -45 121 -45q115 0 148.5 33t56.5 139h352q-61 -287 -199 -371q-66 -43 -162 -57t-254 -14q-211 0 -308 48t-119 170z" />
<glyph unicode="d" horiz-adv-x="1253" d="M150 383l51 246q53 246 168.5 352t337.5 106q111 0 177 -34.5t87 -130.5h16l129 614h352l-325 -1536h-352l47 186h-17q-53 -115 -143 -159q-80 -39 -205 -39q-203 0 -286 94q-54 61 -53 169q0 59 16 132zM507 382q-1 -12 -1 -23q0 -37 13 -60q17 -29 46 -35t90 -6 q113 0 162 51t88 228q27 104 28 166q0 31 -7 52q-20 62 -152 62q-125 0 -164 -53t-75 -227q-23 -101 -28 -155z" />
<glyph unicode="e" horiz-adv-x="1175" d="M150 216q-6 37 -7 81q0 101 33 240q68 319 197 434.5t446 115.5q305 0 390 -112q47 -63 48 -192q0 -102 -30 -246l-13 -60h-698q-19 -82 -19 -134q0 -37 10 -58q24 -51 130 -52q94 0 141 24t64 101h346q-49 -225 -211 -307q-127 -63 -391 -63q-213 0 -314.5 53 t-121.5 175zM557 672h346q9 45 9 76q0 46 -19 64q-33 30 -133 30q-96 0 -137 -33t-66 -137z" />
<glyph unicode="f" horiz-adv-x="804" d="M182 0l174 817h-141l55 258h142l20 105q33 147 96.5 221t191.5 105q120 30 337 30h28l-55 -268q-35 10 -63 10q-113 0 -142.5 -28.5t-52.5 -135.5l-8 -39h240l-56 -258h-239l-174 -817h-353z" />
<glyph unicode="g" horiz-adv-x="1259" d="M78 -243q2 60 16 147h334q-5 -23 -4 -42q0 -49 31 -67q29 -16 104 -16q115 0 157 31.5t64 142.5l47 223h-12q-53 -94 -141 -137q-78 -39 -188.5 -39t-183.5 27.5t-106.5 71.5t-40.5 119q-3 35 -4 69q0 39 5 75q8 70 30 175q31 145 63 235t90 168t150.5 112.5t227.5 34.5 q125 0 190.5 -43t71.5 -159h12l29 190h352l-219 -1028q-66 -303 -198 -413.5t-439 -110.5q-102 0 -167.5 4t-123 19.5t-86 40t-46.5 67.5q-16 38 -15 91v12zM526 321q23 -50 136 -51q121 0 165.5 57.5t77.5 209.5q21 109 21 170q0 42 -10 61q-24 49 -138 49 q-123 0 -161.5 -47t-77.5 -233q-21 -101 -22 -159q0 -37 9 -57z" />
<glyph unicode="h" horiz-adv-x="1267" d="M117 0l325 1536h353l-140 -662h15q66 125 153 170q80 43 213 43q178 0 244 -85q42 -54 42 -145q0 -51 -13 -114l-158 -743h-352l141 662q6 33 6 58q0 40 -14 61q-23 36 -105 36q-109 0 -159 -56t-74 -169l-125 -592h-352z" />
<glyph unicode="i" horiz-adv-x="526" d="M88 0l229 1075h353l-230 -1075h-352zM356 1266l58 270h352l-57 -270h-353z" />
<glyph unicode="j" horiz-adv-x="495" d="M-106 -322l51 242q59 0 85.5 27.5t35.5 75.5l225 1052h352l-231 -1089q-37 -174 -137.5 -247t-280.5 -73q-61 0 -100 12zM330 1266l57 270h352l-57 -270h-352z" />
<glyph unicode="k" horiz-adv-x="1212" d="M113 0l325 1536h353l-183 -864h62l299 403h387l-414 -516l254 -559h-412l-166 436h-61l-92 -436h-352z" />
<glyph unicode="l" horiz-adv-x="591" d="M121 0l325 1536h353l-326 -1536h-352z" />
<glyph unicode="m" horiz-adv-x="1902" d="M119 0l229 1075h342l-33 -151h15q90 164 329 163q66 0 113 -7t91 -28.5t65 -65.5q15 -31 14 -74q0 -17 -2 -35h16q35 106 132.5 158t211.5 52q188 0 264 -83q49 -55 49 -154q0 -51 -13 -115l-156 -735h-352l133 623q9 68 9 107q0 29 -5 42q-20 45 -105 45q-94 0 -141 -54 t-68 -153l-129 -610h-352l139 651q11 40 12 72q0 27 -8 48q-17 46 -102 46q-102 0 -147 -50t-70 -157l-129 -610h-352z" />
<glyph unicode="n" horiz-adv-x="1267" d="M117 0l229 1075h352l-43 -201h15q66 125 153 170q80 43 213 43q178 0 244 -85q42 -54 42 -145q0 -51 -13 -114l-158 -743h-352l141 662q6 33 6 58q0 40 -14 61q-23 36 -105 36q-109 0 -159 -56t-74 -169l-125 -592h-352z" />
<glyph unicode="o" horiz-adv-x="1214" d="M155 204q-7 37 -8 83q0 103 37 250q47 229 114 341.5t188.5 160.5t351.5 48q117 0 194.5 -9t136 -33.5t86 -61.5t37.5 -102q5 -34 6 -73q0 -35 -5 -73q-9 -80 -33 -198q-49 -229 -116 -342t-188.5 -160t-351.5 -47q-223 0 -324 47t-125 169zM519 309q24 -51 149 -51 q121 0 160.5 49t78.5 230q26 117 26 179q0 31 -6 49q-19 52 -141 52q-125 0 -169 -51t-80 -229q-26 -112 -26 -174q-1 -35 8 -54z" />
<glyph unicode="p" horiz-adv-x="1265" d="M14 -465l328 1540h352l-45 -170h17q53 104 143 146q74 37 203 36q201 0 283 -94q55 -62 55 -173q0 -57 -15 -128l-53 -246q-53 -248 -168 -353t-336 -105q-111 0 -178.5 35.5t-83.5 138.5h-16l-133 -627h-353zM558 415q-2 -16 -2 -31q0 -27 6 -53q9 -40 42 -56.5 t92 -16.5q115 0 165 51t89 228q26 100 27 162q0 34 -8 56q-23 62 -154 62q-111 0 -156 -54t-79 -226q-17 -78 -22 -122z" />
<glyph unicode="q" horiz-adv-x="1267" d="M170 446l53 246q82 395 492 395q125 0 192.5 -39.5t75.5 -142.5h16l29 170h352l-327 -1540h-353l134 627h-17q-63 -102 -153 -142q-68 -33 -183 -32q-221 0 -293 106q-41 61 -41 168q0 79 23 184zM521 415q-2 -16 -2 -31q0 -27 6 -53q9 -40 42 -56.5t92 -16.5 q115 0 165 51t89 228q26 100 27 162q0 34 -8 56q-23 62 -154 62q-111 0 -155.5 -54t-79.5 -226q-17 -78 -22 -122z" />
<glyph unicode="r" horiz-adv-x="1026" d="M111 0l229 1075h342l-35 -157h15q59 92 133 131q76 39 174 38q72 0 116.5 -23.5t65 -58t24.5 -92.5q1 -19 1 -37q0 -36 -5 -68q-6 -48 -20 -118l-18 -84h-318l10 51q15 42 16 82q0 14 -2 27q-7 51 -71 51q-131 0 -168 -172l-137 -645h-352z" />
<glyph unicode="s" horiz-adv-x="1183" d="M131 299q2 18 6 37h352q-4 -21 -4 -38q0 -49 35 -69q31 -14 117 -14q121 0 155.5 15.5t49.5 78.5q5 23 5 41q0 38 -25 49q-36 16 -142 17q-219 0 -327.5 33.5t-132.5 105.5q-12 35 -11 79q0 46 12 101q16 74 43 129.5t55.5 92t76.5 62t87 39t104.5 20.5t110.5 8t125 1 t127 -2t119 -16t108.5 -39.5t58.5 -79.5q12 -30 12 -67q0 -29 -7 -62l-10 -51h-332q1 7 1 13q0 47 -40 67q-25 10 -86 10q-90 0 -132 -10t-52 -23.5t-19 -52.5q-6 -20 -4 -36.5t15.5 -29t51.5 -19.5t103 -9q90 -2 144.5 -5t115 -11.5t93 -22.5t63.5 -37.5t41 -57.5 q11 -37 11 -90q0 -47 -13 -106q-25 -115 -80 -189.5t-142 -110.5t-174 -49t-206 -13q-242 0 -326 26q-140 47 -139 209q-1 35 6 76z" />
<glyph unicode="t" horiz-adv-x="993" d="M203 817l55 258h131l47 228h352l-47 -228h408l-55 -258h-408l-102 -481q-5 -22 -5 -39q0 -20 7 -31q12 -20 59 -20q16 0 30.5 4t24 7t18.5 14.5t14 15.5t11.5 22.5t8.5 22.5t8 26.5t6 26.5l14 57h281l-21 -96q-45 -213 -146 -285.5t-325 -72.5q-47 0 -82.5 2t-74.5 7 t-67 14t-55.5 24.5t-44 38t-26.5 52.5q-9 27 -9 63q0 43 11 98l113 530h-131z" />
<glyph unicode="u" horiz-adv-x="1259" d="M176 340l158 735h352l-137 -641q-13 -43 -13 -78q0 -26 7 -47q16 -51 98 -51q78 0 146.5 41t84.5 115l142 661h352l-229 -1075h-342l55 207h-16q-111 -219 -367 -219q-303 0 -303 243q0 50 12 109z" />
<glyph unicode="v" horiz-adv-x="1085" d="M215 1075h369l14 -839h10l357 839h364l-493 -1075h-553z" />
<glyph unicode="w" horiz-adv-x="1716" d="M197 0l34 1075h338l-61 -839h16l359 839h411l-2 -839h15l305 839h332l-418 -1075h-506l10 766h-12l-309 -766h-512z" />
<glyph unicode="x" horiz-adv-x="1116" d="M-12 0l440 569l-168 506h408l59 -297l193 297h409l-391 -506l190 -569h-413l-78 354l-225 -354h-424z" />
<glyph unicode="y" horiz-adv-x="1091" d="M152 -471l51 244q41 -4 61 -4q100 0 152.5 61t81.5 170h-193l-90 1075h369l26 -874h4l361 874h360l-520 -1169q-90 -215 -206.5 -299t-338.5 -84q-18 0 -37.5 1t-43 3t-37.5 2z" />
<glyph unicode="z" horiz-adv-x="1015" d="M43 0l61 291l623 538h-469l53 246h891l-59 -278l-637 -551h520l-53 -246h-930z" />
<glyph unicode="{" horiz-adv-x="788" d="M154 496l57 270q168 0 188 90l88 420q18 86 77 152.5t115 93t99 26.5h291l-57 -270h-76q-43 0 -69.5 -17.5t-34 -36t-13.5 -50.5l-76 -351q-12 -53 -41.5 -93t-66.5 -59.5t-67.5 -28.5t-61.5 -11v-4q14 -2 22.5 -3t25.5 -4.5t27.5 -7.5t25 -12t23.5 -18.5t18 -26.5 t12.5 -34.5t3.5 -45t-7 -57.5l-73 -350q-16 -39 -4 -72t75 -33h76l-57 -270h-291q-72 0 -136.5 72.5t-37.5 199.5l90 420q8 39 -5 64.5t-45 34t-50 10.5t-45 2z" />
<glyph unicode="|" horiz-adv-x="1083" d="M578 -584v2337h258v-2337h-258z" />
<glyph unicode="}" horiz-adv-x="788" d="M-16 -307l57 270h76q43 0 69.5 17.5t33.5 36t13 51.5l74 350q16 68 46 111.5t70 63t64.5 25t61.5 9.5v4q-29 2 -55.5 11t-55 28.5t-42 59.5t-3.5 93l76 351q16 39 4 71.5t-76 32.5h-75l57 270h291q72 0 135 -72.5t37 -199.5l-88 -420q-20 -90 147 -90l-57 -270 q-166 0 -191 -111l-90 -420q-27 -127 -122 -199.5t-167 -72.5h-290z" />
<glyph unicode="~" horiz-adv-x="1228" d="M186 399q16 76 43 143.5t69 134t106.5 106.5t142.5 40q68 0 129 -47l192 -160q59 -53 109 -53q37 0 68.5 57.5t37.5 114.5h199q-20 -102 -59 -190t-116 -159t-175 -71q-61 0 -139 60l-218 164q-53 39 -94 39q-14 0 -27.5 -11.5t-23.5 -35t-16 -41t-15.5 -49t-13.5 -42.5 h-199z" />
<glyph unicode="&#xa1;" horiz-adv-x="714" d="M70 -465l211 932h352l-182 -932h-381zM346 719l76 356h332l-76 -356h-332z" />
<glyph unicode="&#xa2;" d="M334 416q-2 127 37 317q31 143 64.5 233.5t94 165t156.5 107.5t238 33l32 153h156l-33 -153q231 0 307 -94.5t25 -323.5h-328q10 76 -17.5 111.5t-121.5 35.5q-102 0 -141 -49t-74 -219q-20 -94 -26.5 -138t-8.5 -84t15.5 -53.5t41 -19.5t72.5 -6q100 0 144.5 40 t64.5 142h328q-29 -133 -58.5 -208.5t-86 -136t-144.5 -84t-227 -23.5l-39 -185h-156l39 185q-184 0 -268 63.5t-86 190.5z" />
<glyph unicode="&#xa3;" d="M143 0l70 328q41 0 71.5 15t46 28.5t32 58.5t19.5 58.5l17 76.5h-182l62 297h182l47 221q39 174 108.5 270.5t210 145.5t375.5 49q340 0 433.5 -93t35.5 -357l-16 -72h-402q25 113 -2 145q-27 35 -125 35q-109 0 -153.5 -36.5t-67.5 -145.5l-35 -162h390l-62 -297h-389 q-23 -109 -49.5 -152.5t-95.5 -74.5l-2 -10h845l-69 -328h-1295z" />
<glyph unicode="&#xa4;" d="M276 352l203 170q-59 115 -25.5 246t115.5 197l-135 165l182 148l132 -168q109 72 245 66q141 -6 207 -62l205 168l117 -145l-209 -170q2 -6 12 -35t13 -43.5t7.5 -53t-4.5 -69.5q-6 -35 -18 -67.5t-28.5 -61.5t-29 -47.5t-30.5 -43t-23 -30.5l129 -166l-176 -139 l-131 166l-35 -18q-27 -13 -42 -19t-41.5 -15.5t-55.5 -12.5t-63 -3q-129 8 -197 72l-209 -172zM696 733q-12 -80 34 -134t122 -54q96 0 159.5 62.5t73.5 125.5q25 78 -18 142.5t-131 64.5q-86 0 -158 -64.5t-82 -142.5z" />
<glyph unicode="&#xa5;" d="M133 442l57 271h412l-49 159h-328l58 271h186l-125 393h444l136 -592h14l393 592h451l-295 -393h192l-57 -271h-340l-121 -159h426l-57 -271h-502l-94 -442h-410l94 442h-485z" />
<glyph unicode="&#xa6;" horiz-adv-x="1083" d="M578 408h258v-816h-258v816zM578 760v817h258v-817h-258z" />
<glyph unicode="&#xa7;" d="M76 -161q4 83 28 200h379q-23 -127 16.5 -162t192.5 -35q180 0 238.5 26t73.5 97q6 23 5 41.5t-3 30.5t-15.5 22.5t-20.5 15.5t-32 11l-37 9q-12 3 -47 9l-469 84q-178 33 -218 97.5t1 251.5q16 78 31.5 127t61.5 104t116 74q-41 33 -53.5 89t-7 99t21.5 117 q20 98 54 162.5t108.5 124t212 87t342.5 27.5q68 0 115 -1t105 -6t96 -12t81 -22.5t68.5 -36t49 -51t32 -69.5t8.5 -90.5t-15 -114.5l-18 -86h-379q23 115 -10 141q-33 29 -201 29q-139 0 -185 -22.5t-59 -78.5q-4 -23 -6 -38t5.5 -27t11.5 -18.5t22.5 -12.5t26.5 -8 t38.5 -8t43.5 -8l368 -70q72 -14 113 -24.5t85 -29t62.5 -42t33 -61.5t11 -90t-19.5 -126q-14 -70 -22.5 -99.5t-30 -79.5t-55 -82t-82.5 -54q39 -14 60.5 -41t24.5 -68t-1.5 -78.5t-16.5 -95.5q-23 -100 -49.5 -163.5t-79.5 -122t-136 -90t-213 -50t-314 -18.5 q-125 0 -205 6t-154 24.5t-110.5 53.5t-59 92t-18.5 140zM520 515q0 -13 9.5 -25.5t11.5 -17.5t21.5 -11t22.5 -8t30.5 -7.5t31.5 -5.5l309 -59q61 -12 86 -12q106 0 138 155q16 74 -10.5 102.5t-151.5 53.5l-240 47q-74 18 -110 18q-109 0 -140 -149q-6 -27 -7 -47.5 t-1 -33.5z" />
<glyph unicode="&#xa8;" horiz-adv-x="960" d="M418 1247l45 211h223l-45 -211h-223zM848 1247l45 211h223l-45 -211h-223z" />
<glyph unicode="&#xa9;" horiz-adv-x="1638" d="M202.5 768q69.5 324 346 552t600.5 228t504 -228t110.5 -552t-346 -552t-600 -228t-504 228t-111 552zM381 768q-53 -250 84 -426t389 -176q248 0 463 176t268 426q51 250 -88 426t-387 176q-252 0 -464 -176t-265 -426zM565 774q45 209 193.5 341t353.5 132 q152 0 240 -83t80 -226h-183q2 74 -45 118t-125 44q-125 0 -215 -94.5t-119 -227.5q-27 -125 27.5 -226t175.5 -101q76 0 145.5 48t88.5 122h182q-47 -145 -173 -231.5t-276 -86.5q-203 0 -298 134t-52 337z" />
<glyph unicode="&#xaa;" horiz-adv-x="983" d="M391 1085q25 115 88.5 160t184.5 45q115 0 147 -28q16 -16 20 -41h7l18 92q14 72 3 88t-73 16q-86 0 -100 -69h-213q31 135 129 176q61 25 209 24q43 0 72.5 -1t64.5 -6t54.5 -14t42 -24.5t27.5 -38t11.5 -54.5t-8.5 -75l-96 -450h-213l22 106h-4q-23 -61 -86 -90 q-51 -25 -123 -24q-113 0 -161 47.5t-23 160.5zM601 1050.5q1 -14.5 25.5 -21.5t78.5 -7q59 0 78.5 16.5t27.5 57.5q4 25 -2 39t-26.5 19t-33 6t-38.5 1q-90 0 -107 -74q-4 -22 -3 -36.5z" />
<glyph unicode="&#xab;" horiz-adv-x="1138" d="M213 557l367 498l204 -125l-274 -373l123 -346l-248 -135zM670 557l366 498l205 -125l-274 -373l123 -346l-248 -135z" />
<glyph unicode="&#xac;" horiz-adv-x="1228" d="M248 684l49 236h1024l-127 -598h-236l78 362h-788z" />
<glyph unicode="&#xad;" horiz-adv-x="557" d="M84 397l72 336h557l-72 -336h-557z" />
<glyph unicode="&#xae;" horiz-adv-x="1638" d="M202.5 768q69.5 324 346 552t600.5 228t504 -228t110.5 -552t-346 -552t-600 -228t-504 228t-111 552zM381 768q-53 -250 84 -426t389 -176q248 0 463 176t268 426q51 250 -88 426t-387 176q-252 0 -464 -176t-265 -426zM555 340l180 844h422q166 0 235.5 -51.5 t37.5 -206.5q-25 -113 -93.5 -167t-185.5 -63l129 -356h-201l-114 346h-158l-74 -346h-178zM836 821h247q76 -2 116 24.5t56 102.5q8 35 -3 57.5t-42.5 30.5t-54 10.5t-65.5 2.5h-205z" />
<glyph unicode="&#xaf;" horiz-adv-x="950" d="M420 1253l41 193h643l-41 -193h-643z" />
<glyph unicode="&#xb0;" horiz-adv-x="819" d="M367 1241q25 125 135 216t237 91q125 0 197 -90t45 -217t-136.5 -217t-236.5 -90t-197.5 90t-43.5 217zM508 1241q-14 -70 23.5 -118t107.5 -48q68 0 127 48t74 118q14 68 -25 117t-108 49q-68 0 -127.5 -49t-71.5 -117z" />
<glyph unicode="&#xb1;" horiz-adv-x="1228" d="M102 0l50 236h1024l-50 -236h-1024zM229 598l52 236h393l51 241h236l-52 -241h396l-52 -236h-395l-53 -252h-236l54 252h-394z" />
<glyph unicode="&#xb2;" horiz-adv-x="884" d="M172 618l41 193q33 158 105.5 211t314.5 102q137 29 165.5 45.5t41.5 83.5q14 68 -9.5 86.5t-107.5 16.5q-92 0 -120 -17.5t-42 -89.5l-10 -45h-254l10 45q37 176 143.5 237.5t313.5 61.5q47 0 84 -2t75 -7t64.5 -14t51 -24.5t39 -37t22.5 -50.5t7 -67.5t-11 -88.5 q-33 -150 -98.5 -203t-241.5 -96q-47 -10 -107.5 -21t-81 -16.5t-47 -18.5t-36 -33.5t-17.5 -57.5h534l-40 -193h-789z" />
<glyph unicode="&#xb3;" horiz-adv-x="884" d="M239 805q1 39 11 88l10 49h254l-6 -31q-16 -70 14.5 -89t110.5 -19q90 0 125 18.5t51 93.5q12 51 -11.5 68.5t-121.5 17.5h-64l37 179h64q94 0 119.5 13t35.5 62q14 61 -4 81t-112 20q-57 0 -83 -4t-47.5 -28t-31.5 -75l-4 -18h-254l6 33q16 78 46 131t65.5 82.5t92 46 t107.5 20.5t131 4q88 0 143.5 -6t118 -28.5t86 -76t5.5 -137.5q-41 -188 -197 -206l-4 -11q166 -8 125 -198q-25 -115 -94.5 -177.5t-156.5 -80t-226 -17.5q-43 0 -76 1t-71 6.5t-64.5 13.5t-53 22.5t-42 36t-25.5 49t-9 66.5z" />
<glyph unicode="&#xb4;" horiz-adv-x="827" d="M430 1303l471 245l53 -227l-493 -145z" />
<glyph unicode="&#xb5;" horiz-adv-x="1259" d="M12 -465l328 1540h352l-137 -641q-23 -74 -6.5 -125t98.5 -51q78 0 146.5 41t85.5 115l141 661h352l-229 -1075h-342l55 207h-16q-111 -219 -379 -219l-96 -453h-353z" />
<glyph unicode="&#xb6;" d="M207 969q66 305 212 436t431 131h936l-424 -2001h-246l363 1704h-158l-363 -1704h-245l182 864h-266q-334 0 -415 114t-7 456zM570.5 748.5q27.5 -52.5 185.5 -52.5h202l117 543h-205q-84 0 -131 -11t-77.5 -48t-44 -79t-31.5 -132q-43 -168 -15.5 -220.5z" />
<glyph unicode="&#xb7;" horiz-adv-x="737" d="M285 387l75 356h332l-76 -356h-331z" />
<glyph unicode="&#xb8;" horiz-adv-x="659" d="M100 -252l297 168l56 -168l-318 -106z" />
<glyph unicode="&#xb9;" horiz-adv-x="884" d="M293 1270l424 278h311l-199 -930h-266l152 713l-303 -217z" />
<glyph unicode="&#xba;" horiz-adv-x="983" d="M426 948.5q-47 71.5 2 263.5q41 201 114.5 268.5t278.5 67.5t252 -71.5t-2 -264.5q-31 -139 -65.5 -204.5t-109.5 -98t-218 -32.5q-205 0 -252 71.5zM631.5 1066q13.5 -32 79 -32t94.5 33t53 145q23 115 8.5 147t-80 32t-93 -33t-52.5 -146q-23 -114 -9.5 -146z" />
<glyph unicode="&#xbb;" horiz-adv-x="1138" d="M123 201l276 372l-125 347l248 135l174 -482l-368 -497zM580 201l276 372l-125 347l248 135l174 -482l-369 -497z" />
<glyph unicode="&#xbc;" horiz-adv-x="2211" d="M190 1257l422 279h312l-195 -918h-266l149 701l-305 -217zM467 0l1233 1536h246l-1233 -1536h-246zM1264 182l55 262l485 478h394l-121 -562h84l-37 -178h-84l-39 -182h-254l39 182h-522zM1509 360h314l80 373h-11z" />
<glyph unicode="&#xbd;" horiz-adv-x="2211" d="M193 1257l423 279h312l-195 -918h-266l149 701l-305 -217zM471 0l1233 1536h246l-1233 -1536h-246zM1335 0l41 193q33 158 105.5 211t314.5 102q137 29 166 45t41 84q14 68 -9.5 86t-107.5 16q-92 0 -119.5 -17.5t-44.5 -88.5l-8 -45h-254l8 45q37 176 143.5 237.5 t313.5 61.5q47 0 84 -2t75 -7.5t64.5 -14.5t51 -24.5t39 -37t22.5 -50t7 -67.5t-11 -88q-31 -150 -96.5 -203t-241.5 -96q-47 -10 -107.5 -21.5t-81 -16.5t-47 -18.5t-36 -34t-17.5 -56.5h535l-41 -193h-789z" />
<glyph unicode="&#xbe;" horiz-adv-x="2211" d="M232 805q1 39 12 88l10 49h254l-6 -31q-16 -70 14.5 -89t110.5 -19q90 0 124.5 18.5t51.5 93.5q12 51 -11.5 68.5t-121.5 17.5h-64l37 179h64q94 0 119.5 13t35.5 62q14 61 -4 81t-113 20q-57 0 -82.5 -4t-47 -28t-31.5 -75l-4 -18h-254l6 33q16 78 46 131t65.5 82.5 t92 46t107.5 20.5t131 4q88 0 143.5 -6t118 -28.5t86 -76t4.5 -137.5q-41 -188 -196 -206l-4 -11q166 -8 125 -198q-25 -115 -94.5 -177.5t-156.5 -80t-227 -17.5q-43 0 -75.5 1t-70.5 6.5t-64.5 13.5t-53 22.5t-42 36t-26 49t-9.5 66.5zM584 0l1233 1536h245l-1233 -1536 h-245zM1339 182l56 262l485 478h393l-121 -562h84l-36 -178h-84l-39 -182h-254l39 182h-523zM1585 360h313l80 373h-10z" />
<glyph unicode="&#xbf;" horiz-adv-x="1239" d="M60 -213q-1 57 16 131q41 188 117.5 266t269.5 156q70 27 98.5 53.5t38.5 73.5l14 61h353l-15 -61q-31 -147 -80 -208.5t-200 -131.5l-80 -35q-51 -23 -75.5 -37t-50.5 -49t-38 -88q-16 -76 16.5 -100.5t122.5 -24.5q94 0 143.5 23.5t65.5 101.5l15 64h352l-15 -64 q-23 -102 -64.5 -175t-92.5 -116t-127 -66.5t-152 -30.5t-184 -7q-74 0 -127 3t-107.5 14t-90.5 28.5t-66.5 47.5t-43 72t-13.5 99zM666 719l75 356h332l-76 -356h-331z" />
<glyph unicode="&#xc0;" horiz-adv-x="1501" d="M-25 0l787 1536h622l142 -1536h-418l-25 264h-551l-131 -264h-426zM684 563h381l-47 666h-4zM870 1782l152 227l364 -246l-83 -127z" />
<glyph unicode="&#xc1;" horiz-adv-x="1501" d="M-25 0l787 1536h622l142 -1536h-418l-25 264h-551l-131 -264h-426zM684 563h381l-47 666h-4zM866 1763l471 246l54 -227l-494 -146z" />
<glyph unicode="&#xc2;" horiz-adv-x="1501" d="M-25 0l787 1536h622l142 -1536h-418l-25 264h-551l-131 -264h-426zM684 563h381l-47 666h-4zM760 1786l416 223l325 -223l-76 -117l-297 127l-337 -127z" />
<glyph unicode="&#xc3;" horiz-adv-x="1501" d="M-25 0l787 1536h622l142 -1536h-418l-25 264h-551l-131 -264h-426zM684 563h381l-47 666h-4zM690 1812q156 197 309 197q80 0 175 -70q96 -72 145 -71q59 0 127 94l149 -84q-145 -203 -295 -203q-94 0 -188 70q-6 4 -22.5 16.5t-22.5 17.5t-20.5 14t-22.5 12t-20.5 6.5 t-22.5 3.5q-72 0 -141 -93z" />
<glyph unicode="&#xc4;" horiz-adv-x="1501" d="M-25 0l787 1536h622l142 -1536h-418l-25 264h-551l-131 -264h-426zM684 563h381l-47 666h-4zM786 1708l45 211h224l-45 -211h-224zM1217 1708l45 211h223l-45 -211h-223z" />
<glyph unicode="&#xc5;" horiz-adv-x="1501" d="M-25 0l787 1536h622l142 -1536h-418l-25 264h-551l-131 -264h-426zM684 563h381l-47 666h-4zM938 1821q16 82 88 140t156 58q82 0 127 -58t28 -140q-18 -82 -88.5 -141.5t-152.5 -59.5q-84 0 -130 59.5t-28 141.5zM1044.5 1821q-8.5 -39 12 -67t59.5 -28q37 0 72 28 t43 67t-14.5 65.5t-59.5 26.5q-39 0 -71.5 -26.5t-41 -65.5z" />
<glyph unicode="&#xc6;" horiz-adv-x="2199" d="M-53 0l927 1536h1565l-69 -336h-703l-61 -287h647l-62 -284h-647l-61 -293h702l-71 -336h-1092l57 272h-528l-160 -272h-444zM721 557h420l137 643h-176z" />
<glyph unicode="&#xc7;" horiz-adv-x="1490" d="M168 401.5q4 75.5 25 167.5l83 398q33 150 88.5 255t126 168.5t174 99.5t208 47t251.5 11q100 0 167 -4t135.5 -15t108.5 -33.5t73.5 -59.5t45 -90.5t9.5 -128t-21 -173.5l-12 -59h-422l13 59q10 94 -42.5 121t-174.5 27q-88 0 -141.5 -13.5t-88.5 -51t-52 -87 t-36 -139.5l-51 -239q-27 -115 -28 -184.5t47 -101.5t169 -32q143 0 205 34t88 159l8 45h422l-8 -45q-18 -84 -30.5 -127t-38 -106.5t-66.5 -113t-100 -90.5q-76 -53 -171.5 -79.5t-157 -29.5t-181.5 -3q-82 0 -135.5 1t-122 7t-111.5 17.5t-92 32t-76 50t-52.5 73.5 t-32.5 100.5t-3 132zM516 -252l297 168l55 -168l-317 -106z" />
<glyph unicode="&#xc8;" horiz-adv-x="1388" d="M131 0l326 1536h1108l-70 -336h-698l-62 -280h656l-60 -285h-655l-64 -299h713l-72 -336h-1122zM813 1782l152 227l364 -246l-84 -127z" />
<glyph unicode="&#xc9;" horiz-adv-x="1388" d="M131 0l326 1536h1108l-70 -336h-698l-62 -280h656l-60 -285h-655l-64 -299h713l-72 -336h-1122zM809 1763l471 246l53 -227l-493 -146z" />
<glyph unicode="&#xca;" horiz-adv-x="1388" d="M131 0l326 1536h1108l-70 -336h-698l-62 -280h656l-60 -285h-655l-64 -299h713l-72 -336h-1122zM702 1786l416 223l326 -223l-76 -117l-297 127l-338 -127z" />
<glyph unicode="&#xcb;" horiz-adv-x="1388" d="M131 0l326 1536h1108l-70 -336h-698l-62 -280h656l-60 -285h-655l-64 -299h713l-72 -336h-1122zM731 1708l45 211h223l-45 -211h-223zM1161 1708l45 211h224l-46 -211h-223z" />
<glyph unicode="&#xcc;" horiz-adv-x="663" d="M127 0l326 1536h409l-325 -1536h-410zM451 1782l151 227l365 -246l-84 -127z" />
<glyph unicode="&#xcd;" horiz-adv-x="663" d="M127 0l326 1536h409l-325 -1536h-410zM446 1763l472 246l53 -227l-494 -146z" />
<glyph unicode="&#xce;" horiz-adv-x="663" d="M127 0l326 1536h409l-325 -1536h-410zM340 1786l416 223l325 -223l-75 -117l-297 127l-338 -127z" />
<glyph unicode="&#xcf;" horiz-adv-x="663" d="M127 0l326 1536h409l-325 -1536h-410zM369 1708l45 211h223l-45 -211h-223zM799 1708l45 211h223l-45 -211h-223z" />
<glyph unicode="&#xd0;" horiz-adv-x="1587" d="M72 643l59 285h172l129 608h778q326 0 444 -137t50 -459l-70 -322q-68 -326 -224.5 -472t-469.5 -146h-834l138 643h-172zM592 356h358q205 0 262 262l70 322q29 143 -8 191.5t-150 48.5h-358l-53 -252h280l-59 -285h-281z" />
<glyph unicode="&#xd1;" horiz-adv-x="1783" d="M125 0l326 1536h692l190 -1180h17l225 1180h410l-326 -1536h-698l-185 1180h-16l-225 -1180h-410zM831 1812q156 197 310 197q80 0 174 -70q96 -72 145 -71q59 0 127 94l150 -84q-145 -203 -295 -203q-94 0 -189 70q-6 4 -22.5 16.5t-22.5 17.5t-20 14t-22.5 12 t-20.5 6.5t-23 3.5q-72 0 -141 -93z" />
<glyph unicode="&#xd2;" horiz-adv-x="1556" d="M164 371q-6 80 20 180l92 434q37 172 112 286.5t188.5 173t237.5 81t294 22.5q82 0 148.5 -5t132 -16t114.5 -31.5t92 -50.5t70 -74t41 -99t12 -127t-20 -160l-92 -434q-37 -172 -112 -286.5t-187.5 -173t-236.5 -81t-294 -22.5q-94 0 -169 6t-147.5 22.5t-121.5 44 t-93 70.5t-59.5 101.5t-21.5 138.5zM616 596q-31 -164 17.5 -208t218.5 -44q172 0 239.5 44t102.5 208l74 346q12 57 14 97t-8 69t-26.5 45t-50.5 24.5t-69.5 11.5t-95.5 3q-170 0 -236.5 -44t-105.5 -206zM897 1782l152 227l364 -246l-84 -127z" />
<glyph unicode="&#xd3;" horiz-adv-x="1556" d="M164 371q-6 80 20 180l92 434q37 172 112 286.5t188.5 173t237.5 81t294 22.5q82 0 148.5 -5t132 -16t114.5 -31.5t92 -50.5t70 -74t41 -99t12 -127t-20 -160l-92 -434q-37 -172 -112 -286.5t-187.5 -173t-236.5 -81t-294 -22.5q-94 0 -169 6t-147.5 22.5t-121.5 44 t-93 70.5t-59.5 101.5t-21.5 138.5zM616 596q-31 -164 17.5 -208t218.5 -44q172 0 239.5 44t102.5 208l74 346q12 57 14 97t-8 69t-26.5 45t-50.5 24.5t-69.5 11.5t-95.5 3q-170 0 -236.5 -44t-105.5 -206zM893 1763l471 246l53 -227l-493 -146z" />
<glyph unicode="&#xd4;" horiz-adv-x="1556" d="M164 371q-6 80 20 180l92 434q37 172 112 286.5t188.5 173t237.5 81t294 22.5q82 0 148.5 -5t132 -16t114.5 -31.5t92 -50.5t70 -74t41 -99t12 -127t-20 -160l-92 -434q-37 -172 -112 -286.5t-187.5 -173t-236.5 -81t-294 -22.5q-94 0 -169 6t-147.5 22.5t-121.5 44 t-93 70.5t-59.5 101.5t-21.5 138.5zM616 596q-31 -164 17.5 -208t218.5 -44q172 0 239.5 44t102.5 208l74 346q12 57 14 97t-8 69t-26.5 45t-50.5 24.5t-69.5 11.5t-95.5 3q-170 0 -236.5 -44t-105.5 -206zM786 1786l416 223l326 -223l-76 -117l-297 127l-338 -127z" />
<glyph unicode="&#xd5;" horiz-adv-x="1556" d="M164 371q-6 80 20 180l92 434q37 172 112 286.5t188.5 173t237.5 81t294 22.5q82 0 148.5 -5t132 -16t114.5 -31.5t92 -50.5t70 -74t41 -99t12 -127t-20 -160l-92 -434q-37 -172 -112 -286.5t-187.5 -173t-236.5 -81t-294 -22.5q-94 0 -169 6t-147.5 22.5t-121.5 44 t-93 70.5t-59.5 101.5t-21.5 138.5zM616 596q-31 -164 17.5 -208t218.5 -44q172 0 239.5 44t102.5 208l74 346q12 57 14 97t-8 69t-26.5 45t-50.5 24.5t-69.5 11.5t-95.5 3q-170 0 -236.5 -44t-105.5 -206zM719 1812q156 197 309 197q80 0 174 -70q96 -72 146 -71 q59 0 127 94l149 -84q-145 -203 -295 -203q-94 0 -188 70q-6 4 -22.5 16.5t-22.5 17.5t-20.5 14t-23 12t-20.5 6.5t-22 3.5q-72 0 -142 -93z" />
<glyph unicode="&#xd6;" horiz-adv-x="1556" d="M164 371q-6 80 20 180l92 434q37 172 112 286.5t188.5 173t237.5 81t294 22.5q82 0 148.5 -5t132 -16t114.5 -31.5t92 -50.5t70 -74t41 -99t12 -127t-20 -160l-92 -434q-37 -172 -112 -286.5t-187.5 -173t-236.5 -81t-294 -22.5q-94 0 -169 6t-147.5 22.5t-121.5 44 t-93 70.5t-59.5 101.5t-21.5 138.5zM616 596q-31 -164 17.5 -208t218.5 -44q172 0 239.5 44t102.5 208l74 346q12 57 14 97t-8 69t-26.5 45t-50.5 24.5t-69.5 11.5t-95.5 3q-170 0 -236.5 -44t-105.5 -206zM815 1708l45 211h223l-45 -211h-223zM1245 1708l45 211h223 l-45 -211h-223z" />
<glyph unicode="&#xd7;" horiz-adv-x="1228" d="M152 233l403 332l-262 332l219 178l260 -330l404 330l141 -178l-402 -332l261 -332l-218 -180l-262 332l-401 -332z" />
<glyph unicode="&#xd8;" horiz-adv-x="1556" d="M-29 -61l60 284l133 94q-16 88 6 189l51 244q51 246 105.5 385t155 239.5t250 137t388.5 36.5q102 0 155.5 -3t133.5 -14t136.5 -43t99.5 -83l272 194l-62 -288l-137 -99q6 -129 -53 -411q-33 -160 -63.5 -264.5t-76.5 -205t-105.5 -157.5t-147.5 -103t-206 -64.5 t-278 -18.5q-96 0 -152 3t-143 15t-149.5 44t-101.5 85zM618 408q18 -63 259 -64q268 0 313 201l70 327zM623 655l645 471q-25 31 -64 46.5t-68.5 17.5t-91.5 2q-102 0 -154 -9t-100.5 -46t-75 -106.5t-52.5 -196.5z" />
<glyph unicode="&#xd9;" horiz-adv-x="1579" d="M214 213q-17 117 24 299l217 1024h409l-215 -1016q-6 -33 -8 -57.5t5 -43t14.5 -31.5t28 -21.5t34.5 -12.5t46 -7t52 -3h62q139 0 192 33t82 162l211 997h410l-217 -1024q-63 -299 -234.5 -411.5t-519.5 -112.5q-301 0 -438.5 54t-154.5 171zM909 1782l152 227l364 -246 l-84 -127z" />
<glyph unicode="&#xda;" horiz-adv-x="1579" d="M214 213q-17 117 24 299l217 1024h409l-215 -1016q-6 -33 -8 -57.5t5 -43t14.5 -31.5t28 -21.5t34.5 -12.5t46 -7t52 -3h62q139 0 192 33t82 162l211 997h410l-217 -1024q-63 -299 -234.5 -411.5t-519.5 -112.5q-301 0 -438.5 54t-154.5 171zM905 1763l471 246l54 -227 l-494 -146z" />
<glyph unicode="&#xdb;" horiz-adv-x="1579" d="M214 213q-17 117 24 299l217 1024h409l-215 -1016q-6 -33 -8 -57.5t5 -43t14.5 -31.5t28 -21.5t34.5 -12.5t46 -7t52 -3h62q139 0 192 33t82 162l211 997h410l-217 -1024q-63 -299 -234.5 -411.5t-519.5 -112.5q-301 0 -438.5 54t-154.5 171zM799 1786l415 223l326 -223 l-76 -117l-297 127l-338 -127z" />
<glyph unicode="&#xdc;" horiz-adv-x="1579" d="M214 213q-17 117 24 299l217 1024h409l-215 -1016q-6 -33 -8 -57.5t5 -43t14.5 -31.5t28 -21.5t34.5 -12.5t46 -7t52 -3h62q139 0 192 33t82 162l211 997h410l-217 -1024q-63 -299 -234.5 -411.5t-519.5 -112.5q-301 0 -438.5 54t-154.5 171zM825 1708l45 211h224 l-45 -211h-224zM1255 1708l45 211h224l-45 -211h-224z" />
<glyph unicode="&#xdd;" horiz-adv-x="1449" d="M293 1536h469l149 -592h15l407 592h475l-772 -997l-114 -539h-410l115 539zM840 1763l471 246l53 -227l-494 -146z" />
<glyph unicode="&#xde;" horiz-adv-x="1456" d="M119 0l325 1536h410l-41 -197h363q285 0 377 -130t28 -433q-49 -225 -116.5 -345t-192.5 -177t-340 -57h-363l-41 -197h-409zM645 553h281q125 4 162.5 40t70.5 183q29 119 2.5 163t-143.5 44h-281z" />
<glyph unicode="&#xdf;" horiz-adv-x="1263" d="M117 0l245 1157q25 119 77.5 198t132 121t169.5 57t215 15q43 0 75 -1t73 -3t69.5 -7t62.5 -13t56.5 -21.5t45 -31t35.5 -41t21.5 -53t7.5 -68.5t-11 -84q-49 -236 -304 -267l-2 -16q80 -2 132.5 -26.5t77 -62.5t30.5 -98.5t-1 -117.5t-24 -135q-55 -262 -170.5 -388 t-365.5 -126q-27 0 -57.5 2t-67.5 5t-57 5l53 248q41 -14 90 -15q102 0 145 52.5t78 216.5q12 57 18.5 91t10.5 79t-3 70.5t-22.5 50t-46.5 36t-76 11.5h-32l51 235h39q72 0 113.5 21.5t56.5 85.5q14 74 -24 102.5t-128 28.5q-82 0 -127 -33t-63 -123l-246 -1157h-352z" />
<glyph unicode="&#xe0;" horiz-adv-x="1247" d="M152 322q41 186 151.5 261.5t308.5 75.5q55 0 85 -2t79 -12t75 -36.5t30 -69.5h16l37 170q25 76 2 119.5t-127 43.5q-74 0 -115 -24.5t-55 -91.5h-352q49 223 217 291q100 41 350 40q98 0 162.5 -5t124 -20t90.5 -43t50 -75t18 -113.5t-21 -158.5l-143 -672h-353l47 160 h-12q-70 -172 -346 -172q-201 0 -280.5 69.5t-38.5 264.5zM506 332q-8 -41 1 -66.5t35.5 -36t45 -12.5t47.5 -2q115 0 159 24.5t62 106.5q12 61 -30 79.5t-142 18.5q-76 0 -119 -22t-59 -90zM645 1321l152 227l364 -245l-84 -127z" />
<glyph unicode="&#xe1;" horiz-adv-x="1247" d="M152 322q41 186 151.5 261.5t308.5 75.5q55 0 85 -2t79 -12t75 -36.5t30 -69.5h16l37 170q25 76 2 119.5t-127 43.5q-74 0 -115 -24.5t-55 -91.5h-352q49 223 217 291q100 41 350 40q98 0 162.5 -5t124 -20t90.5 -43t50 -75t18 -113.5t-21 -158.5l-143 -672h-353l47 160 h-12q-70 -172 -346 -172q-201 0 -280.5 69.5t-38.5 264.5zM506 332q-8 -41 1 -66.5t35.5 -36t45 -12.5t47.5 -2q115 0 159 24.5t62 106.5q12 61 -30 79.5t-142 18.5q-76 0 -119 -22t-59 -90zM641 1303l471 245l53 -227l-493 -145z" />
<glyph unicode="&#xe2;" horiz-adv-x="1247" d="M152 322q41 186 151.5 261.5t308.5 75.5q55 0 85 -2t79 -12t75 -36.5t30 -69.5h16l37 170q25 76 2 119.5t-127 43.5q-74 0 -115 -24.5t-55 -91.5h-352q49 223 217 291q100 41 350 40q98 0 162.5 -5t124 -20t90.5 -43t50 -75t18 -113.5t-21 -158.5l-143 -672h-353l47 160 h-12q-70 -172 -346 -172q-201 0 -280.5 69.5t-38.5 264.5zM506 332q-8 -41 1 -66.5t35.5 -36t45 -12.5t47.5 -2q115 0 159 24.5t62 106.5q12 61 -30 79.5t-142 18.5q-76 0 -119 -22t-59 -90zM537 1325l413 223l328 -223l-78 -117l-295 127l-340 -127z" />
<glyph unicode="&#xe3;" horiz-adv-x="1247" d="M152 322q41 186 151.5 261.5t308.5 75.5q55 0 85 -2t79 -12t75 -36.5t30 -69.5h16l37 170q25 76 2 119.5t-127 43.5q-74 0 -115 -24.5t-55 -91.5h-352q49 223 217 291q100 41 350 40q98 0 162.5 -5t124 -20t90.5 -43t50 -75t18 -113.5t-21 -158.5l-143 -672h-353l47 160 h-12q-70 -172 -346 -172q-201 0 -280.5 69.5t-38.5 264.5zM465 1352q156 197 309 196q80 0 174 -69q4 -2 17 -12l16 -12q4 -3 15.5 -11t16.5 -10t15 -8.5t16 -8.5l16 -5q9 -3 17 -4t17 -1q59 0 127 94l149 -84q-145 -203 -295 -203q-90 0 -188 70q-6 4 -22.5 16.5 t-22.5 17.5t-20.5 14t-22.5 12.5t-20.5 6.5t-22.5 3q-72 0 -142 -92zM506 332q-8 -41 1 -66.5t35.5 -36t45 -12.5t47.5 -2q115 0 159 24.5t62 106.5q12 61 -30 79.5t-142 18.5q-76 0 -119 -22t-59 -90z" />
<glyph unicode="&#xe4;" horiz-adv-x="1247" d="M152 322q41 186 151.5 261.5t308.5 75.5q55 0 85 -2t79 -12t75 -36.5t30 -69.5h16l37 170q25 76 2 119.5t-127 43.5q-74 0 -115 -24.5t-55 -91.5h-352q49 223 217 291q100 41 350 40q98 0 162.5 -5t124 -20t90.5 -43t50 -75t18 -113.5t-21 -158.5l-143 -672h-353l47 160 h-12q-70 -172 -346 -172q-201 0 -280.5 69.5t-38.5 264.5zM506 332q-8 -41 1 -66.5t35.5 -36t45 -12.5t47.5 -2q115 0 159 24.5t62 106.5q12 61 -30 79.5t-142 18.5q-76 0 -119 -22t-59 -90zM561 1247l45 211h223l-45 -211h-223zM991 1247l45 211h224l-46 -211h-223z" />
<glyph unicode="&#xe5;" horiz-adv-x="1247" d="M152 322q41 186 151.5 261.5t308.5 75.5q55 0 85 -2t79 -12t75 -36.5t30 -69.5h16l37 170q25 76 2 119.5t-127 43.5q-74 0 -115 -24.5t-55 -91.5h-352q49 223 217 291q100 41 350 40q98 0 162.5 -5t124 -20t90.5 -43t50 -75t18 -113.5t-21 -158.5l-143 -672h-353l47 160 h-12q-70 -172 -346 -172q-201 0 -280.5 69.5t-38.5 264.5zM506 332q-8 -41 1 -66.5t35.5 -36t45 -12.5t47.5 -2q115 0 159 24.5t62 106.5q12 61 -30 79.5t-142 18.5q-76 0 -119 -22t-59 -90zM713 1360q18 82 88.5 140.5t154.5 58.5q82 0 128 -58.5t28 -140.5 q-16 -82 -88 -141.5t-154 -59.5t-127.5 58.5t-29.5 142.5zM819 1360q-8 -39 12.5 -66.5t59.5 -27.5q37 0 71.5 27.5t43 66.5t-14 65.5t-59.5 26.5q-39 0 -72 -26.5t-41 -65.5z" />
<glyph unicode="&#xe6;" horiz-adv-x="1898" d="M145 322q41 186 152 261.5t309 75.5q53 0 85 -2t79 -12t73.5 -36.5t30.5 -69.5h17l37 170q25 76 2 119.5t-127 43.5q-74 0 -115 -24.5t-55 -91.5h-352q49 223 217 291q100 41 350 40q305 0 313 -145h10q61 145 363 145q305 0 390 -112.5t18 -437.5l-13 -60h-698 q-33 -141 -9.5 -192.5t130.5 -51.5q94 0 141 24t63 101h347q-49 -227 -207 -307q-129 -63 -396 -63q-330 0 -348 162h-12q-27 -45 -69 -77t-82.5 -48.5t-103 -24.5t-105.5 -10t-115 -2q-201 0 -281 69.5t-39 264.5zM502 334q-8 -41 1 -66.5t35.5 -36t45 -12.5t47.5 -2 q115 0 157.5 24.5t61.5 106.5q12 61 -30 79.5t-142 18.5q-76 0 -119 -22t-57 -90zM1272 672h346q23 115 -10 154.5t-127 39.5q-92 0 -138 -44t-71 -150z" />
<glyph unicode="&#xe7;" horiz-adv-x="1140" d="M148.5 206q-21.5 122 29.5 331q31 147 70 241t108.5 169t180 107.5t272.5 32.5q74 0 126 -3t108.5 -12t91 -27.5t66.5 -49t44 -73.5t12 -106.5t-16 -143.5h-352q20 84 -4 114q-29 31 -133 31q-98 0 -141.5 -51t-80.5 -229q-37 -188 -18.5 -233.5t121.5 -45.5 q115 0 148.5 33t56.5 139h352q-61 -287 -199 -371q-66 -43 -162 -57t-254 -14q-211 0 -308 48t-118.5 170zM342 -252l297 168l55 -168l-317 -106z" />
<glyph unicode="&#xe8;" horiz-adv-x="1175" d="M149.5 216q-20.5 122 26.5 321q68 319 197 434.5t446 115.5q305 0 390 -112.5t18 -437.5l-13 -60h-698q-33 -141 -9.5 -192.5t130.5 -51.5q94 0 141 24t64 101h346q-49 -225 -211 -307q-127 -63 -391 -63q-213 0 -314.5 53t-122 175zM557 672h346q23 111 -10 140.5 t-133 29.5q-96 0 -137 -33t-66 -137zM608 1321l152 227l364 -245l-84 -127z" />
<glyph unicode="&#xe9;" horiz-adv-x="1175" d="M149.5 216q-20.5 122 26.5 321q68 319 197 434.5t446 115.5q305 0 390 -112.5t18 -437.5l-13 -60h-698q-33 -141 -9.5 -192.5t130.5 -51.5q94 0 141 24t64 101h346q-49 -225 -211 -307q-127 -63 -391 -63q-213 0 -314.5 53t-122 175zM557 672h346q23 111 -10 140.5 t-133 29.5q-96 0 -137 -33t-66 -137zM604 1303l471 245l53 -227l-493 -145z" />
<glyph unicode="&#xea;" horiz-adv-x="1175" d="M149.5 216q-20.5 122 26.5 321q68 319 197 434.5t446 115.5q305 0 390 -112.5t18 -437.5l-13 -60h-698q-33 -141 -9.5 -192.5t130.5 -51.5q94 0 141 24t64 101h346q-49 -225 -211 -307q-127 -63 -391 -63q-213 0 -314.5 53t-122 175zM500 1325l413 223l328 -223l-78 -117 l-295 127l-340 -127zM557 672h346q23 111 -10 140.5t-133 29.5q-96 0 -137 -33t-66 -137z" />
<glyph unicode="&#xeb;" horiz-adv-x="1175" d="M149.5 216q-20.5 122 26.5 321q68 319 197 434.5t446 115.5q305 0 390 -112.5t18 -437.5l-13 -60h-698q-33 -141 -9.5 -192.5t130.5 -51.5q94 0 141 24t64 101h346q-49 -225 -211 -307q-127 -63 -391 -63q-213 0 -314.5 53t-122 175zM526 1247l45 211h224l-45 -211h-224z M557 672h346q23 111 -10 140.5t-133 29.5q-96 0 -137 -33t-66 -137zM956 1247l45 211h224l-45 -211h-224z" />
<glyph unicode="&#xec;" horiz-adv-x="526" d="M88 0l229 1075h353l-230 -1075h-352zM285 1321l151 227l365 -245l-84 -127z" />
<glyph unicode="&#xed;" horiz-adv-x="526" d="M88 0l229 1075h353l-230 -1075h-352zM281 1303l471 245l53 -227l-494 -145z" />
<glyph unicode="&#xee;" horiz-adv-x="526" d="M88 0l229 1075h353l-230 -1075h-352zM176 1325l414 223l328 -223l-78 -117l-295 127l-340 -127z" />
<glyph unicode="&#xef;" horiz-adv-x="526" d="M88 0l229 1075h353l-230 -1075h-352zM201 1247l45 211h223l-45 -211h-223zM631 1247l45 211h223l-45 -211h-223z" />
<glyph unicode="&#xf0;" horiz-adv-x="1214" d="M154.5 204q-23.5 122 29.5 333q27 125 57.5 211t86 167.5t143.5 122.5t209 41t174 -20.5t102 -79.5q-10 139 -71 238l-248 -74l-109 129l263 78q-25 29 -115 112l293 86q61 -41 125 -108l249 73l99 -131l-246 -73q172 -256 70 -740q-39 -186 -82 -292.5t-120 -175 t-181.5 -91t-278.5 -22.5q-223 0 -324.5 47t-125 169zM519.5 309q23.5 -51 148.5 -51q121 0 160.5 49t78.5 230q39 176 19.5 228t-140.5 52q-125 0 -169 -51t-80 -229q-41 -177 -17.5 -228z" />
<glyph unicode="&#xf1;" horiz-adv-x="1267" d="M117 0l229 1075h352l-43 -201h15q66 125 153 170q80 43 213 43q178 0 244 -84.5t29 -259.5l-158 -743h-352l141 662q14 84 -8.5 119.5t-104.5 35.5q-109 0 -159 -56t-74 -169l-125 -592h-352zM475 1352q156 197 309 196q80 0 174 -69q4 -2 17 -12l16 -12q4 -3 15.5 -11 t16.5 -10t15.5 -8.5t16.5 -8.5l15 -5q9 -3 17.5 -4t16.5 -1q59 0 127 94l149 -84q-145 -203 -295 -203q-90 0 -188 70q-6 4 -22.5 16.5t-22.5 17.5t-20.5 14t-22.5 12.5t-20.5 6.5t-22.5 3q-72 0 -141 -92z" />
<glyph unicode="&#xf2;" horiz-adv-x="1214" d="M154.5 204q-23.5 122 29.5 333q47 229 114 341.5t188.5 160.5t351.5 48q117 0 194.5 -9t136 -33.5t86 -61.5t38 -102.5t1 -145.5t-33.5 -198q-49 -229 -116 -342t-188.5 -160t-351.5 -47q-223 0 -324.5 47t-125 169zM519.5 309q23.5 -51 148.5 -51q121 0 160.5 49 t78.5 230q39 176 19.5 228t-140.5 52q-125 0 -169 -51t-80 -229q-41 -177 -17.5 -228zM629 1321l151 227l365 -245l-84 -127z" />
<glyph unicode="&#xf3;" horiz-adv-x="1214" d="M154.5 204q-23.5 122 29.5 333q47 229 114 341.5t188.5 160.5t351.5 48q117 0 194.5 -9t136 -33.5t86 -61.5t38 -102.5t1 -145.5t-33.5 -198q-49 -229 -116 -342t-188.5 -160t-351.5 -47q-223 0 -324.5 47t-125 169zM519.5 309q23.5 -51 148.5 -51q121 0 160.5 49 t78.5 230q39 176 19.5 228t-140.5 52q-125 0 -169 -51t-80 -229q-41 -177 -17.5 -228zM625 1303l471 245l53 -227l-494 -145z" />
<glyph unicode="&#xf4;" horiz-adv-x="1214" d="M154.5 204q-23.5 122 29.5 333q47 229 114 341.5t188.5 160.5t351.5 48q117 0 194.5 -9t136 -33.5t86 -61.5t38 -102.5t1 -145.5t-33.5 -198q-49 -229 -116 -342t-188.5 -160t-351.5 -47q-223 0 -324.5 47t-125 169zM519.5 309q23.5 -51 148.5 -51q121 0 160.5 49 t78.5 230q39 176 19.5 228t-140.5 52q-125 0 -169 -51t-80 -229q-41 -177 -17.5 -228zM520 1325l414 223l328 -223l-78 -117l-295 127l-340 -127z" />
<glyph unicode="&#xf5;" horiz-adv-x="1214" d="M154.5 204q-23.5 122 29.5 333q47 229 114 341.5t188.5 160.5t351.5 48q117 0 194.5 -9t136 -33.5t86 -61.5t38 -102.5t1 -145.5t-33.5 -198q-49 -229 -116 -342t-188.5 -160t-351.5 -47q-223 0 -324.5 47t-125 169zM449 1352q156 197 309 196q80 0 174 -69q4 -2 16 -12 l17 -12q4 -3 15 -11t16 -10t15.5 -8.5t16.5 -8.5l15 -5q9 -3 17.5 -4t16.5 -1q59 0 127 94l150 -84q-145 -203 -295 -203q-90 0 -189 70q-6 4 -22.5 16.5t-22.5 17.5t-20 14t-22.5 12.5t-20.5 6.5t-23 3q-72 0 -141 -92zM519.5 309q23.5 -51 148.5 -51q121 0 160.5 49 t78.5 230q39 176 19.5 228t-140.5 52q-125 0 -169 -51t-80 -229q-41 -177 -17.5 -228z" />
<glyph unicode="&#xf6;" horiz-adv-x="1214" d="M154.5 204q-23.5 122 29.5 333q47 229 114 341.5t188.5 160.5t351.5 48q117 0 194.5 -9t136 -33.5t86 -61.5t38 -102.5t1 -145.5t-33.5 -198q-49 -229 -116 -342t-188.5 -160t-351.5 -47q-223 0 -324.5 47t-125 169zM519.5 309q23.5 -51 148.5 -51q121 0 160.5 49 t78.5 230q39 176 19.5 228t-140.5 52q-125 0 -169 -51t-80 -229q-41 -177 -17.5 -228zM545 1247l45 211h223l-45 -211h-223zM975 1247l45 211h223l-45 -211h-223z" />
<glyph unicode="&#xf7;" horiz-adv-x="1228" d="M199 449l49 235h1024l-49 -235h-1024zM508 57l49 236h236l-50 -236h-235zM674 840l51 235h236l-52 -235h-235z" />
<glyph unicode="&#xf8;" horiz-adv-x="1259" d="M-4 0l37 170l135 84q4 127 51 340q33 158 79 252t125 149.5t178 73.5t259 18q113 0 175.5 -4t143.5 -35.5t111 -93.5l176 113l-36 -174l-105 -66q4 -68 -31 -231q-33 -156 -62.5 -248t-75.5 -170t-114.5 -114.5t-167 -56t-247.5 -19.5q-111 0 -171.5 4t-140 36.5 t-114.5 98.5zM532 330q16 -72 152 -72q117 0 162 47t74 182l20 97zM549 492l405 249q0 27 -14 43.5t-42 23.5t-46 8t-49 1q-102 0 -150.5 -31.5t-62.5 -101.5z" />
<glyph unicode="&#xf9;" horiz-adv-x="1259" d="M176 340l158 735h352l-137 -641q-23 -74 -6.5 -125t98.5 -51q78 0 146.5 41t84.5 115l142 661h352l-229 -1075h-342l55 207h-16q-111 -219 -367 -219q-365 0 -291 352zM651 1321l152 227l364 -245l-84 -127z" />
<glyph unicode="&#xfa;" horiz-adv-x="1259" d="M176 340l158 735h352l-137 -641q-23 -74 -6.5 -125t98.5 -51q78 0 146.5 41t84.5 115l142 661h352l-229 -1075h-342l55 207h-16q-111 -219 -367 -219q-365 0 -291 352zM647 1303l471 245l53 -227l-493 -145z" />
<glyph unicode="&#xfb;" horiz-adv-x="1259" d="M176 340l158 735h352l-137 -641q-23 -74 -6.5 -125t98.5 -51q78 0 146.5 41t84.5 115l142 661h352l-229 -1075h-342l55 207h-16q-111 -219 -367 -219q-365 0 -291 352zM543 1325l413 223l328 -223l-78 -117l-295 127l-340 -127z" />
<glyph unicode="&#xfc;" horiz-adv-x="1259" d="M176 340l158 735h352l-137 -641q-23 -74 -6.5 -125t98.5 -51q78 0 146.5 41t84.5 115l142 661h352l-229 -1075h-342l55 207h-16q-111 -219 -367 -219q-365 0 -291 352zM567 1247l45 211h224l-45 -211h-224zM997 1247l45 211h224l-45 -211h-224z" />
<glyph unicode="&#xfd;" horiz-adv-x="1091" d="M152 -471l51 244q41 -4 61 -4q100 0 152.5 61t81.5 170h-193l-90 1075h369l26 -874h4l361 874h360l-520 -1169q-90 -215 -206.5 -299t-338.5 -84q-18 0 -37.5 1t-43 3t-37.5 2zM563 1303l471 245l53 -227l-493 -145z" />
<glyph unicode="&#xfe;" horiz-adv-x="1265" d="M6 -465l424 2001h352l-133 -627h13q47 98 139 142q74 37 203 36q201 0 283.5 -94t39.5 -301l-53 -246q-53 -248 -168 -353t-336 -105q-111 0 -178.5 35.5t-83.5 138.5h-16l-134 -627h-352zM550 415q-5 -44 4 -84t42 -56.5t92 -16.5q115 0 165 51t89 228q41 156 18.5 218 t-153.5 62q-111 0 -156 -54t-80 -226q-16 -78 -21 -122z" />
<glyph unicode="&#xff;" horiz-adv-x="1091" d="M152 -471l51 244q41 -4 61 -4q100 0 152.5 61t81.5 170h-193l-90 1075h369l26 -874h4l361 874h360l-520 -1169q-90 -215 -206.5 -299t-338.5 -84q-18 0 -37.5 1t-43 3t-37.5 2zM483 1247l45 211h224l-45 -211h-224zM913 1247l45 211h224l-45 -211h-224z" />
<glyph unicode="&#x152;" horiz-adv-x="2254" d="M177 376q3 91 30 212l61 289q37 178 85 293.5t130 205.5t207 131t305 41q74 0 127.5 -6t114.5 -24.5t98 -60.5t47 -105h15l24 184h1078l-70 -336h-696l-62 -285h651l-61 -284h-651l-62 -295h711l-72 -336h-1091l51 170h-14q-82 -102 -176.5 -141t-225.5 -41 q-119 0 -206 11t-156.5 36.5t-110.5 70t-62.5 112t-18.5 158.5zM624 381q38 -57 205 -57q113 0 181.5 15t110.5 58t61.5 95.5t40.5 146.5l63 297q14 61 16.5 106t-10 76t-31 49.5t-57.5 28.5t-80 13t-106 3q-164 0 -228.5 -56t-99.5 -220l-63 -297q-41 -201 -3 -258z" />
<glyph unicode="&#x153;" horiz-adv-x="1884" d="M179 105.5q-75 117.5 1 431.5q35 166 72 261t106.5 165.5t173 97t269.5 26.5q63 0 106 -3t98.5 -16t90 -44t47.5 -80h8q41 66 114.5 100.5t124 38.5t132.5 4q305 0 390 -112.5t17 -437.5l-12 -60h-698q-33 -141 -9.5 -192.5t129.5 -51.5q94 0 141.5 24t63.5 101h346 q-49 -225 -211 -307q-127 -63 -391 -63q-51 0 -80.5 1t-77 9t-74 24.5t-49 47t-26.5 75.5h-12q-78 -102 -159 -129.5t-243 -27.5q-313 0 -388 117.5zM516.5 303q20.5 -45 130.5 -45q115 0 155 52t77 227q41 178 24.5 229t-137.5 51q-119 0 -157 -48t-77 -232 q-36 -189 -15.5 -234zM1260 672h346q25 115 -8 157.5t-128 42.5q-92 0 -138.5 -45.5t-71.5 -154.5z" />
<glyph unicode="&#x178;" horiz-adv-x="1449" d="M293 1536h469l149 -592h15l407 592h475l-772 -997l-114 -539h-410l115 539zM762 1708l45 211h223l-45 -211h-223zM1192 1708l45 211h223l-45 -211h-223z" />
<glyph unicode="&#x2c6;" horiz-adv-x="1048" d="M436 1325l414 223l328 -223l-78 -117l-295 127l-340 -127z" />
<glyph unicode="&#x2dc;" horiz-adv-x="1198" d="M440 1352q156 197 310 196q80 0 174 -69q4 -2 16 -12l16 -12q4 -3 15.5 -11t16.5 -10t15.5 -8.5t16.5 -8.5l15 -5q9 -3 17.5 -4t16.5 -1q59 0 127 94l150 -84q-145 -203 -295 -203q-90 0 -189 70q-6 4 -22.5 16.5t-22.5 17.5t-20.5 14t-22.5 12.5t-20.5 6.5t-22.5 3 q-72 0 -141 -92z" />
<glyph unicode="&#x2000;" horiz-adv-x="1009" />
<glyph unicode="&#x2001;" horiz-adv-x="2019" />
<glyph unicode="&#x2002;" horiz-adv-x="1009" />
<glyph unicode="&#x2003;" horiz-adv-x="2019" />
<glyph unicode="&#x2004;" horiz-adv-x="671" />
<glyph unicode="&#x2005;" horiz-adv-x="503" />
<glyph unicode="&#x2006;" horiz-adv-x="335" />
<glyph unicode="&#x2007;" horiz-adv-x="335" />
<glyph unicode="&#x2008;" horiz-adv-x="251" />
<glyph unicode="&#x2009;" horiz-adv-x="403" />
<glyph unicode="&#x200a;" horiz-adv-x="110" />
<glyph unicode="&#x2010;" horiz-adv-x="557" d="M84 397l72 336h557l-72 -336h-557z" />
<glyph unicode="&#x2011;" horiz-adv-x="557" d="M84 397l72 336h557l-72 -336h-557z" />
<glyph unicode="&#x2012;" horiz-adv-x="557" d="M84 397l72 336h557l-72 -336h-557z" />
<glyph unicode="&#x2013;" horiz-adv-x="1024" d="M84 397l72 336h1024l-72 -336h-1024z" />
<glyph unicode="&#x2014;" horiz-adv-x="2048" d="M84 397l72 336h2048l-72 -336h-2048z" />
<glyph unicode="&#x2018;" horiz-adv-x="540" d="M289 913l73 344q29 162 118 227.5t296 63.5l-33 -153q-86 -2 -122.5 -31t-53.5 -107h127l-73 -344h-332z" />
<glyph unicode="&#x2019;" horiz-adv-x="540" d="M287 901l30 154q88 2 125 30.5t54 106.5h-127l71 344h332l-72 -344q-31 -162 -119.5 -227.5t-293.5 -63.5z" />
<glyph unicode="&#x201a;" horiz-adv-x="540" d="M33 -291l33 154q86 2 122.5 30.5t53.5 106.5h-127l73 344h332l-74 -344q-31 -162 -118.5 -227.5t-294.5 -63.5z" />
<glyph unicode="&#x201c;" horiz-adv-x="1001" d="M289 913l73 344q29 162 118 227.5t296 63.5l-33 -153q-86 -2 -122.5 -31t-53.5 -107h127l-73 -344h-332zM750 913l73 344q29 162 118 227.5t296 63.5l-33 -153q-86 -2 -123 -31t-53 -107h127l-74 -344h-331z" />
<glyph unicode="&#x201d;" horiz-adv-x="1001" d="M287 901l30 154q88 2 125 30.5t54 106.5h-127l71 344h332l-72 -344q-31 -162 -119.5 -227.5t-293.5 -63.5zM748 901l30 154q88 2 125 30.5t53 106.5h-127l72 344h332l-72 -344q-31 -162 -119.5 -227.5t-293.5 -63.5z" />
<glyph unicode="&#x201e;" horiz-adv-x="1001" d="M29 -291l32 154q86 2 123 30.5t54 106.5h-127l73 344h332l-74 -344q-31 -162 -118.5 -227.5t-294.5 -63.5zM489 -291l33 154q86 2 123 30.5t53 106.5h-127l74 344h332l-74 -344q-31 -162 -119 -227.5t-295 -63.5z" />
<glyph unicode="&#x2022;" horiz-adv-x="1228" d="M395 768q31 160 167 272.5t298 112.5q160 0 249 -112.5t54 -272.5q-35 -158 -171 -270.5t-295.5 -112.5t-248 111.5t-53.5 271.5z" />
<glyph unicode="&#x2026;" horiz-adv-x="2048" d="M174 0l76 356h332l-76 -356h-332zM858 0l76 356h332l-76 -356h-332zM1542 0l76 356h332l-76 -356h-332z" />
<glyph unicode="&#x202f;" horiz-adv-x="403" />
<glyph unicode="&#x2039;" horiz-adv-x="677" d="M209 557l366 498l205 -125l-274 -373l123 -346l-248 -135z" />
<glyph unicode="&#x203a;" horiz-adv-x="675" d="M123 201l276 372l-125 347l248 135l174 -482l-368 -497z" />
<glyph unicode="&#x205f;" horiz-adv-x="503" />
<glyph unicode="&#x20ac;" d="M127 528l131 209h129l16 84h-219l131 209h136q35 131 96 226.5t135 150.5t176.5 88t200.5 43t227 10q66 0 101.5 -2t115.5 -13t144.5 -44t109.5 -86l-201 -324q-37 59 -101 90t-114.5 36t-130.5 5q-166 0 -247.5 -42t-118.5 -138h680l-129 -209h-602l-17 -84h572 l-131 -209h-480q-10 -113 50.5 -158.5t234.5 -45.5q244 0 420 141l-80 -377q-78 -45 -194.5 -72.5t-213.5 -27.5q-90 0 -148 2t-133 9t-120 23.5t-94 42t-75 65.5t-44 95.5t-17 131t19 171.5h-215z" />
<glyph unicode="&#x2122;" horiz-adv-x="1761" d="M283 1366l34 170h713l-35 -170h-252l-139 -657h-209l140 657h-252zM946 709l174 827h301l84 -489l289 489h301l-174 -827h-190l139 661h-4l-379 -661h-107l-100 661h-4l-139 -661h-191z" />
<glyph unicode="&#xe000;" horiz-adv-x="1075" d="M0 1075h1075v-1075h-1075v1075z" />
<glyph unicode="&#xfb01;" horiz-adv-x="1333" d="M182 0l174 817h-141l55 258h142l20 105q33 147 96.5 221t191.5 105.5t365 29.5l-55 -268q-35 10 -63 10q-113 0 -142.5 -28.5t-52.5 -135.5l-8 -39h240l-56 -258h-239l-174 -817h-353zM893 0l229 1075h353l-230 -1075h-352zM1161 1266l58 270h352l-58 -270h-352z" />
<glyph unicode="&#xfb02;" horiz-adv-x="1363" d="M182 0l174 817h-141l55 258h142l20 105q33 147 96.5 221t191.5 105.5t365 29.5l-55 -268q-35 10 -63 10q-113 0 -142.5 -28.5t-52.5 -135.5l-8 -39h240l-56 -258h-239l-174 -817h-353zM893 0l326 1536h352l-326 -1536h-352z" />
<glyph unicode="&#xfb03;" horiz-adv-x="2136" d="M1698 0l229 1075h353l-230 -1075h-352zM1966 1266l58 270h352l-57 -270h-353zM987 0l174 817h-141l55 258h142l20 105q33 147 96.5 221t191.5 105q120 30 337 30h28l-55 -268q-35 10 -63 10q-113 0 -142.5 -28.5t-52.5 -135.5l-8 -39h240l-56 -258h-239l-174 -817h-353z M182 0l174 817h-141l55 258h142l20 105q33 147 96.5 221t191.5 105q120 30 337 30h28l-55 -268q-35 10 -63 10q-113 0 -142.5 -28.5t-52.5 -135.5l-8 -39h240l-56 -258h-239l-174 -817h-353z" />
<glyph unicode="&#xfb04;" horiz-adv-x="2201" d="M1731 0l325 1536h353l-326 -1536h-352zM987 0l174 817h-141l55 258h142l20 105q33 147 96.5 221t191.5 105q120 30 337 30h28l-55 -268q-35 10 -63 10q-113 0 -142.5 -28.5t-52.5 -135.5l-8 -39h240l-56 -258h-239l-174 -817h-353zM182 0l174 817h-141l55 258h142l20 105 q33 147 96.5 221t191.5 105q120 30 337 30h28l-55 -268q-35 10 -63 10q-113 0 -142.5 -28.5t-52.5 -135.5l-8 -39h240l-56 -258h-239l-174 -817h-353z" />
</font>
</defs>
</svg>
